<?xml version="1.0" encoding="UTF-8"?>
<svg width="54px" height="58px" viewBox="0 0 54 58" version="1.1" xmlns="http://www.w3.org/2000/svg" xmlns:xlink="http://www.w3.org/1999/xlink">
    <!-- Generator: Sketch 47.1 (45422) - http://www.bohemiancoding.com/sketch -->
    <title>Education - Flat030 - Graduating Student</title>
    <desc>Created with Sketch.</desc>
    <defs></defs>
    <g id="Page-1" stroke="none" stroke-width="1" fill="none" fill-rule="evenodd">
        <g id="Education---Flat030---Graduating-Student" fill-rule="nonzero">
            <path d="M44,17 C43.7347624,17.000069 43.4803684,16.8947343 43.292817,16.707183 C43.1052657,16.5196316 42.999931,16.2652376 43,16 L43,9 C43,8.44771525 43.4477153,8 44,8 C44.5522847,8 45,8.44771525 45,9 L45,16 C45.000069,16.2652376 44.8947343,16.5196316 44.707183,16.707183 C44.5196316,16.8947343 44.2652376,17.000069 44,17 L44,17 Z" id="Shape" fill="#F3D55B"></path>
            <path d="M15,10.33 L7.90991,7.97 C7.49803162,7.83358958 7.22159149,7.44655302 7.22615839,7.01269735 C7.2307253,6.57884168 7.51525141,6.19771003 7.92991,6.07 L27,0 L46.07007,6.07 C46.4847286,6.19771003 46.7692547,6.57884168 46.7738216,7.01269735 C46.7783885,7.44655302 46.5019484,7.83358958 46.09007,7.97 L39,10.33 L15,10.33 Z" id="Shape" fill="#2C3E50"></path>
            <path d="M39,8 L39,20.85 L38.8,21 C38.5565722,20.6657167 38.2134891,20.4171565 37.82,20.29 C34.3037548,19.2806056 30.6578511,18.7953836 27,18.85 C23.3421255,18.7953768 19.6961977,19.2805988 16.17993,20.29 C15.7864409,20.4171565 15.4433578,20.6657167 15.19993,21 L14.99993,20.85 L14.99993,8 C18.8445724,6.60732374 22.9114974,5.92950687 27,6 C31.0884791,5.92951543 35.1553796,6.60733217 39,8 Z" id="Shape" fill="#35495E"></path>
            <path d="M16,49 C12.9346176,50.0788155 9.8046567,50.9645204 6.62851,51.65191 C5.61711922,51.7750211 4.61748178,51.9805854 3.63958,52.26655 C3.12272998,52.4629664 2.64029336,52.7400939 2.21024,53.08761 C2.15864,53.1289833 2.10777,53.1712633 2.05763,53.21445 C0.768996314,54.372121 0.0241873809,56.016632 0.004,57.74879 C0.00129333333,57.83249 -4e-05,57.9162267 -8.03177075e-16,58 L54,58 C54,57.9162533 53.9986667,57.8325167 53.996,57.74879 C53.9758075,56.0166289 53.2309911,54.3721175 51.94235,53.21445 C51.8922233,53.1713033 51.8413533,53.1290233 51.78974,53.08761 C51.3596866,52.7400939 50.87725,52.4629664 50.3604,52.26655 C49.3824982,51.9805854 48.3828608,51.7750211 47.37147,51.65191 C44.1953301,50.9645196 41.0653759,50.0788147 38,49 L16,49 Z" id="Shape" fill="#2C3E50"></path>
            <rect id="Rectangle-path" fill="#F09372" x="18" y="36" width="18" height="15"></rect>
            <path d="M39.15,23.16 L39.32,23.17 C39.32,23.17 40.34,21.82 41.35992,22.27 C42.37984,22.72 41.86992,26.75 41.86992,26.75 C41.4610627,28.7088917 40.1583287,30.3632159 38.34992,31.22 L15.65,31.22 C13.8415913,30.3632159 12.5388573,28.7088917 12.13,26.75 C12.13,26.75 11.62,22.72 12.64,22.27 C13.66,21.82 14.67992,23.17 14.67992,23.17 L14.84992,23.16 L39.15,23.16 Z" id="Shape" fill="#F09372"></path>
            <polyline id="Shape" fill="#35495E" points="18 45 15 51 23 58 27 51 18 45"></polyline>
            <polyline id="Shape" fill="#35495E" points="36 45 39 51 31 58 27 51 36 45"></polyline>
            <path d="M39.11,23.1 C38.86,26.37 38.26,27.48 38.26,29.62 C38.26,30.13 38.28,30.63 38.31,31.13 C38.42987,33.68 38.57,36.01 35.66986,38.66 C32.2,41.83 32.2,45 28.73,45 L25.27,45 C21.8,45 21.8,41.83 18.33006,38.66 C15.42991,36.01 15.57006,33.68 15.68992,31.13 C15.71992,30.63 15.73992,30.13 15.73992,29.62 C15.73992,27.48 15.13992,26.37 14.88992,23.1 C14.80992,21.88 14.75992,20.33 14.80992,18.31 C14.8184633,17.8925758 14.9545892,17.4877714 15.2,17.15 C15.4434278,16.8157167 15.7865109,16.5671565 16.18,16.44 C19.6962452,15.4306056 23.3421489,14.9453836 27,15 C30.6578745,14.9453768 34.3038023,15.4305988 37.82007,16.44 C38.2135591,16.5671565 38.5566422,16.8157167 38.80007,17.15 C39.0454131,17.4877938 39.1814721,17.8925963 39.18996,18.31 C39.24,20.33 39.18994,21.88 39.11,23.1 Z" id="Shape" fill="#FDD7AD"></path>
            <path d="M33,11 C32.7339993,11.0025856 32.4781403,10.8980593 32.2900405,10.7099595 C32.1019407,10.5218597 31.9974144,10.2660007 32,10 C32.001557,9.86919259 32.0287642,9.73996161 32.08008,9.61963 C32.1307898,9.49860407 32.2018124,9.3871358 32.29008,9.29004 L32.43949,9.16992 C32.4954349,9.13192675 32.5561885,9.10154996 32.62015,9.07959 C32.6767014,9.05081852 32.7372642,9.03072981 32.7998,9.02 C33.1292202,8.95279165 33.470479,9.05402647 33.70996,9.29 C33.7982276,9.3870958 33.8692502,9.49856407 33.91996,9.61959 C33.9712671,9.73993681 33.9984609,9.86918177 34,10 C33.9959931,10.264701 33.8924566,10.5181869 33.71,10.71 C33.51916,10.8939558 33.2650558,10.9977448 33,11 L33,11 Z" id="Shape" fill="#3F5C6C"></path>
            <path d="M36,13 C35.7348699,12.998116 35.4806333,12.8942729 35.29,12.71 C35.1071571,12.5184369 35.003556,12.2647929 35,12 C35.001557,11.8691926 35.0287642,11.7399616 35.08008,11.61963 C35.1283324,11.4973347 35.1996236,11.3854448 35.29008,11.29004 C35.6910281,10.9199169 36.3090519,10.9199169 36.71,11.29004 C36.7982676,11.3871358 36.8692902,11.4986041 36.92,11.61963 C36.9712883,11.7399672 36.9984683,11.8691979 37,12 C36.9979992,12.0669782 36.9911445,12.1337232 36.97949,12.19971 C36.9690009,12.262472 36.9489087,12.3232442 36.91992,12.37989 C36.8999455,12.4412656 36.8695551,12.4987448 36.83008,12.54981 C36.79008,12.60987 36.75,12.65967 36.70996,12.70997 C36.5191347,12.8939273 36.265046,12.9977265 36,13 L36,13 Z" id="Shape" fill="#3F5C6C"></path>
            <path d="M27,11 C26.595653,10.9984049 26.2317187,10.7544153 26.0766648,10.3809754 C25.9216108,10.0075356 26.0056973,9.57752565 26.29,9.29 C26.581959,9.01488674 27.0064413,8.93291846 27.37984,9.07955 C27.5010022,9.13052515 27.6126392,9.2016846 27.71,9.29 C27.9984599,9.57609046 28.0851619,10.0082668 27.929371,10.3834815 C27.77358,10.7586962 27.4062651,11.0023626 27,11 Z" id="Shape" fill="#3F5C6C"></path>
            <path d="M30,13 C29.7339993,13.0025856 29.4781403,12.8980593 29.2900405,12.7099595 C29.1019407,12.5218597 28.9974144,12.2660007 29,12 C29.0034639,11.7351884 29.1070782,11.481512 29.29,11.29 C29.6871917,10.919871 30.3029683,10.919871 30.70016,11.29 C30.8892563,11.4782502 30.9969211,11.7331928 31,12 C30.9988208,12.2671918 30.8908788,12.5228251 30.7002,12.71 C30.5131587,12.8936902 30.2621469,12.9976511 30,13 Z" id="Shape" fill="#3F5C6C"></path>
            <path d="M21,11 C20.595653,10.9984049 20.2317187,10.7544153 20.0766648,10.3809754 C19.9216108,10.0075356 20.0056973,9.57752565 20.29,9.29 C20.6871917,8.91987101 21.3029683,8.91987101 21.70016,9.29 C21.8918355,9.47647962 21.9999654,9.73253871 21.9999654,9.99996 C21.9999654,10.2673813 21.8918355,10.5234404 21.70016,10.70992 C21.6540678,10.7546245 21.6036959,10.7946935 21.54977,10.82955 C21.4987809,10.8692613 21.4412882,10.8998246 21.37985,10.91988 C21.3200336,10.9500532 21.2557237,10.9703359 21.18942,10.97994 C21.1268835,10.9914443 21.063559,10.9981505 21,11 L21,11 Z" id="Shape" fill="#3F5C6C"></path>
            <path d="M24,13 C23.595653,12.9984049 23.2317187,12.7544153 23.0766648,12.3809754 C22.9216108,12.0075356 23.0056973,11.5775256 23.29,11.29 C23.3855648,11.1993981 23.497614,11.1279586 23.62008,11.07955 C23.9930139,10.9277593 24.4203856,11.0102795 24.71,11.29 C24.9984599,11.5760905 25.0851619,12.0082668 24.929371,12.3834815 C24.77358,12.7586962 24.4062651,13.0023626 24,13 Z" id="Shape" fill="#3F5C6C"></path>
            <path d="M18,13 C17.7339993,13.0025856 17.4781403,12.8980593 17.2900405,12.7099595 C17.1019407,12.5218597 16.9974144,12.2660007 17,12 C17.0016408,11.932881 17.008168,11.8659707 17.01953,11.7998 C17.030825,11.7371102 17.051224,11.6764084 17.08008,11.61962 C17.1017732,11.5559405 17.1319948,11.495494 17.16992,11.43993 C17.2068135,11.3875226 17.2469169,11.3374501 17.29,11.29 C17.6909481,10.9198769 18.3089719,10.9198769 18.70992,11.29 C18.7530158,11.3374393 18.7931326,11.3875018 18.83004,11.4399 C18.8675862,11.4956859 18.8977818,11.5560806 18.91988,11.61959 C18.9488687,11.6762358 18.9689609,11.737008 18.97945,11.79977 C18.9916311,11.8658582 18.998503,11.9328153 19,12 C19.0025856,12.2660007 18.8980593,12.5218597 18.7099595,12.7099595 C18.5218597,12.8980593 18.2660007,13.0025856 18,13 L18,13 Z" id="Shape" fill="#3F5C6C"></path>
        </g>
    </g>
</svg>