<?xml version="1.0" encoding="UTF-8"?>
<svg width="60px" height="60px" viewBox="0 0 60 60" version="1.1" xmlns="http://www.w3.org/2000/svg" xmlns:xlink="http://www.w3.org/1999/xlink">
    <!-- Generator: Sketch 47.1 (45422) - http://www.bohemiancoding.com/sketch -->
    <title>Education - Outline - 022 - Text Book</title>
    <desc>Created with Sketch.</desc>
    <defs></defs>
    <g id="Page-1" stroke="none" stroke-width="1" fill="none" fill-rule="evenodd">
        <g id="Education---Outline---022---Text-Book" fill-rule="nonzero" fill="#000000">
            <path d="M57,6 L56,6 L56,4.25977 C55.9999998,3.95158238 55.8578531,3.66062152 55.61475,3.4712 C55.48487,3.37013 55.3545,3.26905 55.22803,3.1812 C52.38623,1.18945 47.62842,0 42.5,0 C37.49652,0 32.85931,1.13824 29.99976,3.04083 C28.8788124,2.31697816 27.6677856,1.74324066 26.39765,1.33429 L26.37452,1.32562 C23.673186,0.474047388 20.8594293,0.032349924 18.0271,0.01526 C18.01758,0.015 18.00958,0.00977 18,0.00977 C17.9928,0.00977 17.98688,0.01377 17.97974,0.01386 C17.81891,0.01147 17.66162,0 17.5,0 C12.37158,0 7.61377,1.18945 4.77539,3.17871 C4.64551,3.26904 4.51514,3.37012 4.38525,3.47119 C4.14214418,3.66061368 3.9999971,3.95157887 4,4.25977 L4,6 L3,6 C1.34389511,6.00180771 0.00180771165,7.34389511 0,9 L0,57 C0.00180771165,58.6561049 1.34389511,59.9981923 3,60 L57,60 C58.6561049,59.9981923 59.9981923,58.6561049 60,57 L60,9 C59.9981923,7.34389511 58.6561049,6.00180771 57,6 Z M54,4.76367 L54,52.18652 C50.4103466,50.4850366 46.4712401,49.6504529 42.5,49.75 C38.5288072,49.6503528 34.5897169,50.4847549 31,52.186 L31,4.76367 C33.49463,3.05713 37.88721,2 42.5,2 C47.11084,2 51.50146,3.05615 54,4.76367 Z M53.14539,54 L31.85425,54 C35.1776436,52.4265944 38.8241744,51.655893 42.5,51.75 C46.1757019,51.6559803 49.8220958,52.4266788 53.14539,54 L53.14539,54 Z M19,2.0426 C21.0302384,2.13373822 23.0433576,2.45711562 25,3.00641 L25,16.14941 L22.78076,13.37548 C22.584326,13.1493729 22.2995175,13.019527 22,13.019527 C21.7004825,13.019527 21.415674,13.1493729 21.21924,13.37548 L19,16.14941 L19,2.0426 Z M6,4.76367 C8.40381,3.11926 12.57275,2.08789 17,2.01422 L17,19 C16.9998213,19.4247593 17.2680631,19.8032589 17.6688883,19.9438278 C18.0697136,20.0843966 18.5156032,19.9563418 18.78076,19.62451 L22,15.60059 L25.21924,19.62452 C25.4088294,19.8619271 25.6961806,20.0001189 26,20 C26.2652824,20.0002151 26.5197613,19.8949274 26.7073444,19.7073444 C26.8949274,19.5197613 27.0002151,19.2652824 27,19 L27,3.70471 C27.6996468,3.99155725 28.3695121,4.34625093 29,4.76371 L29,52.18652 C25.4103466,50.4850366 21.4712401,49.6504529 17.5,49.75 C13.5288072,49.6503528 9.58971686,50.4847549 6,52.186 L6,4.76367 Z M28.14539,54 L6.85425,54 C10.1776436,52.4265944 13.8241744,51.655893 17.5,51.75 C21.1757019,51.6559803 24.8220958,52.4266788 28.14539,54 L28.14539,54 Z M58,57 C57.9992838,57.5519878 57.5519878,57.9992838 57,58 L3,58 C2.44801218,57.9992838 2.00071619,57.5519878 2,57 L2,9 C2.00071619,8.44801218 2.44801218,8.00071619 3,8 L4,8 L4,55 C4,55.5522847 4.44771525,56 5,56 L55,56 C55.5522847,56 56,55.5522847 56,55 L56,8 L57,8 C57.5519878,8.00071619 57.9992838,8.44801218 58,9 L58,57 Z" id="Shape"></path>
            <path d="M9,8 C9.40434698,7.99840493 9.76828126,7.75441526 9.92333521,7.38097544 C10.0783892,7.00753562 9.99430271,6.57752565 9.71,6.29 C9.42390954,6.00154005 8.99173321,5.91483814 8.61651849,6.07062905 C8.24130378,6.22641996 7.99763738,6.59373493 8,7 C7.99741438,7.26600072 8.10194072,7.52185969 8.29004051,7.70995949 C8.47814031,7.89805928 8.73399928,8.00258562 9,8 L9,8 Z" id="Shape"></path>
            <path d="M8.61963,11.91992 C8.73996161,11.9712358 8.86919259,11.998443 9,12 C9.40434698,11.9984049 9.76828126,11.7544153 9.92333521,11.3809754 C10.0783892,11.0075356 9.99430271,10.5775256 9.71,10.29 C9.42252607,10.0058708 8.99223664,9.92281851 8.61967,10.07955 C8.4985988,10.1304172 8.38710559,10.2015906 8.29,10.29 C7.90327992,10.6843133 7.90327992,11.3156067 8.29,11.70992 C8.38723348,11.7980269 8.49868596,11.8690308 8.61963,11.91992 Z" id="Shape"></path>
            <path d="M8.07959,15.37988 C8.10155785,15.4436879 8.13193552,15.5042818 8.16992,15.56006 C8.20992,15.60986 8.25,15.65967 8.29004,15.70996 C8.38726142,15.7980631 8.4987001,15.8690668 8.61963,15.91996 C8.86180057,16.0267298 9.13770943,16.0267298 9.37988,15.91996 C9.50097334,15.8690914 9.61258823,15.7981031 9.71,15.71 C10.0967201,15.3156867 10.0967201,14.6843933 9.71,14.29008 C9.6127431,14.2016678 9.50111493,14.1304967 9.37992,14.07963 C9.13841099,13.9697646 8.86117901,13.9697646 8.61967,14.07963 C8.49860451,14.1304729 8.38711166,14.2016191 8.29,14.29 C8.10727134,14.4816371 8.00368941,14.7352342 8,15 C8.00158087,15.0669816 8.00826692,15.1337451 8.02,15.19971 C8.03072235,15.2624135 8.05081015,15.3231489 8.07959,15.37988 Z" id="Shape"></path>
            <path d="M9,20 C9.06696637,19.9981765 9.13371191,19.9914923 9.19971,19.98 C9.26237958,19.9688819 9.32308347,19.9486473 9.37989,19.91994 C9.44369787,19.8979721 9.50429178,19.8675945 9.56007,19.82961 C9.60987,19.79006 9.65968,19.75002 9.70997,19.70998 C10.0966901,19.3156667 10.0966901,18.6843733 9.70997,18.29006 C9.65968,18.25006 9.60987,18.20998 9.56007,18.16994 C9.50429178,18.1319555 9.44369787,18.1015779 9.37989,18.07961 C9.32315681,18.0508224 9.262418,18.0307278 9.19971,18.02 C8.87043653,17.9527268 8.52929326,18.0539818 8.29004,18.29 C8.19944784,18.385386 8.1280055,18.4972733 8.07959,18.61959 C8.0284249,18.7399642 8.00138378,18.8692105 8,19 C8.00184398,19.2651381 8.10569293,19.519389 8.29,19.71 C8.48176204,19.8925356 8.73528015,19.9960852 9,20 L9,20 Z" id="Shape"></path>
            <path d="M8.07959,23.37988 C8.10155785,23.4436879 8.13193552,23.5042818 8.16992,23.56006 C8.20690442,23.6124022 8.24700348,23.6624726 8.29,23.71 C8.48176204,23.8925356 8.73528015,23.9960852 9,24 C9.06696637,23.9981765 9.13371191,23.9914923 9.19971,23.98 C9.26237958,23.9688819 9.32308347,23.9486473 9.37989,23.91994 C9.44369787,23.8979721 9.50429178,23.8675945 9.56007,23.82961 C9.60987,23.79006 9.65968,23.75002 9.70997,23.70998 C9.74997,23.65969 9.79005,23.60988 9.8296,23.56008 C9.86758448,23.5043018 9.89796215,23.4437079 9.91993,23.3799 C9.94864164,23.3230909 9.96887967,23.2623835 9.98,23.19971 C9.99149228,23.1337119 9.99817652,23.0669664 10,23 C9.99608525,22.7352802 9.89253559,22.481762 9.71,22.29 C9.65971,22.25 9.6099,22.20992 9.5601,22.16988 C9.50432178,22.1318955 9.44372787,22.1015179 9.37992,22.07955 C9.32317405,22.0507804 9.26242505,22.030706 9.19971,22.02 C8.87067454,21.9577711 8.53184578,22.0583392 8.29004,22.29 C8.10729674,22.4816309 8.00370022,22.7352288 8,23 C8.00158087,23.0669816 8.00826692,23.1337451 8.02,23.19971 C8.03072235,23.2624135 8.05081015,23.3231489 8.07959,23.37988 Z" id="Shape"></path>
            <path d="M8.29,27.71 C8.48176204,27.8925356 8.73528015,27.9960852 9,28 C9.13114939,28.0034109 9.26126759,27.9759815 9.37988,27.91992 C9.63104228,27.8288893 9.82884932,27.6310823 9.91988,27.37992 C9.9711636,27.2597345 9.99838375,27.1306596 10,27 C9.99820101,26.9328697 9.99151667,26.8659595 9.98,26.7998 C9.96888189,26.7371304 9.94864726,26.6764265 9.91994,26.61962 C9.89786337,26.5560115 9.86749132,26.4955935 9.82961,26.43993 C9.79303601,26.3874105 9.75308151,26.3373279 9.71,26.29 C9.6127431,26.2015878 9.50111493,26.1304167 9.37992,26.07955 C9.00749495,25.9227335 8.5772711,26.0058044 8.29,26.29 C8.25,26.3398 8.20992,26.38961 8.16988,26.4399 C8.13199868,26.4955635 8.10162663,26.5559815 8.07955,26.61959 C8.05078021,26.6763359 8.03070583,26.7370849 8.02,26.7998 C8.0082425,26.8659263 8.00155636,26.9328546 8,27 C8.00144005,27.1306122 8.0284803,27.2596743 8.07959,27.37988 C8.13044054,27.5010862 8.20159815,27.612728 8.29,27.71 L8.29,27.71 Z" id="Shape"></path>
            <path d="M8.29,31.71 C8.3398,31.75 8.38961,31.79008 8.4399,31.82963 C8.49556352,31.8675113 8.55598148,31.8978834 8.61959,31.91996 C8.67640703,31.9486631 8.73712118,31.968891 8.7998,31.98 C8.86595949,31.9915167 8.93286971,31.998201 9,32 C9.13064347,31.9983912 9.25970417,31.9711848 9.37988,31.91992 C9.63104228,31.8288893 9.82884932,31.6310823 9.91988,31.37992 C9.9711636,31.2597345 9.99838375,31.1306596 10,31 C9.99608525,30.7352802 9.89253559,30.481762 9.71,30.29 C9.6127431,30.2015878 9.50111493,30.1304167 9.37992,30.07955 C9.19741692,29.9999605 8.99466654,29.979148 8.7998,30.02 C8.73709416,30.0307152 8.67635544,30.0507963 8.61962,30.07957 C8.55601148,30.1016466 8.49559352,30.1320187 8.43993,30.1699 C8.38964,30.2099 8.33983,30.24998 8.29003,30.29002 C8.25003,30.33982 8.20995,30.38963 8.16991,30.43992 C8.13202868,30.4955835 8.10165663,30.5560015 8.07958,30.61961 C8.05080172,30.6763479 8.03071725,30.7370902 8.02,30.7998 C8.0082425,30.8659263 8.00155636,30.9328546 8,31 C8.00144005,31.1306122 8.0284803,31.2596743 8.07959,31.37988 C8.13044054,31.5010862 8.20159815,31.612728 8.29,31.71 Z" id="Shape"></path>
            <path d="M8.29,35.71 C8.3398,35.75 8.38961,35.79008 8.4399,35.82963 C8.49556352,35.8675113 8.55598148,35.8978834 8.61959,35.91996 C8.67640703,35.9486631 8.73712118,35.968891 8.7998,35.98 C8.86595949,35.9915167 8.93286971,35.998201 9,36 C9.13064347,35.9983912 9.25970417,35.9711848 9.37988,35.91992 C9.63104228,35.8288893 9.82884932,35.6310823 9.91988,35.37992 C9.9711636,35.2597345 9.99838375,35.1306596 10,35 C9.99820101,34.9328697 9.99151667,34.8659595 9.98,34.7998 C9.96888189,34.7371304 9.94864726,34.6764265 9.91994,34.61962 C9.89786337,34.5560115 9.86749132,34.4955935 9.82961,34.43993 C9.79,34.38965 9.75,34.33984 9.71,34.29 C9.6127431,34.2015878 9.50111493,34.1304167 9.37992,34.07955 C9.00749495,33.9227335 8.5772711,34.0058044 8.29,34.29 C8.10727134,34.4816371 8.00368941,34.7352342 8,35 C8.00144005,35.1306122 8.0284803,35.2596743 8.07959,35.37988 C8.13044054,35.5010862 8.20159815,35.612728 8.29,35.71 L8.29,35.71 Z" id="Shape"></path>
            <path d="M8.07959,39.37988 C8.10155785,39.4436879 8.13193552,39.5042818 8.16992,39.56006 C8.20690442,39.6124022 8.24700348,39.6624726 8.29,39.71 C8.38553198,39.8002934 8.49738869,39.8715635 8.61959,39.92 C8.73993959,39.9712934 8.86918445,39.9984735 9,40 C9.26470103,39.9959931 9.51818687,39.8924566 9.71,39.71 C9.75285554,39.6624851 9.79280481,39.6124275 9.82963,39.5601 C9.86761448,39.5043218 9.89799215,39.4437279 9.91996,39.37992 C9.9486631,39.323103 9.96889105,39.2623888 9.98,39.19971 C10.0066926,39.0677463 10.0066926,38.9317737 9.98,38.79981 C9.96888189,38.7371404 9.94864726,38.6764365 9.91994,38.61963 C9.89786337,38.5560215 9.86749132,38.4956035 9.82961,38.43994 C9.79303636,38.3874171 9.75308186,38.3373312 9.71,38.29 C9.31196597,37.9124975 8.68811403,37.9124975 8.29008,38.29 C8.24683908,38.3373152 8.20671474,38.3873872 8.16996,38.4399 C8.13207868,38.4955635 8.10170663,38.5559815 8.07963,38.61959 C8.05083252,38.6763314 8.03073111,38.7370806 8.02,38.7998 C7.99330743,38.9317637 7.99330743,39.0677363 8.02,39.1997 C8.03072138,39.262407 8.0508092,39.3231457 8.07959,39.37988 Z" id="Shape"></path>
            <path d="M8.61963,43.91992 C8.73996161,43.9712358 8.86919259,43.998443 9,44 C9.26600072,44.0025856 9.52185969,43.8980593 9.70995949,43.7099595 C9.89805928,43.5218597 10.0025856,43.2660007 10,43 C9.99769855,42.9329024 9.99101766,42.8660268 9.98,42.7998 C9.96888189,42.7371304 9.94864726,42.6764265 9.91994,42.61962 C9.89786337,42.5560115 9.86749132,42.4955935 9.82961,42.43993 C9.79303601,42.3874105 9.75308151,42.3373279 9.71,42.29 C9.31196597,41.9124975 8.68811403,41.9124975 8.29008,42.29 C8.25008,42.3398 8.21,42.38961 8.16996,42.4399 C8.13207868,42.4955635 8.10170663,42.5559815 8.07963,42.61959 C8.05083252,42.6763314 8.03073111,42.7370806 8.02,42.7998 C8.00874098,42.8659945 8.00205847,42.9328864 8,43 C8.00378205,43.2647469 8.1073507,43.5183115 8.29,43.71 C8.3872395,43.7980784 8.49869162,43.8690551 8.61963,43.91992 L8.61963,43.91992 Z" id="Shape"></path>
            <path d="M12,10 C12.0669664,9.99817652 12.1337119,9.99149228 12.19971,9.98 C12.2623796,9.96888189 12.3230835,9.94864726 12.37989,9.91994 C12.4413731,9.89999028 12.4988834,9.86941764 12.54981,9.82961 C12.60986,9.79 12.65967,9.75 12.71,9.71 C13.0967201,9.31568674 13.0967201,8.68439326 12.71,8.29008 C12.417803,8.01504471 11.993236,7.93309693 11.61967,8.07963 C11.4986045,8.13047295 11.3871117,8.2016191 11.29,8.29 C11.0015401,8.57609046 10.9148381,9.00826679 11.070629,9.38348151 C11.22642,9.75869622 11.5937349,10.0023626 12,10 Z" id="Shape"></path>
            <path d="M12,14 C12.4715743,13.9953779 12.8744841,13.6588898 12.963079,13.1956895 C13.051674,12.7324891 12.8013786,12.2710644 12.3647956,12.0927418 C11.9282126,11.9144192 11.4264466,12.0686638 11.1654197,12.4614343 C10.9043928,12.8542047 10.9565117,13.3765495 11.29,13.71 C11.4818131,13.8924566 11.735299,13.9959931 12,14 Z" id="Shape"></path>
            <path d="M11.61963,17.91992 C11.7383988,17.9760339 11.8686882,18.003464 12,18 C12.404347,17.9984049 12.7682813,17.7544153 12.9233352,17.3809754 C13.0783892,17.0075356 12.9943027,16.5775256 12.71,16.29 C12.311966,15.9124975 11.688114,15.9124975 11.29008,16.29 C10.9033599,16.6843133 10.9033599,17.3156067 11.29008,17.70992 C11.3872894,17.7980193 11.4987142,17.8690228 11.61963,17.91992 L11.61963,17.91992 Z" id="Shape"></path>
            <path d="M11.07959,21.37988 C11.1015579,21.4436879 11.1319355,21.5042818 11.16992,21.56006 C11.20992,21.60986 11.25,21.65967 11.29004,21.70996 C11.4817858,21.8925009 11.7352886,21.9960644 12,22 C12.0669664,21.9981765 12.1337119,21.9914923 12.19971,21.98 C12.2623796,21.9688819 12.3230835,21.9486473 12.37989,21.91994 C12.4413731,21.8999903 12.4988834,21.8694176 12.54981,21.82961 C12.60987,21.79006 12.65967,21.75002 12.70997,21.70998 C12.74997,21.65969 12.79005,21.60988 12.8296,21.56008 C12.8675845,21.5043018 12.8979621,21.4437079 12.91993,21.3799 C12.9486373,21.3230935 12.9688719,21.2623896 12.97999,21.19972 C12.9914861,21.1337189 12.9981737,21.06697 13,21 C12.9960852,20.7352802 12.8925356,20.481762 12.71,20.29 C12.65971,20.25 12.6099,20.20992 12.54984,20.16988 C12.4989134,20.1300724 12.4414031,20.0994997 12.37992,20.07955 C12.3231846,20.0507763 12.2624458,20.0306952 12.19974,20.01998 C11.8704665,19.9527068 11.5293233,20.0539618 11.29007,20.28998 C11.1073111,20.4816113 11.0037033,20.7352177 11,21 C11.0015809,21.0669816 11.0082669,21.1337451 11.02,21.19971 C11.0307225,21.2624135 11.0508103,21.3231488 11.07959,21.37988 L11.07959,21.37988 Z" id="Shape"></path>
            <path d="M11.07959,25.37988 C11.1015579,25.4436879 11.1319355,25.5042818 11.16992,25.56006 C11.20992,25.60986 11.25,25.65967 11.29004,25.70996 C11.33984,25.74996 11.38965,25.79004 11.43994,25.82959 C11.4956035,25.8674713 11.5560215,25.8978434 11.61963,25.91992 C11.6764365,25.9486273 11.7371404,25.9688619 11.79981,25.97998 C11.8659657,25.9915029 11.9328726,25.9981939 12,26 C12.1306435,25.9983912 12.2597042,25.9711848 12.37988,25.91992 C12.500962,25.8690353 12.6125633,25.7980335 12.70996,25.70992 C12.7528155,25.6624051 12.7927648,25.6123475 12.82959,25.56002 C12.8675745,25.5042418 12.8979521,25.4436479 12.91992,25.37984 C12.9486273,25.3230335 12.9688619,25.2623296 12.97998,25.19966 C12.9914766,25.1336789 12.9981675,25.0669501 13,25 C12.998443,24.8691926 12.9712358,24.7399616 12.91992,24.61963 C12.8284917,24.3687209 12.6308291,24.1710583 12.37992,24.07963 C12.1974255,24.0000136 11.9946748,23.9791731 11.7998,24.02 C11.7370941,24.0307151 11.6763554,24.0507961 11.61962,24.07957 C11.5560115,24.1016466 11.4955935,24.1320187 11.43993,24.1699 C11.3874075,24.2066472 11.3373255,24.2467649 11.29,24.29 C11.2015983,24.3870815 11.1304252,24.4985471 11.07955,24.61959 C11.0283986,24.739967 11.0013711,24.8692131 11,25 C11.0015809,25.0669816 11.0082669,25.1337451 11.02,25.19971 C11.0307225,25.2624135 11.0508103,25.3231488 11.07959,25.37988 L11.07959,25.37988 Z" id="Shape"></path>
            <path d="M11.29,29.71 C11.3872214,29.7981031 11.4986601,29.8691068 11.61959,29.92 C11.7399396,29.9712934 11.8691845,29.9984735 12,30 C12.0669664,29.9981765 12.1337119,29.9914923 12.19971,29.98 C12.2623796,29.9688819 12.3230835,29.9486473 12.37989,29.91994 C12.4436979,29.8979721 12.5042918,29.8675945 12.56007,29.82961 C12.60987,29.79006 12.65968,29.75002 12.70997,29.70998 C12.7980835,29.6125833 12.8690853,29.500982 12.91997,29.3799 C12.9712201,29.2597145 12.9984096,29.1306469 13,29 C12.9960852,28.7352802 12.8925356,28.481762 12.71,28.29 C12.65971,28.25 12.6099,28.20992 12.5601,28.16988 C12.5043218,28.1318955 12.4437279,28.1015179 12.37992,28.07955 C12.3231846,28.0507763 12.2624458,28.0306952 12.19974,28.01998 C12.0048829,27.9791675 11.8021553,27.9999862 11.61966,28.07955 C11.4985923,28.1304182 11.3871026,28.2015916 11.29,28.29 C11.1056929,28.480611 11.001844,28.7348619 11,29 C11.0014401,29.1306122 11.0284803,29.2596743 11.07959,29.37988 C11.1280999,29.5022969 11.1995124,29.6143386 11.29,29.71 L11.29,29.71 Z" id="Shape"></path>
            <path d="M11.29,33.71 C11.3872214,33.7981031 11.4986601,33.8691068 11.61959,33.92 C11.7383776,33.9760925 11.8686811,34.0034953 12,34 C12.264701,33.9959931 12.5181869,33.8924566 12.71,33.71 C12.7981135,33.6126033 12.8691153,33.501002 12.92,33.37992 C13.0267698,33.1377494 13.0267698,32.8618406 12.92,32.61967 C12.8715635,32.4974687 12.8002934,32.385612 12.71,32.29008 C12.6127431,32.2016678 12.5011149,32.1304967 12.37992,32.07963 C12.1362914,31.9800216 11.8632986,31.9800216 11.61967,32.07963 C11.3690144,32.1714557 11.1714957,32.3689744 11.07967,32.61963 C10.9735511,32.8619373 10.9735511,33.1375727 11.07967,33.37988 C11.1304963,33.5010805 11.2016266,33.612722 11.29,33.71 L11.29,33.71 Z" id="Shape"></path>
            <path d="M12,38 C12.264701,37.9959931 12.5181869,37.8924566 12.71,37.71 C12.7528555,37.6624851 12.7928048,37.6124275 12.82963,37.5601 C12.8676145,37.5043218 12.8979921,37.4437279 12.91996,37.37992 C12.9486673,37.3231135 12.9689019,37.2624096 12.98002,37.19974 C12.991507,37.1337315 12.9981846,37.0669759 13,37 C13.003464,36.8686882 12.9760339,36.7383988 12.91992,36.61963 C12.8690268,36.4987001 12.7980231,36.3872614 12.70992,36.29004 C12.30897,35.9199217 11.69095,35.9199217 11.29,36.29004 C11.2015983,36.3871215 11.1304252,36.4985871 11.07955,36.61963 C11.0284037,36.7399946 11.0013763,36.8692266 11,37 C10.9974144,37.2660007 11.1019407,37.5218597 11.2900405,37.7099595 C11.4781403,37.8980593 11.7339993,38.0025856 12,38 L12,38 Z" id="Shape"></path>
            <path d="M11.29,41.71 C11.6843133,42.0967201 12.3156067,42.0967201 12.70992,41.71 C12.7980335,41.6126033 12.8690353,41.501002 12.91992,41.37992 C12.9759877,41.2612955 13.0034172,41.1311628 13,41 C12.9960852,40.7352802 12.8925356,40.481762 12.71,40.29 C12.6624866,40.2469911 12.6124296,40.2068786 12.5601,40.16988 C12.5043218,40.1318955 12.4437279,40.1015179 12.37992,40.07955 C12.3231846,40.0507763 12.2624458,40.0306952 12.19974,40.01998 C12.0681588,39.9897068 11.9314212,39.9897068 11.79984,40.01998 C11.7371341,40.0306951 11.6763954,40.0507761 11.61966,40.07955 C11.5560515,40.1016266 11.4956335,40.1319987 11.43997,40.16988 C11.3874331,40.2066323 11.3373378,40.2467567 11.29,40.29 C11.1072713,40.4816371 11.0036894,40.7352342 11,41 C11.0014401,41.1306122 11.0284803,41.2596743 11.07959,41.37988 C11.1304405,41.5010862 11.2015982,41.612728 11.29,41.71 L11.29,41.71 Z" id="Shape"></path>
            <path d="M11.07959,45.37988 C11.1015579,45.4436879 11.1319355,45.5042818 11.16992,45.56006 C11.20992,45.60986 11.25,45.65967 11.29004,45.70996 C11.6821511,46.1020711 12.3178889,46.1020711 12.71,45.70996 C13.1021111,45.3178489 13.1021111,44.6821111 12.71,44.29 C12.65971,44.25 12.6099,44.20992 12.5601,44.16988 C12.5043218,44.1318955 12.4437279,44.1015179 12.37992,44.07955 C12.3231846,44.0507763 12.2624458,44.0306952 12.19974,44.01998 C11.9051649,43.957345 11.5980807,44.0317503 11.3648444,44.2222717 C11.1316081,44.4127932 10.9974141,44.6988507 11,45 C11.0020599,45.0669511 11.0087425,45.13368 11.02,45.19971 C11.0307225,45.2624135 11.0508103,45.3231488 11.07959,45.37988 Z" id="Shape"></path>
            <path d="M8.61963,47.91992 C8.73839876,47.9760339 8.86868818,48.003464 9,48 C9.26600072,48.0025856 9.52185969,47.8980593 9.70995949,47.7099595 C9.89805928,47.5218597 10.0025856,47.2660007 10,47 C9.99844299,46.8691926 9.97123575,46.7399616 9.91992,46.61963 C9.87151192,46.4974208 9.80026903,46.3855506 9.71,46.29 C9.42207599,46.0067258 8.99233617,45.9237796 8.61967,46.07955 C8.36901439,46.1713757 8.17149568,46.3688944 8.07967,46.61955 C8.02847232,46.7399311 8.00140387,46.8691916 8,47 C8.00378205,47.2647469 8.1073507,47.5183115 8.29,47.71 C8.38555064,47.800269 8.49742083,47.8715119 8.61963,47.91992 Z" id="Shape"></path>
            <path d="M51,8 C51.404347,7.99840493 51.7682813,7.75441526 51.9233352,7.38097544 C52.0783892,7.00753562 51.9943027,6.57752565 51.71,6.29 C51.4239095,6.00154005 50.9917332,5.91483814 50.6165185,6.07062905 C50.2413038,6.22641996 49.9976374,6.59373493 50,7 C49.9974144,7.26600072 50.1019407,7.52185969 50.2900405,7.70995949 C50.4781403,7.89805928 50.7339993,8.00258562 51,8 L51,8 Z" id="Shape"></path>
            <path d="M51,12 C51.1306435,11.9983912 51.2597042,11.9711848 51.37988,11.91992 C51.500962,11.8690353 51.6125633,11.7980335 51.70996,11.70992 C52.0966801,11.3156067 52.0966801,10.6843133 51.70996,10.29 C51.6127031,10.2015878 51.5010749,10.1304167 51.37988,10.07955 C51.0069377,9.92797741 50.5796997,10.0104748 50.29,10.29 C49.9032799,10.6843133 49.9032799,11.3156067 50.29,11.70992 C50.4817497,11.8924848 50.7352693,11.9960636 51,12 Z" id="Shape"></path>
            <path d="M50.61963,15.91992 C50.7383988,15.9760339 50.8686882,16.003464 51,16 C51.264701,15.9959931 51.5181869,15.8924566 51.71,15.71 C51.75,15.65971 51.79008,15.6099 51.82963,15.5601 C51.8676145,15.5043218 51.8979921,15.4437279 51.91996,15.37992 C51.9486673,15.3231135 51.9689019,15.2624096 51.98002,15.19974 C51.991507,15.1337315 51.9981846,15.0669759 52,15 C51.9960852,14.7352802 51.8925356,14.481762 51.71,14.29 C51.4225261,14.0058708 50.9922366,13.9228185 50.61967,14.07955 C50.4985988,14.1304172 50.3871056,14.2015906 50.29,14.29 C49.9032799,14.6843133 49.9032799,15.3156067 50.29,15.70992 C50.3872335,15.7980269 50.498686,15.8690308 50.61963,15.91992 Z" id="Shape"></path>
            <path d="M51,20 C51.1306435,19.9983912 51.2597042,19.9711848 51.37988,19.91992 C51.500962,19.8690353 51.6125633,19.7980335 51.70996,19.70992 C52.0966801,19.3156067 52.0966801,18.6843133 51.70996,18.29 C51.6127031,18.2015878 51.5010749,18.1304167 51.37988,18.07955 C51.007466,17.9227515 50.5772637,18.0058213 50.29,18.29 C50.0015401,18.5760905 49.9148381,19.0082668 50.070629,19.3834815 C50.22642,19.7586962 50.5937349,20.0023626 51,20 Z" id="Shape"></path>
            <path d="M50.61963,23.91992 C50.8618006,24.0266898 51.1377094,24.0266898 51.37988,23.91992 C51.500962,23.8690353 51.6125633,23.7980335 51.70996,23.70992 C51.7528155,23.6624051 51.7927648,23.6123475 51.82959,23.56002 C51.8675745,23.5042418 51.8979521,23.4436479 51.91992,23.37984 C51.9486273,23.3230335 51.9688619,23.2623296 51.97998,23.19966 C51.9914766,23.1336789 51.9981675,23.0669501 52,23 C51.9960852,22.7352802 51.8925356,22.481762 51.71,22.29 C51.6127431,22.2015878 51.5011149,22.1304167 51.37992,22.07955 C51.1362914,21.9799416 50.8632986,21.9799416 50.61967,22.07955 C50.4985988,22.1304172 50.3871056,22.2015906 50.29,22.29 C49.9032799,22.6843133 49.9032799,23.3156067 50.29,23.70992 C50.3872335,23.7980269 50.498686,23.8690308 50.61963,23.91992 Z" id="Shape"></path>
            <path d="M50.29,27.71 C50.3373177,27.7530873 50.3873902,27.7930485 50.4399,27.82963 C50.4955635,27.8675113 50.5559815,27.8978834 50.61959,27.91996 C50.6763965,27.9486673 50.7371004,27.9689019 50.79977,27.98002 C50.8659399,27.9915314 50.9328602,27.9982091 51,28 C51.1311494,28.0034109 51.2612676,27.9759815 51.37988,27.91992 C51.6310423,27.8288893 51.8288493,27.6310823 51.91988,27.37992 C51.9711636,27.2597345 51.9983838,27.1306596 52,27 C51.998201,26.9328697 51.9915167,26.8659595 51.98,26.7998 C51.9688819,26.7371304 51.9486473,26.6764265 51.91994,26.61962 C51.8978634,26.5560115 51.8674913,26.4955935 51.82961,26.43993 C51.793036,26.3874105 51.7530815,26.3373279 51.71,26.29 C51.6127431,26.2015878 51.5011149,26.1304167 51.37992,26.07955 C51.1974169,25.9999605 50.9946665,25.979148 50.7998,26.02 C50.7370941,26.0307151 50.6763554,26.0507961 50.61962,26.07957 C50.5560115,26.1016466 50.4955935,26.1320187 50.43993,26.1699 C50.38964,26.2099 50.33983,26.24998 50.29003,26.29002 C50.25003,26.33982 50.20995,26.38963 50.16991,26.43992 C50.1320287,26.4955835 50.1016566,26.5560015 50.07958,26.61961 C50.0508061,26.6763454 50.0307251,26.7370841 50.02001,26.79979 C50.0082486,26.8659194 50.0015592,26.932851 50,27 C50.0014401,27.1306122 50.0284803,27.2596743 50.07959,27.37988 C50.1304405,27.5010862 50.2015982,27.612728 50.29,27.71 L50.29,27.71 Z" id="Shape"></path>
            <path d="M50.29,31.71 C50.3872214,31.7981031 50.4986601,31.8691068 50.61959,31.92 C50.7399396,31.9712934 50.8691845,31.9984735 51,32 C51.0669664,31.9981765 51.1337119,31.9914923 51.19971,31.98 C51.2623796,31.9688819 51.3230835,31.9486473 51.37989,31.91994 C51.4436979,31.8979721 51.5042918,31.8675945 51.56007,31.82961 C51.60987,31.79006 51.65968,31.75002 51.70997,31.70998 C51.7980835,31.6125833 51.8690853,31.500982 51.91997,31.3799 C51.9712201,31.2597145 51.9984096,31.1306469 52,31 C51.998201,30.9328697 51.9915167,30.8659595 51.98,30.7998 C51.9688819,30.7371304 51.9486473,30.6764265 51.91994,30.61962 C51.8978634,30.5560115 51.8674913,30.4955935 51.82961,30.43993 C51.79006,30.38964 51.75002,30.33983 51.70998,30.29003 C51.65969,30.25003 51.60988,30.20995 51.56008,30.16991 C51.5043018,30.1319255 51.4437079,30.1015479 51.3799,30.07958 C51.3231646,30.0508063 51.2624258,30.0307252 51.19972,30.02001 C51.0048629,29.9791975 50.8021353,30.0000162 50.61964,30.07958 C50.4985815,30.1304411 50.3870988,30.2016042 50.29,30.29 C50.25,30.3398 50.20992,30.38961 50.16988,30.4399 C50.1319987,30.4955635 50.1016266,30.5559815 50.07955,30.61959 C50.0507761,30.6763254 50.0306951,30.7370641 50.01998,30.79977 C50.0082277,30.8659067 50.0015482,30.9328451 50,31 C50.0014401,31.1306122 50.0284803,31.2596743 50.07959,31.37988 C50.1304405,31.5010862 50.2015982,31.612728 50.29,31.71 Z" id="Shape"></path>
            <path d="M50.29,35.71 C50.3872214,35.7981031 50.4986601,35.8691068 50.61959,35.92 C50.7399396,35.9712934 50.8691845,35.9984735 51,36 C51.264701,35.9959931 51.5181869,35.8924566 51.71,35.71 C51.7981135,35.6126033 51.8691153,35.501002 51.92,35.37992 C51.9760401,35.2612888 52.0034421,35.1311564 52,35 C51.9960852,34.7352802 51.8925356,34.481762 51.71,34.29 C51.4225261,34.0058708 50.9922366,33.9228185 50.61967,34.07955 C50.4985988,34.1304172 50.3871056,34.2015906 50.29,34.29 C50.1056929,34.480611 50.001844,34.7348619 50,35 C50.0014401,35.1306122 50.0284803,35.2596743 50.07959,35.37988 C50.1280999,35.5022969 50.1995124,35.6143386 50.29,35.71 Z" id="Shape"></path>
            <path d="M50.07959,39.37988 C50.1015579,39.4436879 50.1319355,39.5042818 50.16992,39.56006 C50.20992,39.60986 50.25,39.65967 50.29004,39.70996 C50.385572,39.8002534 50.4974287,39.8715235 50.61963,39.91996 C50.7399644,39.971262 50.8691953,39.9984556 51,40 C51.0669664,39.9981765 51.1337119,39.9914923 51.19971,39.98 C51.2623796,39.9688819 51.3230835,39.9486473 51.37989,39.91994 C51.4436979,39.8979721 51.5042918,39.8675945 51.56007,39.82961 C51.6689621,39.7610823 51.7610723,39.6689721 51.8296,39.56008 C51.8675845,39.5043018 51.8979621,39.4437079 51.91993,39.3799 C51.9486373,39.3230935 51.9688719,39.2623896 51.97999,39.19972 C52.0066826,39.0677563 52.0066826,38.9317837 51.97999,38.79982 C51.9688719,38.7371504 51.9486373,38.6764465 51.91993,38.61964 C51.8978534,38.5560315 51.8674813,38.4956135 51.8296,38.43995 C51.7930299,38.387424 51.7530788,38.3373347 51.71,38.29 C51.4225261,38.0058708 50.9922366,37.9228185 50.61967,38.07955 C50.4973249,38.1279565 50.3854097,38.1993992 50.29,38.29 C50.25,38.3398 50.20992,38.38961 50.16988,38.4399 C50.1319987,38.4955635 50.1016266,38.5559815 50.07955,38.61959 C50.0507761,38.6763254 50.0306951,38.7370641 50.01998,38.79977 C49.9932874,38.9317337 49.9932874,39.0677063 50.01998,39.19967 C50.0307049,39.2623883 50.0507996,39.3231374 50.07959,39.37988 Z" id="Shape"></path>
            <path d="M50.43994,43.82959 C50.4956035,43.8674713 50.5560215,43.8978434 50.61963,43.91992 C50.6764365,43.9486273 50.7371404,43.9688619 50.79981,43.97998 C50.9317737,44.0066726 51.0677463,44.0066726 51.19971,43.97998 C51.2623796,43.9688619 51.3230835,43.9486273 51.37989,43.91992 C51.4436979,43.8979521 51.5042918,43.8675745 51.56007,43.82959 C51.60987,43.79004 51.65968,43.75 51.70997,43.70996 C51.8924283,43.5181616 51.9959749,43.2646912 52,43 C51.9976985,42.9329024 51.9910177,42.8660268 51.98,42.7998 C51.9688819,42.7371304 51.9486473,42.6764265 51.91994,42.61962 C51.8978634,42.5560115 51.8674913,42.4955935 51.82961,42.43993 C51.793036,42.3874105 51.7530815,42.3373279 51.71,42.29 C51.3178778,41.8978779 50.6821222,41.8978779 50.29,42.29 C49.8978779,42.6821222 49.8978779,43.3178778 50.29,43.71 C50.33984,43.75 50.38965,43.79 50.43994,43.82959 Z" id="Shape"></path>
            <path d="M47.29,9.71 C47.5436586,9.96365857 47.913374,10.0627235 48.259878,9.96987804 C48.6063821,9.87703256 48.8770326,9.60638209 48.969878,9.25987804 C49.0627235,8.91337399 48.9636586,8.54365857 48.71,8.29 C48.6159954,8.19742039 48.5035207,8.12570957 48.37992,8.07955 C48.0074949,7.92273352 47.5772711,8.00580439 47.29,8.29 C47.1056929,8.48061097 47.001844,8.73486185 47,9 C47.0014401,9.13061221 47.0284803,9.25967426 47.07959,9.37988 C47.1257328,9.50349148 47.1974301,9.61597999 47.29,9.71 Z" id="Shape"></path>
            <path d="M48,14 C48.4715743,13.9953779 48.8744841,13.6588898 48.963079,13.1956895 C49.051674,12.7324891 48.8013786,12.2710644 48.3647956,12.0927418 C47.9282126,11.9144192 47.4264466,12.0686638 47.1654197,12.4614343 C46.9043928,12.8542047 46.9565117,13.3765495 47.29,13.71 C47.4818131,13.8924566 47.735299,13.9959931 48,14 Z" id="Shape"></path>
            <path d="M48,18 C48.066935,17.9976971 48.1336476,17.9910162 48.19971,17.98 C48.2623796,17.9688819 48.3230835,17.9486473 48.37989,17.91994 C48.4413731,17.8999903 48.4988834,17.8694176 48.54981,17.82961 C48.60987,17.79006 48.65967,17.75002 48.70997,17.70998 C49.0559952,17.3706373 49.1134925,16.8338643 48.8471916,16.4289313 C48.5808906,16.0239983 48.0652588,15.8641391 47.6165978,16.0474154 C47.1679367,16.2306917 46.9117083,16.7058529 47.0050894,17.1814229 C47.0984706,17.656993 47.5153487,17.9999854 48,18 Z" id="Shape"></path>
            <path d="M47.07959,21.37988 C47.1015579,21.4436879 47.1319355,21.5042818 47.16992,21.56006 C47.20992,21.60986 47.25,21.65967 47.29004,21.70996 C47.4817858,21.8925009 47.7352886,21.9960644 48,22 C48.0669664,21.9981765 48.1337119,21.9914923 48.19971,21.98 C48.2623796,21.9688819 48.3230835,21.9486473 48.37989,21.91994 C48.4436979,21.8979721 48.5042918,21.8675945 48.56007,21.82961 C48.60987,21.79006 48.65968,21.75002 48.70997,21.70998 C48.74997,21.65969 48.79005,21.60988 48.8296,21.56008 C48.8675845,21.5043018 48.8979621,21.4437079 48.91993,21.3799 C48.9486373,21.3230935 48.9688719,21.2623896 48.97999,21.19972 C48.9914861,21.1337189 48.9981737,21.06697 49,21 C48.9960852,20.7352802 48.8925356,20.481762 48.71,20.29 C48.65971,20.25 48.6099,20.20992 48.5601,20.16988 C48.5043218,20.1318955 48.4437279,20.1015179 48.37992,20.07955 C48.3231846,20.0507763 48.2624458,20.0306952 48.19974,20.01998 C47.8704665,19.9527068 47.5293233,20.0539618 47.29007,20.28998 C47.1073111,20.4816113 47.0037033,20.7352177 47,21 C47.0015809,21.0669816 47.0082669,21.1337451 47.02,21.19971 C47.0307225,21.2624135 47.0508103,21.3231488 47.07959,21.37988 L47.07959,21.37988 Z" id="Shape"></path>
            <path d="M47.44971,25.82959 C47.5007616,25.8692048 47.5582368,25.8997588 47.61963,25.91992 C47.6794184,25.9501619 47.7437397,25.9704483 47.81006,25.97998 C47.8727686,25.9914981 47.936268,25.998191 48,26 C48.1306435,25.9983912 48.2597042,25.9711848 48.37988,25.91992 C48.500962,25.8690353 48.6125633,25.7980335 48.70996,25.70992 C48.8924126,25.5181332 48.9959622,25.2646787 49,25 C49.003464,24.8686882 48.9760339,24.7383988 48.91992,24.61963 C48.8284917,24.3687209 48.6308291,24.1710583 48.37992,24.07963 C48.200905,24.0005907 48.0015915,23.9797541 47.8101,24.02006 C47.7437544,24.0291981 47.6793959,24.0493306 47.61967,24.07963 C47.5582768,24.0997912 47.5008016,24.1303452 47.44975,24.16996 C47.3923409,24.2041162 47.3387814,24.244362 47.29,24.29 C47.1994078,24.385386 47.1279655,24.4972733 47.07955,24.61959 C47.0283986,24.739967 47.0013711,24.8692131 47,25 C47.001844,25.2651381 47.1056929,25.519389 47.29,25.71 C47.33984,25.75 47.38965,25.79 47.44971,25.82959 Z" id="Shape"></path>
            <path d="M47.29,29.71 C47.3872214,29.7981031 47.4986601,29.8691068 47.61959,29.92 C47.7399396,29.9712934 47.8691845,29.9984735 48,30 C48.0669664,29.9981765 48.1337119,29.9914923 48.19971,29.98 C48.2623796,29.9688819 48.3230835,29.9486473 48.37989,29.91994 C48.4436979,29.8979721 48.5042918,29.8675945 48.56007,29.82961 C48.60987,29.79006 48.65968,29.75002 48.70997,29.70998 C48.7980835,29.6125833 48.8690853,29.500982 48.91997,29.3799 C48.9712201,29.2597145 48.9984096,29.1306469 49,29 C48.9960852,28.7352802 48.8925356,28.481762 48.71,28.29 C48.65971,28.25 48.6099,28.20992 48.5601,28.16988 C48.5043218,28.1318955 48.4437279,28.1015179 48.37992,28.07955 C48.3231846,28.0507763 48.2624458,28.0306952 48.19974,28.01998 C48.0048829,27.9791675 47.8021553,27.9999862 47.61966,28.07955 C47.4985923,28.1304182 47.3871026,28.2015916 47.29,28.29 C47.1056929,28.480611 47.001844,28.7348619 47,29 C47.0014401,29.1306122 47.0284803,29.2596743 47.07959,29.37988 C47.1280999,29.5022969 47.1995124,29.6143386 47.29,29.71 L47.29,29.71 Z" id="Shape"></path>
            <path d="M47.29,33.71 C47.3872214,33.7981031 47.4986601,33.8691068 47.61959,33.92 C47.8617606,34.0267698 48.1376694,34.0267698 48.37984,33.92 C48.500922,33.8691153 48.6125233,33.7981135 48.70992,33.71 C48.8924058,33.5181992 48.9959714,33.2647119 49,33 C49.003464,32.8686882 48.9760339,32.7383988 48.91992,32.61963 C48.8690268,32.4987001 48.7980231,32.3872614 48.70992,32.29004 C48.6142739,32.1995424 48.5022459,32.1281164 48.37984,32.07959 C48.1362114,31.9799816 47.8632186,31.9799816 47.61959,32.07959 C47.4985499,32.1304531 47.3870845,32.2016125 47.29,32.29 C47.1994078,32.385386 47.1279655,32.4972733 47.07955,32.61959 C46.9734311,32.8618973 46.9734311,33.1375327 47.07955,33.37984 C47.1304087,33.5010632 47.2015801,33.612719 47.29,33.71 L47.29,33.71 Z" id="Shape"></path>
            <path d="M47.07959,37.37988 C47.1015579,37.4436879 47.1319355,37.5042818 47.16992,37.56006 C47.2069044,37.6124022 47.2470035,37.6624726 47.29,37.71 C47.3373177,37.7530873 47.3873902,37.7930485 47.4399,37.82963 C47.4955635,37.8675113 47.5559815,37.8978834 47.61959,37.91996 C47.6763965,37.9486673 47.7371004,37.9689019 47.79977,37.98002 C47.8660071,37.9910323 47.9328928,37.9977065 48,38 C48.1311494,38.0034109 48.2612676,37.9759815 48.37988,37.91992 C48.5021707,37.8713726 48.6141682,37.8001186 48.70996,37.70992 C48.74996,37.65963 48.79004,37.60982 48.82959,37.56002 C48.8675745,37.5042418 48.8979521,37.4436479 48.91992,37.37984 C48.9486273,37.3230335 48.9688619,37.2623296 48.97998,37.19966 C48.9914766,37.1336789 48.9981675,37.0669501 49,37 C48.998443,36.8691926 48.9712358,36.7399616 48.91992,36.61963 C48.8690268,36.4987001 48.7980231,36.3872614 48.70992,36.29004 C48.6142739,36.1995424 48.5022459,36.1281164 48.37984,36.07959 C48.197365,36.0000039 47.9946451,35.9791776 47.7998,36.02 C47.7370941,36.0307151 47.6763554,36.0507961 47.61962,36.07957 C47.5560115,36.1016466 47.4955935,36.1320187 47.43993,36.1699 C47.38964,36.2099 47.33983,36.24998 47.29003,36.29002 C47.2016283,36.3871015 47.1304552,36.4985671 47.07958,36.61961 C47.023847,36.7384974 46.9965991,36.8687414 47,37 C47.0015809,37.0669816 47.0082669,37.1337451 47.02,37.19971 C47.0307225,37.2624135 47.0508103,37.3231488 47.07959,37.37988 Z" id="Shape"></path>
            <path d="M47.29,41.71 C47.3872214,41.7981031 47.4986601,41.8691068 47.61959,41.92 C47.8617606,42.0267698 48.1376694,42.0267698 48.37984,41.92 C48.5021307,41.8714526 48.6141282,41.8001986 48.70992,41.71 C48.7980335,41.6126033 48.8690353,41.501002 48.91992,41.37992 C48.9711899,41.2597318 48.9983964,41.130657 49,41 C48.9960852,40.7352802 48.8925356,40.481762 48.71,40.29 C48.6127431,40.2015878 48.5011149,40.1304167 48.37992,40.07955 C48.0073902,39.9237435 47.5777443,40.0067028 47.29,40.29 C47.1072713,40.4816371 47.0036894,40.7352342 47,41 C47.0014401,41.1306122 47.0284803,41.2596743 47.07959,41.37988 C47.1304405,41.5010862 47.2015982,41.612728 47.29,41.71 Z" id="Shape"></path>
            <path d="M48,46 C48.264701,45.9959931 48.5181869,45.8924566 48.71,45.71 C48.75,45.65971 48.79008,45.6099 48.82963,45.5601 C48.8676145,45.5043218 48.8979921,45.4437279 48.91996,45.37992 C48.9486673,45.3231135 48.9689019,45.2624096 48.98002,45.19974 C48.9910308,45.1336672 48.9977051,45.0669446 49,45 C49.0025649,44.6987703 48.8682949,44.4126511 48.6349588,44.222125 C48.4016226,44.0315989 48.0944332,43.957253 47.7998,44.02 C47.7370941,44.0307151 47.6763554,44.0507961 47.61962,44.07957 C47.5560115,44.1016466 47.4955935,44.1320187 47.43993,44.1699 C47.38964,44.2099 47.33983,44.24998 47.29003,44.29002 C47.0015885,44.5761086 46.9148941,45.0082682 47.0706754,45.3834712 C47.2264567,45.7586743 47.5937492,46.002342 48,46 Z" id="Shape"></path>
            <path d="M50.44971,47.82959 C50.5007616,47.8692048 50.5582368,47.8997588 50.61963,47.91992 C50.6764365,47.9486273 50.7371404,47.9688619 50.79981,47.97998 C50.8660331,47.9910039 50.9329054,47.9976915 51,48 C51.2660007,48.0025856 51.5218597,47.8980593 51.7099595,47.7099595 C51.8980593,47.5218597 52.0025856,47.2660007 52,47 C51.998443,46.8691926 51.9712358,46.7399616 51.91992,46.61963 C51.8714835,46.4974287 51.8002134,46.385572 51.70992,46.29004 C51.4697072,46.0553094 51.1291159,45.9542726 50.79976,46.02004 C50.7370541,46.0307551 50.6763154,46.0508361 50.61958,46.07961 C50.5581868,46.0997712 50.5007116,46.1303252 50.44966,46.16994 C50.3922813,46.2041078 50.3387522,46.2443603 50.29,46.29 C50.1994078,46.385386 50.1279655,46.4972733 50.07955,46.61959 C50.0283986,46.739967 50.0013711,46.8692131 50,47 C50.003782,47.2647469 50.1073507,47.5183115 50.29,47.71 C50.3387792,47.7554931 50.3923259,47.7955886 50.44971,47.82959 Z" id="Shape"></path>
        </g>
    </g>
</svg>