<?xml version="1.0" encoding="UTF-8"?>
<svg width="58px" height="58px" viewBox="0 0 58 58" version="1.1" xmlns="http://www.w3.org/2000/svg" xmlns:xlink="http://www.w3.org/1999/xlink">
    <!-- Generator: Sketch 47.1 (45422) - http://www.bohemiancoding.com/sketch -->
    <title>Education - Flat022 - Text Book</title>
    <desc>Created with Sketch.</desc>
    <defs></defs>
    <g id="Page-1" stroke="none" stroke-width="1" fill="none" fill-rule="evenodd">
        <g id="Education---Flat022---Text-Book" fill-rule="nonzero">
            <path d="M54,6 L56,6 C57.1032291,6.00322927 57.9967707,6.89677088 58,8 L58,56 C57.9967707,57.1032291 57.1032291,57.9967707 56,58 L2,58 C0.896770878,57.9967707 0.00322927335,57.1032291 0,56 L0,8 C0.00322927335,6.89677088 0.896770878,6.00322927 2,6 L54,6 Z" id="Shape" fill="#4482C3"></path>
            <path d="M29,53.01 L29,54 L4,54 L4,53.01 C4.12,52.92 4.23,52.82995 4.35,52.75 C6.91,50.95 11.39,49.75 16.5,49.75 C21.61,49.75 26.09,50.95 28.65,52.75 C28.77,52.83 28.88,52.92 29,53.01 Z" id="Shape" fill="#F3D55B"></path>
            <path d="M53.65,3 C51.09,1.2 46.61,0 41.5,0 C36.39,0 31.91,1.2 29.35,3 C29.23,3.08 29.12,3.17 29,3.26 C28.88,3.17 28.77,3.07995 28.65,3 C27.5227547,2.24604268 26.2937041,1.65677181 25,1.25 C22.4099478,0.440649433 19.7135322,0.0227050133 17,0.01 C16.84,0 16.67,0 16.5,0 C11.39,0 6.91,1.2 4.35,3 C4.23,3.08 4.12,3.17 4,3.26 L4,53.01 C4.12,52.92 4.23,52.82995 4.35,52.75 C6.91,50.95 11.39,49.75 16.5,49.75 C21.61,49.75 26.09,50.95 28.65,52.75 C28.77,52.83 28.88,52.92 29,53.01 C29.12,52.92 29.23,52.82995 29.35,52.75 C31.91,50.95 36.39,49.75 41.5,49.75 C46.61,49.75 51.09,50.95 53.65,52.75 C53.77,52.83 53.88,52.92 54,53.01 L54,3.26 C53.88,3.17 53.77,3.08 53.65,3 Z" id="Shape" fill="#F9EAB0"></path>
            <path d="M54,53.01 L54,54 L29,54 L29,53.01 C29.12,52.92 29.23,52.82995 29.35,52.75 C31.91,50.95 36.39,49.75 41.5,49.75 C46.61,49.75 51.09,50.95 53.65,52.75 C53.77,52.83 53.88,52.92 54,53.01 Z" id="Shape" fill="#F3D55B"></path>
            <path d="M25,1.25 L25,18 L21,13 L17,18 L17,0.01 C19.7135322,0.0227050133 22.4099478,0.440649433 25,1.25 Z" id="Shape" fill="#D75E72"></path>
            <path d="M8,7 C7.59565302,6.99840493 7.23171874,6.75441526 7.07666479,6.38097544 C6.92161083,6.00753562 7.00569729,5.57752565 7.29,5.29 C7.57609046,5.00154005 8.00826679,4.91483814 8.38348151,5.07062905 C8.75869622,5.22641996 9.00236262,5.59373493 9,6 C9.00258562,6.26600072 8.89805928,6.52185969 8.70995949,6.70995949 C8.52185969,6.89805928 8.26600072,7.00258562 8,7 L8,7 Z" id="Shape" fill="#FAC176"></path>
            <path d="M8,11 C7.86919259,10.998443 7.73996161,10.9712358 7.61963,10.91992 C7.49869162,10.8690551 7.3872395,10.7980784 7.29,10.71 C6.90327992,10.3156867 6.90327992,9.68439326 7.29,9.29008 C7.38708149,9.2016783 7.49854708,9.13050523 7.61959,9.07963 C7.99216301,8.9228421 8.42249319,9.0058646 8.71,9.29 C8.99845995,9.57609046 9.08516186,10.0082668 8.92937095,10.3834815 C8.77358004,10.7586962 8.40626507,11.0023626 8,11 Z" id="Shape" fill="#FAC176"></path>
            <path d="M8,15 C7.86868818,15.003464 7.73839876,14.9760339 7.61963,14.91992 C7.49869162,14.8690551 7.3872395,14.7980784 7.29,14.71 C7.25,14.65971 7.20992,14.6099 7.16988,14.5601 C7.13189552,14.5043218 7.10151785,14.4437279 7.07955,14.37992 C7.05078021,14.3231741 7.03070583,14.2624251 7.02,14.19971 C7.00826692,14.1337451 7.00158087,14.0669816 7,14 C7.00368941,13.7352342 7.10727134,13.4816371 7.29,13.29 C7.38708149,13.2015983 7.49854708,13.1304252 7.61959,13.07955 C7.86109901,12.9696846 8.13833099,12.9696846 8.37984,13.07955 C8.50106321,13.1304087 8.612719,13.2015801 8.71,13.29 C9.09672008,13.6843133 9.09672008,14.3156067 8.71,14.70992 C8.6126033,14.7980335 8.50100203,14.8690353 8.37992,14.91992 C8.26129545,14.9759877 8.13116283,15.0034172 8,15 Z" id="Shape" fill="#FAC176"></path>
            <path d="M8,19 C7.73528015,18.9960852 7.48176204,18.8925356 7.29,18.71 C7.10569293,18.519389 7.00184398,18.2651381 7,18 C7.00138901,17.869224 7.02843002,17.7399918 7.07959,17.61963 C7.12798902,17.4973023 7.19941786,17.3854013 7.29,17.29 C7.52925326,17.0539818 7.87039653,16.9527268 8.19967,17.02 C8.26237584,17.0307152 8.32311456,17.0507963 8.37985,17.07957 C8.44365787,17.1015379 8.50425178,17.1319155 8.56003,17.1699 C8.60983,17.2099 8.65964,17.24998 8.70993,17.29002 C9.09665008,17.6843333 9.09665008,18.3156267 8.70993,18.70994 C8.65964,18.74994 8.60983,18.79002 8.56003,18.82957 C8.50425178,18.8675545 8.44365787,18.8979321 8.37985,18.9199 C8.32304347,18.9486073 8.26233958,18.9688419 8.19967,18.97996 C8.13368608,18.9914638 8.06695397,18.9981614 8,19 Z" id="Shape" fill="#FAC176"></path>
            <path d="M8,23 C7.73528015,22.9960852 7.48176204,22.8925356 7.29,22.71 C7.24699106,22.6624866 7.20687864,22.6124296 7.16988,22.5601 C7.13189552,22.5043218 7.10151785,22.4437279 7.07955,22.37992 C7.05078021,22.3231741 7.03070583,22.2624251 7.02,22.19971 C7.00826692,22.1337451 7.00158087,22.0669816 7,22 C7.00368941,21.7352342 7.10727134,21.4816371 7.29,21.29 C7.53180578,21.0583392 7.87063454,20.9577711 8.19967,21.02 C8.26237584,21.0307152 8.32311456,21.0507963 8.37985,21.07957 C8.44365787,21.1015379 8.50425178,21.1319155 8.56003,21.1699 C8.60983,21.2099 8.65964,21.24998 8.70993,21.29002 C8.8924865,21.4817662 8.9960613,21.7352776 9,22 C8.99817652,22.0669664 8.99149228,22.1337119 8.98,22.19971 C8.96888189,22.2623796 8.94864726,22.3230835 8.91994,22.37989 C8.89797215,22.4436979 8.86759448,22.5042918 8.82961,22.56007 C8.79006,22.60987 8.75002,22.65968 8.70998,22.70997 C8.65969,22.74997 8.60988,22.79005 8.56008,22.8296 C8.50430178,22.8675845 8.44370787,22.8979621 8.3799,22.91993 C8.32309347,22.9486373 8.26238958,22.9688719 8.19972,22.97999 C8.13371886,22.9914861 8.06696996,22.9981737 8,23 Z" id="Shape" fill="#FAC176"></path>
            <path d="M8,27 C7.73528015,26.9960852 7.48176204,26.8925356 7.29,26.71 C7.20158776,26.6127431 7.13041668,26.5011149 7.07955,26.37992 C7.02844891,26.2596991 7.00142217,26.130623 7,26 C7.00155636,25.9328546 7.0082425,25.8659263 7.02,25.7998 C7.03071506,25.7370941 7.05079613,25.6763554 7.07957,25.61962 C7.10164663,25.5560115 7.13201868,25.4955935 7.1699,25.43993 C7.2099,25.38964 7.24998,25.33983 7.29002,25.29003 C7.57727621,25.0058682 8.00745709,24.9227996 8.37986,25.07958 C8.501074,25.1304316 8.61272275,25.2015927 8.71,25.29 C8.75308734,25.3373177 8.79304851,25.3873902 8.82963,25.4399 C8.86751132,25.4955635 8.89788337,25.5559815 8.91996,25.61959 C8.9486631,25.676407 8.96889105,25.7371212 8.98,25.7998 C8.99151667,25.8659595 8.99820101,25.9328697 9,26 C8.99839119,26.1306435 8.97118475,26.2597042 8.91992,26.37988 C8.82888932,26.6310423 8.63108228,26.8288493 8.37992,26.91988 C8.2612988,26.9759614 8.13116602,27.0034047 8,27 L8,27 Z" id="Shape" fill="#FAC176"></path>
            <path d="M8,31 C7.93286971,30.998201 7.86595949,30.9915167 7.7998,30.98 C7.73713042,30.9688819 7.67642653,30.9486473 7.61962,30.91994 C7.55601148,30.8978634 7.49559352,30.8674913 7.43993,30.82961 C7.38965,30.79 7.33984,30.75 7.29,30.71 C7.20158776,30.6127431 7.13041668,30.5011149 7.07955,30.37992 C7.02844891,30.2596991 7.00142217,30.130623 7,30 C7.00155636,29.9328546 7.0082425,29.8659263 7.02,29.7998 C7.03071506,29.7370941 7.05079613,29.6763554 7.07957,29.61962 C7.10164663,29.5560115 7.13201868,29.4955935 7.1699,29.43993 C7.2099,29.38964 7.24998,29.33983 7.29002,29.29003 C7.33982,29.25003 7.38963,29.20995 7.43992,29.16991 C7.49558352,29.1320287 7.55600148,29.1016566 7.61961,29.07958 C7.67634801,29.0508019 7.73709019,29.0307174 7.7998,29.02 C7.99465583,28.9791628 8.19739095,28.9999822 8.37988,29.07957 C8.50108764,29.1304266 8.61272954,29.201591 8.71,29.29 C8.89253559,29.481762 8.99608525,29.7352802 9,30 C8.99839119,30.1306435 8.97118475,30.2597042 8.91992,30.37988 C8.82888932,30.6310423 8.63108228,30.8288493 8.37992,30.91988 C8.25973454,30.9711636 8.13065964,30.9983838 8,31 Z" id="Shape" fill="#FAC176"></path>
            <path d="M8,35 C7.93286971,34.998201 7.86595949,34.9915167 7.7998,34.98 C7.73713042,34.9688819 7.67642653,34.9486473 7.61962,34.91994 C7.55601148,34.8978634 7.49559352,34.8674913 7.43993,34.82961 C7.38965,34.79 7.33984,34.75 7.29,34.71 C7.20158776,34.6127431 7.13041668,34.5011149 7.07955,34.37992 C7.02844891,34.2596991 7.00142217,34.130623 7,34 C7.00368941,33.7352342 7.10727134,33.4816371 7.29,33.29 C7.57725621,33.0058382 8.00743709,32.9227696 8.37984,33.07955 C8.50106321,33.1304087 8.612719,33.2015801 8.71,33.29 C8.75,33.3398 8.79008,33.38961 8.82963,33.4399 C8.86751132,33.4955635 8.89788337,33.5559815 8.91996,33.61959 C8.9486631,33.676407 8.96889105,33.7371212 8.98,33.7998 C8.99151667,33.8659595 8.99820101,33.9328697 9,34 C8.99839119,34.1306435 8.97118475,34.2597042 8.91992,34.37988 C8.82888932,34.6310423 8.63108228,34.8288493 8.37992,34.91988 C8.25973454,34.9711636 8.13065964,34.9983838 8,35 Z" id="Shape" fill="#FAC176"></path>
            <path d="M8,39 C7.86919259,38.998443 7.73996161,38.9712358 7.61963,38.91992 C7.49742083,38.8715119 7.38555064,38.800269 7.29,38.71 C7.24699106,38.6624866 7.20687864,38.6124296 7.16988,38.5601 C7.13189552,38.5043218 7.10151785,38.4437279 7.07955,38.37992 C7.05078021,38.3231741 7.03070583,38.2624251 7.02,38.19971 C6.99330743,38.0677463 6.99330743,37.9317737 7.02,37.79981 C7.03071506,37.7371041 7.05079613,37.6763654 7.07957,37.61963 C7.10164663,37.5560215 7.13201868,37.4956035 7.1699,37.43994 C7.20664689,37.387414 7.24676456,37.3373287 7.29,37.29 C7.68803403,36.9124975 8.31188597,36.9124975 8.70992,37.29 C8.75300734,37.3373177 8.79296851,37.3873902 8.82955,37.4399 C8.86743132,37.4955635 8.89780337,37.5559815 8.91988,37.61959 C8.94861078,37.6764026 8.96886574,37.737117 8.98,37.7998 C9.00669257,37.9317637 9.00669257,38.0677363 8.98,38.1997 C8.96888189,38.2623696 8.94864726,38.3230735 8.91994,38.37988 C8.89797215,38.4436879 8.86759448,38.5042818 8.82961,38.56006 C8.79279257,38.6124006 8.75284997,38.6624716 8.71,38.71 C8.51818687,38.8924566 8.26470103,38.9959931 8,39 Z" id="Shape" fill="#FAC176"></path>
            <path d="M8,43 C7.86919259,42.998443 7.73996161,42.9712358 7.61963,42.91992 C7.49869162,42.8690551 7.3872395,42.7980784 7.29,42.71 C7.1073507,42.5183115 7.00378205,42.2647469 7,42 C7.00205847,41.9328864 7.00874098,41.8659945 7.02,41.7998 C7.03071506,41.7370941 7.05079613,41.6763554 7.07957,41.61962 C7.10164663,41.5560115 7.13201868,41.4955935 7.1699,41.43993 C7.2099,41.38964 7.24998,41.33983 7.29002,41.29003 C7.68805403,40.9125275 8.31190597,40.9125275 8.70994,41.29003 C8.75302734,41.3373477 8.79298851,41.3874202 8.82957,41.43993 C8.86745132,41.4955935 8.89782337,41.5560115 8.9199,41.61962 C8.9486211,41.6764243 8.96886924,41.7371283 8.98,41.7998 C8.99101766,41.8660268 8.99769855,41.9329024 9,42 C9.00258562,42.2660007 8.89805928,42.5218597 8.70995949,42.7099595 C8.52185969,42.8980593 8.26600072,43.0025856 8,43 Z" id="Shape" fill="#FAC176"></path>
            <path d="M11,9 C10.595653,8.99840493 10.2317187,8.75441526 10.0766648,8.38097544 C9.92161083,8.00753562 10.0056973,7.57752565 10.29,7.29 C10.3870815,7.2015983 10.4985471,7.13042523 10.61959,7.07955 C10.9931787,6.93298283 11.4177871,7.01493258 11.71,7.29 C12.0967201,7.68431326 12.0967201,8.31560674 11.71,8.70992 C11.65971,8.74992 11.6099,8.79 11.54984,8.82955 C11.4989134,8.86935764 11.4414031,8.89993028 11.37992,8.91988 C11.3231135,8.94858726 11.2624096,8.96882189 11.19974,8.97994 C11.1337335,8.99145384 11.0669779,8.99815814 11,9 Z" id="Shape" fill="#FAC176"></path>
            <path d="M11,13 C10.5284257,12.9953779 10.1255159,12.6588898 10.036921,12.1956895 C9.94832601,11.7324891 10.1986214,11.2710644 10.6352044,11.0927418 C11.0717874,10.9144192 11.5735534,11.0686638 11.8345803,11.4614343 C12.0956072,11.8542047 12.0434883,12.3765495 11.71,12.71 C11.518238,12.8925356 11.2647198,12.9960852 11,13 Z" id="Shape" fill="#FAC176"></path>
            <path d="M11,17 C10.8686882,17.003464 10.7383988,16.9760339 10.61963,16.91992 C10.4987001,16.8690268 10.3872614,16.7980231 10.29004,16.70992 C9.90331992,16.3156067 9.90331992,15.6843133 10.29004,15.29 C10.688074,14.9124975 11.311926,14.9124975 11.70996,15.29 C11.9984146,15.5760853 12.085119,16.0082518 11.9293384,16.3834628 C11.7735578,16.7586738 11.4062578,17.0023462 11,17 L11,17 Z" id="Shape" fill="#FAC176"></path>
            <path d="M11,21 C10.7352802,20.9960852 10.481762,20.8925356 10.29,20.71 C10.25,20.65971 10.20992,20.6099 10.16988,20.5601 C10.1318955,20.5043218 10.1015179,20.4437279 10.07955,20.37992 C10.0507763,20.3231846 10.0306952,20.2624458 10.01998,20.19974 C10.0082521,20.1337647 10.0015727,20.0669911 10,20 C10.0036894,19.7352342 10.1072713,19.4816371 10.29,19.29 C10.5292533,19.0539818 10.8703965,18.9527268 11.19967,19.02 C11.2623758,19.0307152 11.3231146,19.0507963 11.37985,19.07957 C11.4413331,19.0995197 11.4988434,19.1300924 11.54977,19.1699 C11.60983,19.2099 11.65963,19.24998 11.70993,19.29002 C11.8924865,19.4817662 11.9960613,19.7352776 12,20 C11.9981765,20.0669664 11.9914923,20.1337119 11.98,20.19971 C11.9688819,20.2623796 11.9486473,20.3230835 11.91994,20.37989 C11.8979721,20.4436979 11.8675945,20.5042918 11.82961,20.56007 C11.79006,20.60987 11.75002,20.65968 11.70998,20.70997 C11.65969,20.74997 11.60988,20.79005 11.54982,20.8296 C11.4988934,20.8694076 11.4413831,20.8999803 11.3799,20.91993 C11.3230935,20.9486373 11.2623896,20.9688719 11.19972,20.97999 C11.1337189,20.9914861 11.06697,20.9981737 11,21 L11,21 Z" id="Shape" fill="#FAC176"></path>
            <path d="M11,25 C10.9328697,24.998201 10.8659595,24.9915167 10.7998,24.98 C10.7371304,24.9688819 10.6764265,24.9486473 10.61962,24.91994 C10.5560115,24.8978634 10.4955935,24.8674913 10.43993,24.82961 C10.38964,24.79006 10.33983,24.75002 10.29003,24.70998 C10.25003,24.65969 10.20995,24.60988 10.16991,24.56008 C10.1319255,24.5043018 10.1015479,24.4437079 10.07958,24.3799 C10.0508063,24.3231646 10.0307252,24.2624258 10.02001,24.19972 C10.0082731,24.1337521 10.0015837,24.0669852 10,24 C10.001389,23.869224 10.02843,23.7399918 10.07959,23.61963 C10.1304491,23.4985758 10.2016087,23.3870966 10.29,23.29 C10.3373152,23.2467591 10.3873872,23.2066347 10.4399,23.16988 C10.4955635,23.1319987 10.5559815,23.1016266 10.61959,23.07955 C10.6763359,23.0507802 10.7370849,23.0307058 10.7998,23.02 C10.9946558,22.9791628 11.1973909,22.9999822 11.37988,23.07957 C11.6307891,23.1709983 11.8284517,23.3686609 11.91988,23.61957 C11.9712172,23.7399175 11.9984382,23.8691697 12,24 C11.9981765,24.0669664 11.9914923,24.1337119 11.98,24.19971 C11.9688819,24.2623796 11.9486473,24.3230835 11.91994,24.37989 C11.8979721,24.4436979 11.8675945,24.5042918 11.82961,24.56007 C11.7927922,24.6124072 11.7528496,24.6624749 11.71,24.71 C11.6126033,24.7981135 11.501002,24.8691153 11.37992,24.92 C11.2597262,24.9712424 11.1306516,24.9984217 11,25 L11,25 Z" id="Shape" fill="#FAC176"></path>
            <path d="M11,29 C10.8691926,28.998443 10.7399616,28.9712358 10.61963,28.91992 C10.4987001,28.8690268 10.3872614,28.7980231 10.29004,28.70992 C10.1995424,28.6142739 10.1281164,28.5022459 10.07959,28.37984 C10.0284854,28.2596467 10.0014453,28.1305987 10,28 C10.001844,27.7348619 10.1056929,27.480611 10.29,27.29 C10.3870815,27.2015983 10.4985471,27.1304252 10.61959,27.07955 C10.8020853,26.9999862 11.0048129,26.9791675 11.19967,27.01998 C11.2623758,27.0306952 11.3231146,27.0507763 11.37985,27.07955 C11.4436579,27.1015179 11.5042518,27.1318955 11.56003,27.16988 C11.60983,27.20988 11.65964,27.24996 11.70993,27.29 C11.8924912,27.4817513 11.9960663,27.7352706 12,28 C11.9983912,28.1306435 11.9711848,28.2597042 11.91992,28.37988 C11.8690353,28.500962 11.7980335,28.6125633 11.70992,28.70996 C11.65963,28.74996 11.60982,28.79004 11.56002,28.82959 C11.5042418,28.8675745 11.4436479,28.8979521 11.37984,28.91992 C11.3230335,28.9486273 11.2623296,28.9688619 11.19966,28.97998 C11.1336789,28.9914766 11.0669501,28.9981675 11,29 L11,29 Z" id="Shape" fill="#FAC176"></path>
            <path d="M11,33 C10.8686882,33.003464 10.7383988,32.9760339 10.61963,32.91992 C10.3687209,32.8284917 10.1710583,32.6308291 10.07963,32.37992 C9.97351109,32.1376127 9.97351109,31.8619773 10.07963,31.61967 C10.1714557,31.3690144 10.3689744,31.1714957 10.61963,31.07967 C10.8632586,30.9800616 11.1362514,30.9800616 11.37988,31.07967 C11.5010805,31.1304963 11.612722,31.2016266 11.71,31.29 C11.8002934,31.385532 11.8715635,31.4973887 11.92,31.61959 C12.0267698,31.8617606 12.0267698,32.1376694 11.92,32.37984 C11.8691153,32.500922 11.7981135,32.6125233 11.71,32.70992 C11.5181992,32.8924058 11.2647119,32.9959714 11,33 L11,33 Z" id="Shape" fill="#FAC176"></path>
            <path d="M11,37 C10.7339993,37.0025856 10.4781403,36.8980593 10.2900405,36.7099595 C10.1019407,36.5218597 9.99741438,36.2660007 10,36 C10.001389,35.869224 10.02843,35.7399918 10.07959,35.61963 C10.1304491,35.4985758 10.2016087,35.3870966 10.29,35.29 C10.69095,34.9198817 11.30897,34.9198817 11.70992,35.29 C11.7980231,35.3872214 11.8690268,35.4986601 11.91992,35.61959 C11.9760401,35.7383709 12.0034703,35.8686747 12,36 C11.9981765,36.0669664 11.9914923,36.1337119 11.98,36.19971 C11.9688819,36.2623796 11.9486473,36.3230835 11.91994,36.37989 C11.8979721,36.4436979 11.8675945,36.5042918 11.82961,36.56007 C11.7927922,36.6124072 11.7528496,36.6624749 11.71,36.71 C11.5181869,36.8924566 11.264701,36.9959931 11,37 Z" id="Shape" fill="#FAC176"></path>
            <path d="M11,41 C10.7352802,40.9960852 10.481762,40.8925356 10.29,40.71 C10.2015878,40.6127431 10.1304167,40.5011149 10.07955,40.37992 C10.0284489,40.2596991 10.0014222,40.130623 10,40 C10.0036894,39.7352342 10.1072713,39.4816371 10.29,39.29 C10.3373152,39.2467591 10.3873872,39.2066347 10.4399,39.16988 C10.4955635,39.1319987 10.5559815,39.1016266 10.61959,39.07955 C10.6763359,39.0507802 10.7370849,39.0307058 10.7998,39.02 C10.9313812,38.9897268 11.0681188,38.9897268 11.1997,39.02 C11.2624058,39.0307152 11.3231446,39.0507963 11.37988,39.07957 C11.4436879,39.1015379 11.5042818,39.1319155 11.56006,39.1699 C11.6124028,39.2068909 11.6624732,39.2469966 11.71,39.29 C11.8925356,39.481762 11.9960852,39.7352802 12,40 C12.0034109,40.1311494 11.9759815,40.2612676 11.91992,40.37988 C11.8690353,40.500962 11.7980335,40.6125633 11.70992,40.70996 C11.5181332,40.8924126 11.2646787,40.9959622 11,41 Z" id="Shape" fill="#FAC176"></path>
            <path d="M11,45 C10.7352802,44.9960852 10.481762,44.8925356 10.29,44.71 C10.25,44.65971 10.20992,44.6099 10.16988,44.5601 C10.1318955,44.5043218 10.1015179,44.4437279 10.07955,44.37992 C10.0507763,44.3231846 10.0306952,44.2624458 10.01998,44.19974 C10.0087278,44.1336996 10.0020519,44.0669607 10,44 C9.99742219,43.6988606 10.1316148,43.4128152 10.3648429,43.2222996 C10.598071,43.0317839 10.9051428,42.9573763 11.19971,43.02 C11.2624158,43.0307152 11.3231546,43.0507963 11.37989,43.07957 C11.4436979,43.1015379 11.5042918,43.1319155 11.56007,43.1699 C11.60987,43.2099 11.65968,43.24998 11.70997,43.29002 C11.9984115,43.5761086 12.0851059,44.0082682 11.9293246,44.3834712 C11.7735433,44.7586743 11.4062508,45.002342 11,45 Z" id="Shape" fill="#FAC176"></path>
            <path d="M8,47 C7.86868818,47.003464 7.73839876,46.9760339 7.61963,46.91992 C7.49742083,46.8715119 7.38555064,46.800269 7.29,46.71 C7.1073507,46.5183115 7.00378205,46.2647469 7,46 C7.00138901,45.869224 7.02843002,45.7399918 7.07959,45.61963 C7.17141568,45.3689744 7.36893439,45.1714557 7.61959,45.07963 C7.99226266,44.9238033 8.4220431,45.0067198 8.71,45.29 C8.80029339,45.385532 8.87156349,45.4973887 8.92,45.61959 C8.97129341,45.7399396 8.99847352,45.8691845 9,46 C9.00258562,46.2660007 8.89805928,46.5218597 8.70995949,46.7099595 C8.52185969,46.8980593 8.26600072,47.0025856 8,47 L8,47 Z" id="Shape" fill="#FAC176"></path>
            <path d="M50,7 C49.595653,6.99840493 49.2317187,6.75441526 49.0766648,6.38097544 C48.9216108,6.00753562 49.0056973,5.57752565 49.29,5.29 C49.5760905,5.00154005 50.0082668,4.91483814 50.3834815,5.07062905 C50.7586962,5.22641996 51.0023626,5.59373493 51,6 C51.0025856,6.26600072 50.8980593,6.52185969 50.7099595,6.70995949 C50.5218597,6.89805928 50.2660007,7.00258562 50,7 L50,7 Z" id="Shape" fill="#FAC176"></path>
            <path d="M50,11 C49.7352802,10.9960852 49.481762,10.8925356 49.29,10.71 C48.9032799,10.3156867 48.9032799,9.68439326 49.29,9.29008 C49.579692,9.01057127 50.0069089,8.92807494 50.37984,9.07963 C50.5010575,9.1304644 50.6127129,9.20160855 50.71,9.29 C51.0967201,9.68431326 51.0967201,10.3156067 50.71,10.70992 C50.6126033,10.7980335 50.501002,10.8690353 50.37992,10.91992 C50.2597318,10.9711899 50.130657,10.9983964 50,11 L50,11 Z" id="Shape" fill="#FAC176"></path>
            <path d="M50,15 C49.8686882,15.003464 49.7383988,14.9760339 49.61963,14.91992 C49.4987001,14.8690268 49.3872614,14.7980231 49.29004,14.70992 C48.9033199,14.3156067 48.9033199,13.6843133 49.29004,13.29 C49.3871215,13.2015983 49.4985871,13.1304252 49.61963,13.07955 C49.9922077,12.9228005 50.4225186,13.0058539 50.71,13.29 C50.8925356,13.481762 50.9960852,13.7352802 51,14 C50.9981765,14.0669664 50.9914923,14.1337119 50.98,14.19971 C50.9688819,14.2623796 50.9486473,14.3230835 50.91994,14.37989 C50.8979721,14.4436979 50.8675945,14.5042918 50.82961,14.56007 C50.79006,14.60987 50.75002,14.65968 50.70998,14.70997 C50.5181765,14.8924329 50.2646982,14.99598 50,15 Z" id="Shape" fill="#FAC176"></path>
            <path d="M50,19 C49.595653,18.9984049 49.2317187,18.7544153 49.0766648,18.3809754 C48.9216108,18.0075356 49.0056973,17.5775256 49.29,17.29 C49.5772562,17.0058382 50.0074371,16.9227696 50.37984,17.07955 C50.5010632,17.1304087 50.612719,17.2015801 50.71,17.29 C51.0967201,17.6843133 51.0967201,18.3156067 50.71,18.70992 C50.6126033,18.7980335 50.501002,18.8690353 50.37992,18.91992 C50.2597318,18.9711899 50.130657,18.9983964 50,19 L50,19 Z" id="Shape" fill="#FAC176"></path>
            <path d="M50,23 C49.8691926,22.998443 49.7399616,22.9712358 49.61963,22.91992 C49.4987001,22.8690268 49.3872614,22.7980231 49.29004,22.70992 C48.9033199,22.3156067 48.9033199,21.6843133 49.29004,21.29 C49.3871215,21.2015983 49.4985871,21.1304252 49.61963,21.07955 C49.8632586,20.9799416 50.1362514,20.9799416 50.37988,21.07955 C50.5010891,21.1304127 50.6127311,21.2015839 50.71,21.29 C50.8925356,21.481762 50.9960852,21.7352802 51,22 C50.9981765,22.0669664 50.9914923,22.1337119 50.98,22.19971 C50.9688819,22.2623796 50.9486473,22.3230835 50.91994,22.37989 C50.8979721,22.4436979 50.8675945,22.5042918 50.82961,22.56007 C50.7927922,22.6124072 50.7528496,22.6624749 50.71,22.71 C50.6126033,22.7981135 50.501002,22.8691153 50.37992,22.92 C50.2597262,22.9712424 50.1306516,22.9984217 50,23 Z" id="Shape" fill="#FAC176"></path>
            <path d="M50,27 C49.9328697,26.998201 49.8659595,26.9915167 49.7998,26.98 C49.7371304,26.9688819 49.6764265,26.9486473 49.61962,26.91994 C49.5560115,26.8978634 49.4955935,26.8674913 49.43993,26.82961 C49.3874105,26.793036 49.3373279,26.7530815 49.29,26.71 C49.2015878,26.6127431 49.1304167,26.5011149 49.07955,26.37992 C49.0284489,26.2596991 49.0014222,26.130623 49,26 C49.0015564,25.9328546 49.0082425,25.8659263 49.02,25.7998 C49.0307151,25.7370941 49.0507961,25.6763554 49.07957,25.61962 C49.1016466,25.5560115 49.1320187,25.4955935 49.1699,25.43993 C49.2099,25.38964 49.24998,25.33983 49.29002,25.29003 C49.33982,25.25003 49.38963,25.20995 49.43992,25.16991 C49.4955835,25.1320287 49.5560015,25.1016566 49.61961,25.07958 C49.6763479,25.0508017 49.7370902,25.0307172 49.7998,25.02 C49.9946558,24.9791628 50.1973909,24.9999822 50.37988,25.07957 C50.5010876,25.1304266 50.6127295,25.201591 50.71,25.29 C50.7530873,25.3373177 50.7930485,25.3873902 50.82963,25.4399 C50.8675113,25.4955635 50.8978834,25.5559815 50.91996,25.61959 C50.9486673,25.6763965 50.9689019,25.7371004 50.98002,25.79977 C50.9915314,25.8659399 50.9982091,25.9328602 51,26 C50.9983912,26.1306435 50.9711848,26.2597042 50.91992,26.37988 C50.8288893,26.6310423 50.6310823,26.8288493 50.37992,26.91988 C50.2612988,26.9759614 50.131166,27.0034047 50,27 L50,27 Z" id="Shape" fill="#FAC176"></path>
            <path d="M50,31 C49.8691926,30.998443 49.7399616,30.9712358 49.61963,30.91992 C49.3687209,30.8284917 49.1710583,30.6308291 49.07963,30.37992 C49.0285015,30.2597046 49.0014475,30.1306284 49,30 C49.0015564,29.9328546 49.0082425,29.8659263 49.02,29.7998 C49.0307151,29.7370941 49.0507961,29.6763554 49.07957,29.61962 C49.1016466,29.5560115 49.1320187,29.4955935 49.1699,29.43993 C49.2099,29.38964 49.24998,29.33983 49.29002,29.29003 C49.3871015,29.2016283 49.4985671,29.1304552 49.61961,29.07958 C49.8021053,29.0000162 50.0048329,28.9791975 50.19969,29.02001 C50.2623958,29.0307252 50.3231346,29.0508063 50.37987,29.07958 C50.4436779,29.1015479 50.5042718,29.1319255 50.56005,29.16991 C50.60985,29.20991 50.65966,29.24999 50.70995,29.29003 C50.74995,29.33983 50.79003,29.38964 50.82958,29.43993 C50.8674613,29.4955935 50.8978334,29.5560115 50.91991,29.61962 C50.9486173,29.6764265 50.9688519,29.7371304 50.97997,29.7998 C50.9914967,29.8659588 50.9981911,29.932869 51,30 C50.9983912,30.1306435 50.9711848,30.2597042 50.91992,30.37988 C50.8690353,30.500962 50.7980335,30.6125633 50.70992,30.70996 C50.65963,30.74996 50.60982,30.79004 50.56002,30.82959 C50.5042418,30.8675745 50.4436479,30.8979521 50.37984,30.91992 C50.3230335,30.9486273 50.2623296,30.9688619 50.19966,30.97998 C50.1336789,30.9914766 50.0669501,30.9981675 50,31 Z" id="Shape" fill="#FAC176"></path>
            <path d="M50,35 C49.8691926,34.998443 49.7399616,34.9712358 49.61963,34.91992 C49.4987001,34.8690268 49.3872614,34.7980231 49.29004,34.70992 C49.1995424,34.6142739 49.1281164,34.5022459 49.07959,34.37984 C49.0284854,34.2596467 49.0014453,34.1305987 49,34 C49.001844,33.7348619 49.1056929,33.480611 49.29,33.29 C49.3870815,33.2015983 49.4985471,33.1304252 49.61959,33.07955 C49.9921788,32.9227825 50.4225112,33.005837 50.71,33.29 C50.8925356,33.481762 50.9960852,33.7352802 51,34 C51.0034109,34.1311494 50.9759815,34.2612676 50.91992,34.37988 C50.8690353,34.500962 50.7980335,34.6125633 50.70992,34.70996 C50.5181332,34.8924126 50.2646787,34.9959622 50,35 L50,35 Z" id="Shape" fill="#FAC176"></path>
            <path d="M50,39 C49.8691926,38.998443 49.7399616,38.9712358 49.61963,38.91992 C49.4974287,38.8714835 49.385572,38.8002134 49.29004,38.70992 C49.25004,38.65963 49.20996,38.60982 49.16992,38.56002 C49.1319355,38.5042418 49.1015579,38.4436479 49.07959,38.37984 C49.0508163,38.3231046 49.0307352,38.2623658 49.02002,38.19966 C48.9933274,38.0676963 48.9933274,37.9317237 49.02002,37.79976 C49.0307351,37.7370541 49.0508161,37.6763154 49.07959,37.61958 C49.1016666,37.5559715 49.1320387,37.4955535 49.16992,37.43989 C49.20992,37.3896 49.25,37.33979 49.29004,37.28999 C49.385426,37.1993978 49.4973133,37.1279555 49.61963,37.07954 C49.9922097,36.922793 50.4225209,37.0058504 50.71,37.29 C50.7530873,37.3373177 50.7930485,37.3873902 50.82963,37.4399 C50.8675113,37.4955635 50.8978834,37.5559815 50.91996,37.61959 C50.9486673,37.6763965 50.9689019,37.7371004 50.98002,37.79977 C51.0067126,37.9317337 51.0067126,38.0677063 50.98002,38.19967 C50.9689019,38.2623396 50.9486673,38.3230435 50.91996,38.37985 C50.8979921,38.4436579 50.8676145,38.5042518 50.82963,38.56003 C50.7611023,38.6689221 50.6689921,38.7610323 50.5601,38.82956 C50.5043218,38.8675445 50.4437279,38.8979221 50.37992,38.91989 C50.3231135,38.9485973 50.2624096,38.9688319 50.19974,38.97995 C50.1337333,38.9914605 50.0669776,38.9981614 50,39 Z" id="Shape" fill="#FAC176"></path>
            <path d="M50,43 C49.9329024,42.9976985 49.8660268,42.9910177 49.7998,42.98 C49.7371304,42.9688819 49.6764265,42.9486473 49.61962,42.91994 C49.5560115,42.8978634 49.4955935,42.8674913 49.43993,42.82961 C49.38964,42.79006 49.33983,42.75002 49.29003,42.70998 C48.8979134,42.3178661 48.8979111,41.6821216 49.290025,41.290005 C49.6821389,40.8978884 50.3178834,40.8978861 50.71,41.29 C50.7530873,41.3373177 50.7930485,41.3873902 50.82963,41.4399 C50.8675113,41.4955635 50.8978834,41.5559815 50.91996,41.61959 C50.9486673,41.6763965 50.9689019,41.7371004 50.98002,41.79977 C50.9910323,41.8660071 50.9977065,41.9328928 51,42 C50.9959931,42.264701 50.8924566,42.5181869 50.71,42.71 C50.65971,42.75 50.6099,42.79008 50.5601,42.82963 C50.5043218,42.8676145 50.4437279,42.8979921 50.37992,42.91996 C50.3231135,42.9486673 50.2624096,42.9689019 50.19974,42.98002 C50.1336672,42.9910308 50.0669446,42.9977051 50,43 L50,43 Z" id="Shape" fill="#FAC176"></path>
            <path d="M47,9 C46.7352802,8.99608525 46.481762,8.89253559 46.29,8.71 C46.1974204,8.61599544 46.1257096,8.50352071 46.07955,8.37992 C46.0284489,8.25969906 46.0014222,8.13062302 46,8 C46.001844,7.73486185 46.1056929,7.48061097 46.29,7.29 C46.5772562,7.00583825 47.0074371,6.92276957 47.37984,7.07955 C47.5034693,7.12569958 47.6159721,7.19741095 47.71,7.29 C47.9984599,7.57609046 48.0851619,8.00826679 47.929371,8.38348151 C47.77358,8.75869622 47.4062651,9.00236262 47,9 Z" id="Shape" fill="#FAC176"></path>
            <path d="M47,13 C46.5284257,12.9953779 46.1255159,12.6588898 46.036921,12.1956895 C45.948326,11.7324891 46.1986214,11.2710644 46.6352044,11.0927418 C47.0717874,10.9144192 47.5735534,11.0686638 47.8345803,11.4614343 C48.0956072,11.8542047 48.0434883,12.3765495 47.71,12.71 C47.518238,12.8925356 47.2647198,12.9960852 47,13 L47,13 Z" id="Shape" fill="#FAC176"></path>
            <path d="M47,17 C46.5284257,16.9953779 46.1255159,16.6588898 46.036921,16.1956895 C45.948326,15.7324891 46.1986214,15.2710644 46.6352044,15.0927418 C47.0717874,14.9144192 47.5735534,15.0686638 47.8345803,15.4614343 C48.0956072,15.8542047 48.0434883,16.3765495 47.71,16.71 C47.65971,16.75 47.6099,16.79008 47.54984,16.82963 C47.4989134,16.8694376 47.4414031,16.9000103 47.37992,16.91996 C47.3231135,16.9486673 47.2624096,16.9689019 47.19974,16.98002 C47.1336672,16.9910308 47.0669446,16.9977051 47,17 Z" id="Shape" fill="#FAC176"></path>
            <path d="M47,21 C46.7352802,20.9960852 46.481762,20.8925356 46.29,20.71 C46.25,20.65971 46.20992,20.6099 46.16988,20.5601 C46.1318955,20.5043218 46.1015179,20.4437279 46.07955,20.37992 C46.0507763,20.3231846 46.0306952,20.2624458 46.01998,20.19974 C46.0082521,20.1337647 46.0015727,20.0669911 46,20 C46.0036894,19.7352342 46.1072713,19.4816371 46.29,19.29 C46.5292533,19.0539818 46.8703965,18.9527268 47.19967,19.02 C47.2623758,19.0307152 47.3231146,19.0507963 47.37985,19.07957 C47.4436579,19.1015379 47.5042518,19.1319155 47.56003,19.1699 C47.60983,19.2099 47.65964,19.24998 47.70993,19.29002 C47.8924865,19.4817662 47.9960613,19.7352776 48,20 C47.9981765,20.0669664 47.9914923,20.1337119 47.98,20.19971 C47.9688819,20.2623796 47.9486473,20.3230835 47.91994,20.37989 C47.8979721,20.4436979 47.8675945,20.5042918 47.82961,20.56007 C47.79006,20.60987 47.75002,20.65968 47.70998,20.70997 C47.65969,20.74997 47.60988,20.79005 47.56008,20.8296 C47.5043018,20.8675845 47.4437079,20.8979621 47.3799,20.91993 C47.3230935,20.9486373 47.2623896,20.9688719 47.19972,20.97999 C47.1337189,20.9914861 47.06697,20.9981737 47,21 L47,21 Z" id="Shape" fill="#FAC176"></path>
            <path d="M47,25 C46.9362686,24.9981977 46.8727691,24.9915114 46.81006,24.98 C46.7437397,24.9704683 46.6794184,24.9501819 46.61963,24.91994 C46.5582368,24.8997788 46.5007616,24.8692248 46.44971,24.82961 C46.38965,24.79 46.33984,24.75 46.29,24.71 C46.1056929,24.519389 46.001844,24.2651381 46,24 C46.001389,23.869224 46.02843,23.7399918 46.07959,23.61963 C46.127989,23.4973023 46.1994179,23.3854013 46.29,23.29 C46.3387523,23.2443387 46.3922849,23.2040661 46.44967,23.16988 C46.5007216,23.1302652 46.5581968,23.0997112 46.61959,23.07955 C46.6793159,23.0492506 46.7436744,23.0291181 46.81002,23.01998 C47.0015115,22.9796741 47.200825,23.0005107 47.37984,23.07955 C47.6307491,23.1709783 47.8284117,23.3686409 47.91984,23.61955 C47.9759938,23.7383363 48.0034516,23.8686549 48,24 C47.9959931,24.264701 47.8924566,24.5181869 47.71,24.71 C47.6126033,24.7981135 47.501002,24.8691153 47.37992,24.92 C47.2597262,24.9712424 47.1306516,24.9984217 47,25 L47,25 Z" id="Shape" fill="#FAC176"></path>
            <path d="M47,29 C46.8691926,28.998443 46.7399616,28.9712358 46.61963,28.91992 C46.4987001,28.8690268 46.3872614,28.7980231 46.29004,28.70992 C46.1995424,28.6142739 46.1281164,28.5022459 46.07959,28.37984 C46.0284854,28.2596467 46.0014453,28.1305987 46,28 C46.001844,27.7348619 46.1056929,27.480611 46.29,27.29 C46.3870815,27.2015983 46.4985471,27.1304252 46.61959,27.07955 C46.8020853,26.9999862 47.0048129,26.9791675 47.19967,27.01998 C47.2623758,27.0306952 47.3231146,27.0507763 47.37985,27.07955 C47.4436579,27.1015179 47.5042518,27.1318955 47.56003,27.16988 C47.60983,27.20988 47.65964,27.24996 47.70993,27.29 C47.8924912,27.4817513 47.9960663,27.7352706 48,28 C47.9983912,28.1306435 47.9711848,28.2597042 47.91992,28.37988 C47.8690353,28.500962 47.7980335,28.6125633 47.70992,28.70996 C47.65963,28.74996 47.60982,28.79004 47.56002,28.82959 C47.5042418,28.8675745 47.4436479,28.8979521 47.37984,28.91992 C47.3230335,28.9486273 47.2623296,28.9688619 47.19966,28.97998 C47.1336789,28.9914766 47.0669501,28.9981675 47,29 Z" id="Shape" fill="#FAC176"></path>
            <path d="M47,33 C46.8686882,33.003464 46.7383988,32.9760339 46.61963,32.91992 C46.3687209,32.8284917 46.1710583,32.6308291 46.07963,32.37992 C45.9735111,32.1376127 45.9735111,31.8619773 46.07963,31.61967 C46.1280125,31.4973313 46.1994279,31.3854166 46.29,31.29 C46.3870815,31.2015983 46.4985471,31.1304252 46.61959,31.07955 C46.8632186,30.9799416 47.1362114,30.9799416 47.37984,31.07955 C47.5022743,31.1280674 47.6143301,31.1994938 47.71,31.29 C47.7981031,31.3872214 47.8691068,31.4986601 47.92,31.61959 C47.9760925,31.7383776 48.0034953,31.8686811 48,32 C47.9959931,32.264701 47.8924566,32.5181869 47.71,32.71 C47.6126033,32.7981135 47.501002,32.8691153 47.37992,32.92 C47.2612888,32.9760401 47.1311564,33.0034421 47,33 Z" id="Shape" fill="#FAC176"></path>
            <path d="M47,37 C46.9329024,36.9976985 46.8660268,36.9910177 46.7998,36.98 C46.7371304,36.9688819 46.6764265,36.9486473 46.61962,36.91994 C46.5560115,36.8978634 46.4955935,36.8674913 46.43993,36.82961 C46.3874105,36.793036 46.3373279,36.7530815 46.29,36.71 C46.2469911,36.6624866 46.2068786,36.6124296 46.16988,36.5601 C46.1318955,36.5043218 46.1015179,36.4437279 46.07955,36.37992 C46.0507763,36.3231846 46.0306952,36.2624458 46.01998,36.19974 C46.0082521,36.1337647 46.0015727,36.0669911 46,36 C45.9966054,35.8687473 46.0238566,35.7385105 46.07959,35.61963 C46.1304491,35.4985758 46.2016087,35.3870966 46.29,35.29 C46.3398,35.25 46.38961,35.20992 46.4399,35.16988 C46.4955635,35.1319987 46.5559815,35.1016266 46.61959,35.07955 C46.6763359,35.0507802 46.7370849,35.0307058 46.7998,35.02 C46.9946558,34.9791628 47.1973909,34.9999822 47.37988,35.07957 C47.5022985,35.1280859 47.6143403,35.1995053 47.71,35.29 C47.7981031,35.3872214 47.8691068,35.4986601 47.92,35.61959 C47.9712934,35.7399396 47.9984735,35.8691845 48,36 C47.9981765,36.0669664 47.9914923,36.1337119 47.98,36.19971 C47.9688819,36.2623796 47.9486473,36.3230835 47.91994,36.37989 C47.8979721,36.4436979 47.8675945,36.5042918 47.82961,36.56007 C47.79006,36.60987 47.75002,36.65968 47.70998,36.70997 C47.6141882,36.8001686 47.5021907,36.8714226 47.3799,36.91997 C47.2612773,36.9760174 47.1311521,37.0034296 47,37 Z" id="Shape" fill="#FAC176"></path>
            <path d="M47,41 C46.8691926,40.998443 46.7399616,40.9712358 46.61963,40.91992 C46.3687209,40.8284917 46.1710583,40.6308291 46.07963,40.37992 C46.0285015,40.2597046 46.0014475,40.1306284 46,40 C46.0036894,39.7352342 46.1072713,39.4816371 46.29,39.29 C46.5777293,39.0067365 47.0073324,38.9237794 47.37984,39.07955 C47.5010632,39.1304087 47.612719,39.2015801 47.71,39.29 C47.8925356,39.481762 47.9960852,39.7352802 48,40 C47.9983912,40.1306435 47.9711848,40.2597042 47.91992,40.37988 C47.8690353,40.500962 47.7980335,40.6125633 47.70992,40.70996 C47.6141282,40.8001586 47.5021307,40.8714126 47.37984,40.91996 C47.2596738,40.9712059 47.1306273,40.9983986 47,41 Z" id="Shape" fill="#FAC176"></path>
            <path d="M47,45 C46.595653,44.9984049 46.2317187,44.7544153 46.0766648,44.3809754 C45.9216108,44.0075356 46.0056973,43.5775256 46.29,43.29 C46.3398,43.25 46.38961,43.20992 46.4399,43.16988 C46.4955635,43.1319987 46.5559815,43.1016266 46.61959,43.07955 C46.6763359,43.0507802 46.7370849,43.0307058 46.7998,43.02 C47.0944332,42.957253 47.4016226,43.0315989 47.6349588,43.222125 C47.8682949,43.4126511 48.0025649,43.6987703 48,44 C47.9976971,44.066935 47.9910162,44.1336476 47.98,44.19971 C47.9688819,44.2623796 47.9486473,44.3230835 47.91994,44.37989 C47.8979721,44.4436979 47.8675945,44.5042918 47.82961,44.56007 C47.79006,44.60987 47.75002,44.65968 47.70998,44.70997 C47.5181765,44.8924329 47.2646982,44.99598 47,45 L47,45 Z" id="Shape" fill="#FAC176"></path>
            <path d="M50,47 C49.9329024,46.9976985 49.8660268,46.9910177 49.7998,46.98 C49.7371304,46.9688819 49.6764265,46.9486473 49.61962,46.91994 C49.5582268,46.8997788 49.5007516,46.8692248 49.4497,46.82961 C49.3923184,46.7956017 49.338775,46.7554995 49.29,46.71 C49.1073507,46.5183115 49.003782,46.2647469 49,46 C49.001389,45.869224 49.02843,45.7399918 49.07959,45.61963 C49.127989,45.4973023 49.1994179,45.3854013 49.29,45.29 C49.3387523,45.2443387 49.3922849,45.2040661 49.44967,45.16988 C49.5007216,45.1302652 49.5581968,45.0997112 49.61959,45.07955 C49.6763359,45.0507802 49.7370849,45.0307058 49.7998,45.02 C50.1291559,44.9542326 50.4697472,45.0552694 50.70996,45.29 C50.8002534,45.385532 50.8715235,45.4973887 50.91996,45.61959 C50.9712671,45.7399368 50.9984609,45.8691818 51,46 C51.0025856,46.2660007 50.8980593,46.5218597 50.7099595,46.7099595 C50.5218597,46.8980593 50.2660007,47.0025856 50,47 L50,47 Z" id="Shape" fill="#FAC176"></path>
        </g>
    </g>
</svg>