<?xml version="1.0" encoding="UTF-8"?>
<svg width="40px" height="58px" viewBox="0 0 40 58" version="1.1" xmlns="http://www.w3.org/2000/svg" xmlns:xlink="http://www.w3.org/1999/xlink">
    <!-- Generator: Sketch 47.1 (45422) - http://www.bohemiancoding.com/sketch -->
    <title>Education - Flat037 - Podium</title>
    <desc>Created with Sketch.</desc>
    <defs></defs>
    <g id="Page-1" stroke="none" stroke-width="1" fill="none" fill-rule="evenodd">
        <g id="Education---Flat037---Podium" transform="translate(0.000000, -2.000000)" fill-rule="nonzero">
            <path d="M12,22 C11.4114395,21.9605119 10.9649356,21.4536406 11,20.8648 L11,12.1352 C10.9507251,11.7476384 11.1298257,11.3665036 11.4596332,11.1570782 C11.7894408,10.9476528 12.2105592,10.9476528 12.5403668,11.1570782 C12.8701743,11.3665036 13.0492749,11.7476384 13,12.1352 L13,20.8648 C13.0350644,21.4536406 12.5885605,21.9605119 12,22 L12,22 Z" id="Shape" fill="#95A5A5"></path>
            <path d="M15.45291,9.8608 L9.41421,15.8995 C8.63316223,16.6805438 7.36683777,16.6805438 6.58579,15.8995 L6.58579,15.8995 C5.80474617,15.1184522 5.80474617,13.8521278 6.58579,13.07108 L12.62448,7.03239 L15.45291,9.8608 Z" id="Shape" fill="#BDC3C7"></path>
            <circle id="Oval" fill="#7F8C8D" transform="translate(16.485285, 6.000003) rotate(-45.000000) translate(-16.485285, -6.000003) " cx="16.485285" cy="6.00000282" r="4"></circle>
            <path d="M40,56 L40,60 L0,60 L0,56 L6,51 L6,29 L2,25 L2,22 C2.0016474,21.4483991 2.44839907,21.0016474 3,21 L37,21 C37.5516009,21.0016474 37.9983526,21.4483991 38,22 L38,25 L34,29 L34,51 L40,56 Z" id="Shape" fill="#7F5B53"></path>
            <rect id="Rectangle-path" fill="#CB8252" x="6" y="29" width="28" height="22"></rect>
            <polygon id="Shape" fill="#AF8066" points="40 56 0 56 6 51 34 51"></polygon>
            <polygon id="Shape" fill="#AF8066" points="38 25 34 29 6 29 2 25"></polygon>
            <path d="M10,33 C9.52842574,32.9953779 9.12551592,32.6588898 9.03692096,32.1956895 C8.94832601,31.7324891 9.19862143,31.2710644 9.63520439,31.0927418 C10.0717874,30.9144192 10.5735534,31.0686638 10.8345803,31.4614343 C11.0956072,31.8542047 11.0434883,32.3765495 10.71,32.71 C10.518238,32.8925356 10.2647198,32.9960852 10,33 Z" id="Shape" fill="#FAC176"></path>
            <path d="M13,35 C12.5284257,34.9953779 12.1255159,34.6588898 12.036921,34.1956895 C11.948326,33.7324891 12.1986214,33.2710644 12.6352044,33.0927418 C13.0717874,32.9144192 13.5735534,33.0686638 13.8345803,33.4614343 C14.0956072,33.8542047 14.0434883,34.3765495 13.71,34.71 C13.518238,34.8925356 13.2647198,34.9960852 13,35 L13,35 Z" id="Shape" fill="#FAC176"></path>
            <path d="M13,39 C12.5284257,38.9953779 12.1255159,38.6588898 12.036921,38.1956895 C11.948326,37.7324891 12.1986214,37.2710644 12.6352044,37.0927418 C13.0717874,36.9144192 13.5735534,37.0686638 13.8345803,37.4614343 C14.0956072,37.8542047 14.0434883,38.3765495 13.71,38.71 C13.518238,38.8925356 13.2647198,38.9960852 13,39 L13,39 Z" id="Shape" fill="#FAC176"></path>
            <path d="M13,43 C12.5284257,42.9953779 12.1255159,42.6588898 12.036921,42.1956895 C11.948326,41.7324891 12.1986214,41.2710644 12.6352044,41.0927418 C13.0717874,40.9144192 13.5735534,41.0686638 13.8345803,41.4614343 C14.0956072,41.8542047 14.0434883,42.3765495 13.71,42.71 C13.518238,42.8925356 13.2647198,42.9960852 13,43 L13,43 Z" id="Shape" fill="#FAC176"></path>
            <path d="M13,47 C12.5284257,46.9953779 12.1255159,46.6588898 12.036921,46.1956895 C11.948326,45.7324891 12.1986214,45.2710644 12.6352044,45.0927418 C13.0717874,44.9144192 13.5735534,45.0686638 13.8345803,45.4614343 C14.0956072,45.8542047 14.0434883,46.3765495 13.71,46.71 C13.518238,46.8925356 13.2647198,46.9960852 13,47 L13,47 Z" id="Shape" fill="#FAC176"></path>
            <path d="M10,37 C9.52842574,36.9953779 9.12551592,36.6588898 9.03692096,36.1956895 C8.94832601,35.7324891 9.19862143,35.2710644 9.63520439,35.0927418 C10.0717874,34.9144192 10.5735534,35.0686638 10.8345803,35.4614343 C11.0956072,35.8542047 11.0434883,36.3765495 10.71,36.71 C10.518238,36.8925356 10.2647198,36.9960852 10,37 Z" id="Shape" fill="#FAC176"></path>
            <path d="M10,41 C9.52842574,40.9953779 9.12551592,40.6588898 9.03692096,40.1956895 C8.94832601,39.7324891 9.19862143,39.2710644 9.63520439,39.0927418 C10.0717874,38.9144192 10.5735534,39.0686638 10.8345803,39.4614343 C11.0956072,39.8542047 11.0434883,40.3765495 10.71,40.71 C10.518238,40.8925356 10.2647198,40.9960852 10,41 Z" id="Shape" fill="#FAC176"></path>
            <path d="M10,45 C9.52842574,44.9953779 9.12551592,44.6588898 9.03692096,44.1956895 C8.94832601,43.7324891 9.19862143,43.2710644 9.63520439,43.0927418 C10.0717874,42.9144192 10.5735534,43.0686638 10.8345803,43.4614343 C11.0956072,43.8542047 11.0434883,44.3765495 10.71,44.71 C10.518238,44.8925356 10.2647198,44.9960852 10,45 L10,45 Z" id="Shape" fill="#FAC176"></path>
            <path d="M10,49 C9.52842574,48.9953779 9.12551592,48.6588898 9.03692096,48.1956895 C8.94832601,47.7324891 9.19862143,47.2710644 9.63520439,47.0927418 C10.0717874,46.9144192 10.5735534,47.0686638 10.8345803,47.4614343 C11.0956072,47.8542047 11.0434883,48.3765495 10.71,48.71 C10.518238,48.8925356 10.2647198,48.9960852 10,49 Z" id="Shape" fill="#FAC176"></path>
            <path d="M30,33 C29.9328712,32.9981768 29.8659628,32.9914926 29.7998,32.98 C29.7372879,32.9688776 29.6767463,32.9486421 29.62011,32.91994 C29.5561485,32.89798 29.4953949,32.8676032 29.43945,32.82961 C29.3871796,32.7929065 29.3372648,32.7529579 29.29,32.71 C29.1071571,32.5184369 29.003556,32.2647929 29,32 C29.0016408,31.932881 29.008168,31.8659707 29.01953,31.7998 C29.030825,31.7371102 29.051224,31.6764084 29.08008,31.61962 C29.1017732,31.5559405 29.1319948,31.495494 29.16992,31.43993 C29.20992,31.38964 29.25,31.33983 29.29004,31.29003 L29.43945,31.16991 C29.4953949,31.1319168 29.5561485,31.10154 29.62011,31.07958 C29.6766745,31.0508082 29.737251,31.0307228 29.7998,31.02 C30.1289815,30.9578434 30.4679244,31.0583912 30.70996,31.29 C30.74996,31.3398 30.79004,31.38961 30.83008,31.4399 C30.8676262,31.4956859 30.8978218,31.5560806 30.91992,31.61959 C30.9489087,31.6762358 30.9690009,31.737008 30.97949,31.79977 C30.9916576,31.8658593 30.9985162,31.9328164 31,32 C31.0025856,32.2660007 30.8980593,32.5218597 30.7099595,32.7099595 C30.5218597,32.8980593 30.2660007,33.0025856 30,33 L30,33 Z" id="Shape" fill="#FAC176"></path>
            <path d="M27,35 C26.5284257,34.9953779 26.1255159,34.6588898 26.036921,34.1956895 C25.948326,33.7324891 26.1986214,33.2710644 26.6352044,33.0927418 C27.0717874,32.9144192 27.5735534,33.0686638 27.8345803,33.4614343 C28.0956072,33.8542047 28.0434883,34.3765495 27.71,34.71 C27.518238,34.8925356 27.2647198,34.9960852 27,35 Z" id="Shape" fill="#FAC176"></path>
            <path d="M27,39 C26.5284257,38.9953779 26.1255159,38.6588898 26.036921,38.1956895 C25.948326,37.7324891 26.1986214,37.2710644 26.6352044,37.0927418 C27.0717874,36.9144192 27.5735534,37.0686638 27.8345803,37.4614343 C28.0956072,37.8542047 28.0434883,38.3765495 27.71,38.71 C27.518238,38.8925356 27.2647198,38.9960852 27,39 L27,39 Z" id="Shape" fill="#FAC176"></path>
            <path d="M27,43 C26.5284257,42.9953779 26.1255159,42.6588898 26.036921,42.1956895 C25.948326,41.7324891 26.1986214,41.2710644 26.6352044,41.0927418 C27.0717874,40.9144192 27.5735534,41.0686638 27.8345803,41.4614343 C28.0956072,41.8542047 28.0434883,42.3765495 27.71,42.71 C27.518238,42.8925356 27.2647198,42.9960852 27,43 Z" id="Shape" fill="#FAC176"></path>
            <path d="M27,47 C26.7352802,46.9960852 26.481762,46.8925356 26.29,46.71 C26.2017219,46.6127288 26.1307013,46.5010979 26.08,46.37992 C25.9732302,46.1377494 25.9732302,45.8618406 26.08,45.61967 C26.1307098,45.4986441 26.2017324,45.3871758 26.29,45.29008 C26.6909481,44.9199569 27.3089719,44.9199569 27.70992,45.29008 C27.7981876,45.3871758 27.8692102,45.4986441 27.91992,45.61967 C28.0266898,45.8618406 28.0266898,46.1377494 27.91992,46.37992 C27.8692187,46.5010979 27.7981981,46.6127288 27.70992,46.71 C27.5180761,46.8923592 27.2646545,46.9958811 27,47 Z" id="Shape" fill="#FAC176"></path>
            <path d="M30,37 C29.9328712,36.9981768 29.8659628,36.9914926 29.7998,36.98 C29.7372879,36.9688776 29.6767463,36.9486421 29.62011,36.91994 C29.5561485,36.89798 29.4953949,36.8676032 29.43945,36.82961 C29.38965,36.79 29.33984,36.75 29.29,36.71 C29.25,36.65971 29.20992,36.6099 29.16988,36.54984 C29.1300411,36.49901 29.0996153,36.4414638 29.08004,36.37992 C29.051184,36.3231316 29.030785,36.2624298 29.01949,36.19974 C29.0081638,36.13372 29.00165,36.0669642 29,36 C28.9962965,35.8686665 29.0237382,35.738322 29.08008,35.61963 C29.1307898,35.4986041 29.2018124,35.3871358 29.29008,35.29004 L29.43949,35.16992 C29.4954349,35.1319268 29.5561885,35.10155 29.62015,35.07959 C29.6767014,35.0508185 29.7372642,35.0307298 29.7998,35.02 C30.1291559,34.9542326 30.4697472,35.0552694 30.70996,35.29 C30.7982276,35.3870958 30.8692502,35.4985641 30.91996,35.61959 C30.975838,35.7384509 31.003243,35.8686998 31,36 C30.9984895,36.0670098 30.9916311,36.133792 30.97949,36.19971 C30.9690009,36.262472 30.9489087,36.3232442 30.91992,36.37989 C30.8999455,36.4412656 30.8695551,36.4987448 30.83008,36.54981 C30.79008,36.60987 30.75,36.65967 30.70996,36.70997 C30.5181106,36.8923494 30.2646724,36.995883 30,37 Z" id="Shape" fill="#FAC176"></path>
            <path d="M30,41 C29.9328712,40.9981768 29.8659628,40.9914926 29.7998,40.98 C29.7372879,40.9688776 29.6767463,40.9486421 29.62011,40.91994 C29.5561485,40.89798 29.4953949,40.8676032 29.43945,40.82961 C29.3871796,40.7929065 29.3372648,40.7529579 29.29,40.71 C29.25,40.65971 29.20992,40.6099 29.16988,40.5601 C29.1318518,40.5044209 29.1016246,40.4437981 29.08004,40.37992 C29.051184,40.3231316 29.030785,40.2624298 29.01949,40.19974 C29.0081638,40.13372 29.00165,40.0669642 29,40 C29.0034639,39.7351884 29.1070782,39.481512 29.29,39.29 L29.43941,39.16988 C29.4953549,39.1318868 29.5561085,39.10151 29.62007,39.07955 C29.6766487,39.0507848 29.7372389,39.0307094 29.7998,39.02 C30.1292202,38.9527916 30.470479,39.0540265 30.70996,39.29 C30.8925102,39.4817559 30.9960744,39.7352747 31,40 C30.9984895,40.0670098 30.9916311,40.133792 30.97949,40.19971 C30.9690009,40.262472 30.9489087,40.3232442 30.91992,40.37989 C30.89793,40.4435987 30.8677289,40.504169 30.83008,40.56007 C30.79008,40.60987 30.75,40.65968 30.70996,40.70997 C30.5181106,40.8923494 30.2646724,40.995883 30,41 Z" id="Shape" fill="#FAC176"></path>
            <path d="M30,45 C29.9328712,44.9981768 29.8659628,44.9914926 29.7998,44.98 C29.7372879,44.9688776 29.6767463,44.9486421 29.62011,44.91994 C29.5561485,44.89798 29.4953949,44.8676032 29.43945,44.82961 C29.38965,44.79 29.33984,44.75 29.29,44.71 C29.1071571,44.5184369 29.003556,44.2647929 29,44 C28.9962965,43.8686665 29.0237382,43.738322 29.08008,43.61963 C29.1307898,43.4986041 29.2018124,43.3871358 29.29008,43.29004 L29.43949,43.16992 C29.4954349,43.1319268 29.5561885,43.10155 29.62015,43.07959 C29.6767014,43.0508185 29.7372642,43.0307298 29.7998,43.02 C30.1291559,42.9542326 30.4697472,43.0552694 30.70996,43.29 C30.7982276,43.3870958 30.8692502,43.4985641 30.91996,43.61959 C30.975838,43.7384509 31.003243,43.8686998 31,44 C31.0025856,44.2660007 30.8980593,44.5218597 30.7099595,44.7099595 C30.5218597,44.8980593 30.2660007,45.0025856 30,45 L30,45 Z" id="Shape" fill="#FAC176"></path>
            <path d="M30,49 C29.9328712,48.9981768 29.8659628,48.9914926 29.7998,48.98 C29.7372879,48.9688776 29.6767463,48.9486421 29.62011,48.91994 C29.5561485,48.89798 29.4953949,48.8676032 29.43945,48.82961 C29.3871796,48.7929065 29.3372648,48.7529579 29.29,48.71 C29.25,48.65971 29.20992,48.6099 29.16988,48.5601 C29.1318518,48.5044209 29.1016246,48.4437981 29.08004,48.37992 C29.051184,48.3231316 29.030785,48.2624298 29.01949,48.19974 C29.0081638,48.13372 29.00165,48.0669642 29,48 C29.0034639,47.7351884 29.1070782,47.481512 29.29,47.29 C29.3372494,47.2468831 29.3871502,47.2067647 29.43941,47.16988 C29.4953549,47.1318868 29.5561085,47.10151 29.62007,47.07955 C29.6766487,47.0507848 29.7372389,47.0307094 29.7998,47.02 C30.1289815,46.9578434 30.4679244,47.0583912 30.70996,47.29 C30.8925102,47.4817559 30.9960744,47.7352747 31,48 C30.9984895,48.0670098 30.9916311,48.133792 30.97949,48.19971 C30.9690009,48.262472 30.9489087,48.3232442 30.91992,48.37989 C30.89793,48.4435987 30.8677289,48.504169 30.83008,48.56007 C30.79008,48.60987 30.75,48.65968 30.70996,48.70997 C30.5181106,48.8923494 30.2646724,48.995883 30,49 L30,49 Z" id="Shape" fill="#FAC176"></path>
        </g>
    </g>
</svg>