<?xml version="1.0" encoding="UTF-8"?>
<svg width="42px" height="60px" viewBox="0 0 42 60" version="1.1" xmlns="http://www.w3.org/2000/svg" xmlns:xlink="http://www.w3.org/1999/xlink">
    <!-- Generator: Sketch 47.1 (45422) - http://www.bohemiancoding.com/sketch -->
    <title>Education - Outline - 037 - Podium</title>
    <desc>Created with Sketch.</desc>
    <defs></defs>
    <g id="Page-1" stroke="none" stroke-width="1" fill="none" fill-rule="evenodd">
        <g id="Education---Outline---037---Podium" transform="translate(0.000000, -1.000000)" fill-rule="nonzero" fill="#000000">
            <path d="M41.93188,55.66235 C41.9186143,55.626614 41.9032269,55.5917019 41.8858,55.5578 C41.84902,55.4851544 41.803335,55.4173727 41.7498,55.35602 C41.72663,55.3263727 41.7017476,55.2981046 41.67528,55.27136 C41.66222,55.25928 41.65441,55.24336 41.64061,55.23193 L36,50.53143 L36,29.41406 L39.70636,25.7077 C39.8937659,25.5197731 39.9993109,25.2653997 40,25 L40,22 C39.998738,20.8959536 39.1040464,20.001262 38,20 L14,20 L14,13.72778 L16.79535,10.93261 C17.0235226,10.9709426 17.2540722,10.9934563 17.48535,10.99999 C19.5076398,10.9998817 21.3307411,9.78159863 22.1045598,7.91321414 C22.8783785,6.04482966 22.4505277,3.89428191 21.02051,2.46435 C19.5059639,0.939437196 17.1842941,0.557550713 15.2611011,1.51699719 C13.3379081,2.47644367 12.2466834,4.56096196 12.55408,6.6881 L6.87891,12.36376 C5.70732632,13.5352084 5.70721665,15.4346112 6.87866505,16.6061949 C8.05011345,17.7777787 9.94951626,17.7778884 11.1211,16.60644 L12,15.7276 L12,20 L4,20 C2.89595365,20.001262 2.00126197,20.8959536 2,22 L2,25 C2.000777,25.265382 2.10630871,25.5197234 2.29364,25.7077 L6,29.41406 L6,50.53143 L0.35938,55.23193 C0.34559,55.2434 0.33777,55.25927 0.32471,55.27136 C0.298219874,55.2981432 0.273317432,55.3264515 0.25013,55.35614 C0.196638093,55.417489 0.150978151,55.4852483 0.1142,55.55786 C0.0967635786,55.5916846 0.0814018493,55.626539 0.0682,55.66223 C0.0352080426,55.7535766 0.0158961073,55.8492972 0.01089,55.94629 C0.00983,55.96509 -2.2386742e-15,55.981 -2.2386742e-15,56 L-2.2386742e-15,60 C-6.89886937e-05,60.2652376 0.105265697,60.5196316 0.292817033,60.707183 C0.480368368,60.8947343 0.734762367,61.000069 1,61 L41,61 C41.2652376,61.000069 41.5196316,60.8947343 41.707183,60.707183 C41.8947343,60.5196316 42.000069,60.2652376 42,60 L42,56 C42,55.98108 41.9903,55.96533 41.98926,55.94666 C41.984237,55.8495816 41.9649017,55.7537776 41.93188,55.66235 Z M15.36426,3.87842 C16.5359763,2.70697161 18.4354866,2.70718876 19.606935,3.87890503 C20.7783834,5.0506213 20.7781662,6.95013157 19.60645,8.12158 C18.4192636,9.25439655 16.5514464,9.25439655 15.36426,8.12158 C14.1943424,6.94911927 14.1943424,5.05088073 15.36426,3.87842 Z M9.707,15.19238 C9.31623936,15.5823798 8.68343026,15.5821605 8.29294,15.19189 C8.10535533,15.0045099 7.99995414,14.7502452 7.99995414,14.485105 C7.99995414,14.2199648 8.10535533,13.9657001 8.29294,13.77832 L13.31412,8.75632 C13.6854108,9.31849215 14.1665623,9.79976618 14.72864,10.1712 L12.30481,12.59485 L12.28461,12.61499 L9.707,15.19238 Z M34.58594,28 L7.41406,28 L5.41406,26 L36.58594,26 L34.58594,28 Z M8,30 L34,30 L34,50 L8,50 L8,30 Z M38,22 L38,24 L4,24 L4,22 L38,22 Z M7.3623,52 L34.6377,52 L38.23829,55 L3.76172,55 L7.3623,52 Z M40,59 L2,59 L2,57 L40,57 L40,59 Z" id="Shape"></path>
            <path d="M10.29,31.29 C9.901799,31.6813529 9.90350173,32.3130467 10.2938069,32.7023011 C10.684112,33.0915556 11.315808,33.0915556 11.7061131,32.7023011 C12.0964183,32.3130467 12.098121,31.6813529 11.70992,31.29 C11.3087654,30.9204054 10.6911546,30.9204054 10.29,31.29 Z" id="Shape"></path>
            <path d="M13.29,33.29 C12.901799,33.6813529 12.9035017,34.3130467 13.2938069,34.7023011 C13.684112,35.0915556 14.315808,35.0915556 14.7061131,34.7023011 C15.0964183,34.3130467 15.098121,33.6813529 14.70992,33.29 C14.3087654,32.9204054 13.6911546,32.9204054 13.29,33.29 L13.29,33.29 Z" id="Shape"></path>
            <path d="M13.29,37.29 C12.901799,37.6813529 12.9035017,38.3130467 13.2938069,38.7023011 C13.684112,39.0915556 14.315808,39.0915556 14.7061131,38.7023011 C15.0964183,38.3130467 15.098121,37.6813529 14.70992,37.29 C14.3087654,36.9204054 13.6911546,36.9204054 13.29,37.29 L13.29,37.29 Z" id="Shape"></path>
            <path d="M13.29,41.29 C12.901799,41.6813529 12.9035017,42.3130467 13.2938069,42.7023011 C13.684112,43.0915556 14.315808,43.0915556 14.7061131,42.7023011 C15.0964183,42.3130467 15.098121,41.6813529 14.70992,41.29 C14.3087654,40.9204054 13.6911546,40.9204054 13.29,41.29 L13.29,41.29 Z" id="Shape"></path>
            <path d="M13.29,45.29 C12.901799,45.6813529 12.9035017,46.3130467 13.2938069,46.7023011 C13.684112,47.0915556 14.315808,47.0915556 14.7061131,46.7023011 C15.0964183,46.3130467 15.098121,45.6813529 14.70992,45.29 C14.3087654,44.9204054 13.6911546,44.9204054 13.29,45.29 L13.29,45.29 Z" id="Shape"></path>
            <path d="M10.29,35.29 C9.901799,35.6813529 9.90350173,36.3130467 10.2938069,36.7023011 C10.684112,37.0915556 11.315808,37.0915556 11.7061131,36.7023011 C12.0964183,36.3130467 12.098121,35.6813529 11.70992,35.29 C11.3087654,34.9204054 10.6911546,34.9204054 10.29,35.29 Z" id="Shape"></path>
            <path d="M10.29,39.29 C9.901799,39.6813529 9.90350173,40.3130467 10.2938069,40.7023011 C10.684112,41.0915556 11.315808,41.0915556 11.7061131,40.7023011 C12.0964183,40.3130467 12.098121,39.6813529 11.70992,39.29 C11.3087654,38.9204054 10.6911546,38.9204054 10.29,39.29 Z" id="Shape"></path>
            <path d="M10.29,43.29 C9.901799,43.6813529 9.90350173,44.3130467 10.2938069,44.7023011 C10.684112,45.0915556 11.315808,45.0915556 11.7061131,44.7023011 C12.0964183,44.3130467 12.098121,43.6813529 11.70992,43.29 C11.3087654,42.9204054 10.6911546,42.9204054 10.29,43.29 Z" id="Shape"></path>
            <path d="M10.29,47.29 C9.901799,47.6813529 9.90350173,48.3130467 10.2938069,48.7023011 C10.684112,49.0915556 11.315808,49.0915556 11.7061131,48.7023011 C12.0964183,48.3130467 12.098121,47.6813529 11.70992,47.29 C11.3087654,46.9204054 10.6911546,46.9204054 10.29,47.29 Z" id="Shape"></path>
            <path d="M31.91992,31.61963 C31.8978218,31.5561206 31.8676262,31.4957259 31.83008,31.43994 C31.79008,31.38965 31.75,31.33984 31.70996,31.29004 C31.4679244,31.0584312 31.1289815,30.9578834 30.7998,31.02004 C30.7372515,31.0307596 30.676675,31.0508416 30.62011,31.07961 C30.5561485,31.10157 30.4953949,31.1319468 30.43945,31.16994 L30.29,31.29 C30.25,31.3398 30.20992,31.38961 30.16988,31.4399 C30.1319548,31.495464 30.1017332,31.5559105 30.08004,31.61959 C30.051184,31.6763784 30.030785,31.7370802 30.01949,31.79977 C30.00814,31.8659515 30.0016261,31.932872 30,32 C30.003556,32.2647929 30.1071571,32.5184369 30.29,32.71 C30.3372513,32.7529634 30.3871528,32.7929186 30.43941,32.82963 C30.4953549,32.8676232 30.5561085,32.898 30.62007,32.91996 C30.6767063,32.9486621 30.7372479,32.9688976 30.79976,32.98002 C30.8659365,32.9915078 30.9328584,32.9981853 31,33 C31.2660007,33.0025856 31.5218597,32.8980593 31.7099595,32.7099595 C31.8980593,32.5218597 32.0025856,32.2660007 32,32 C31.9985146,31.9328264 31.9916561,31.8658794 31.97949,31.7998 C31.9689999,31.7370415 31.9489077,31.6762726 31.91992,31.61963 L31.91992,31.61963 Z" id="Shape"></path>
            <path d="M27.29,33.29 C26.901799,33.6813529 26.9035017,34.3130467 27.2938069,34.7023011 C27.684112,35.0915556 28.315808,35.0915556 28.7061131,34.7023011 C29.0964183,34.3130467 29.098121,33.6813529 28.70992,33.29 C28.3087654,32.9204054 27.6911546,32.9204054 27.29,33.29 Z" id="Shape"></path>
            <path d="M27.29,37.29 C26.901799,37.6813529 26.9035017,38.3130467 27.2938069,38.7023011 C27.684112,39.0915556 28.315808,39.0915556 28.7061131,38.7023011 C29.0964183,38.3130467 29.098121,37.6813529 28.70992,37.29 C28.3087654,36.9204054 27.6911546,36.9204054 27.29,37.29 Z" id="Shape"></path>
            <path d="M27.29,41.29 C26.901799,41.6813529 26.9035017,42.3130467 27.2938069,42.7023011 C27.684112,43.0915556 28.315808,43.0915556 28.7061131,42.7023011 C29.0964183,42.3130467 29.098121,41.6813529 28.70992,41.29 C28.3087654,40.9204054 27.6911546,40.9204054 27.29,41.29 Z" id="Shape"></path>
            <path d="M28.71,45.29 C28.3090519,44.9198769 27.6910281,44.9198769 27.29008,45.29 C27.2018124,45.3870958 27.1307898,45.4985641 27.08008,45.61959 C26.9733102,45.8617606 26.9733102,46.1376694 27.08008,46.37984 C27.1307813,46.5010179 27.2018019,46.6126488 27.29008,46.70992 C27.6843933,47.0966401 28.3156867,47.0966401 28.71,46.70992 C28.7982781,46.6126488 28.8692987,46.5010179 28.92,46.37984 C29.0267698,46.1376694 29.0267698,45.8617606 28.92,45.61959 C28.8692902,45.4985641 28.7982676,45.3870958 28.71,45.29 Z" id="Shape"></path>
            <path d="M31.71,35.29 C31.4697872,35.0552694 31.1291959,34.9542326 30.79984,35.02 C30.7372915,35.0307196 30.676715,35.0508016 30.62015,35.07957 C30.5561885,35.10153 30.4954349,35.1319068 30.43949,35.1699 L30.29,35.29 C30.2017324,35.3870958 30.1307098,35.4985641 30.08,35.61959 C30.0236795,35.7383009 29.9962652,35.8686595 30,36 C30.0016647,36.0669551 30.0081918,36.1337008 30.01953,36.19971 C30.030825,36.2623998 30.051224,36.3231016 30.08008,36.37989 C30.0996553,36.4414338 30.1300811,36.49898 30.16992,36.54981 C30.20992,36.60987 30.25,36.65967 30.29004,36.70997 C30.33984,36.74997 30.38965,36.79005 30.43945,36.8296 C30.4953949,36.8675932 30.5561485,36.89797 30.62011,36.91993 C30.6767463,36.9486321 30.7372879,36.9688676 30.7998,36.97999 C30.8659625,36.991486 30.932871,36.9981735 31,37 C31.2646822,36.9959011 31.5181359,36.8923778 31.71,36.71 C31.75,36.65971 31.79008,36.6099 31.83012,36.54984 C31.8695951,36.4987748 31.8999855,36.4412956 31.91996,36.37992 C31.9489487,36.3232742 31.9690409,36.262502 31.97953,36.19974 C31.9916592,36.133811 31.9985043,36.0670187 32,36 C32.0032242,35.8687101 31.9758057,35.7384754 31.91992,35.61963 C31.8692385,35.4985956 31.798243,35.3871139 31.71,35.29 L31.71,35.29 Z" id="Shape"></path>
            <path d="M30.7998,39.02 C30.7372515,39.0307196 30.676675,39.0508016 30.62011,39.07957 C30.5561485,39.10153 30.4953949,39.1319068 30.43945,39.1699 L30.29,39.29 C30.1070782,39.481512 30.0034639,39.7351884 30,40 C30.0016647,40.0669551 30.0081918,40.1337008 30.01953,40.19971 C30.030825,40.2623998 30.051224,40.3231016 30.08008,40.37989 C30.1016646,40.4437681 30.1318918,40.5043909 30.16992,40.56007 C30.20992,40.60987 30.25,40.65968 30.29004,40.70997 C30.3372913,40.7529334 30.3871928,40.7928886 30.43945,40.8296 C30.4953949,40.8675932 30.5561485,40.89797 30.62011,40.91993 C30.6767463,40.9486321 30.7372879,40.9688676 30.7998,40.97999 C30.8659625,40.991486 30.932871,40.9981735 31,41 C31.2646822,40.9959011 31.5181359,40.8923778 31.71,40.71 C31.75,40.65971 31.79008,40.6099 31.83012,40.5601 C31.8677689,40.504199 31.89797,40.4436287 31.91996,40.37992 C31.9489487,40.3232742 31.9690409,40.262502 31.97953,40.19974 C31.9916592,40.133811 31.9985043,40.0670187 32,40 C31.9960852,39.7352802 31.8925356,39.481762 31.71,39.29 C31.4705103,39.0540134 31.129233,38.9527775 30.7998,39.02 Z" id="Shape"></path>
            <path d="M31.71,43.29 C31.4697872,43.0552694 31.1291959,42.9542326 30.79984,43.02 C30.7372915,43.0307196 30.676715,43.0508016 30.62015,43.07957 C30.5561885,43.10153 30.4954349,43.1319068 30.43949,43.1699 L30.29,43.29 C30.2017324,43.3870958 30.1307098,43.4985641 30.08,43.61959 C30.0236795,43.7383009 29.9962652,43.8686595 30,44 C30.003556,44.2647929 30.1071571,44.5184369 30.29,44.71 C30.3398,44.75 30.38961,44.79008 30.43941,44.82963 C30.4953549,44.8676232 30.5561085,44.898 30.62007,44.91996 C30.6767063,44.9486621 30.7372479,44.9688976 30.79976,44.98002 C30.8659365,44.9915078 30.9328584,44.9981853 31,45 C31.2660007,45.0025856 31.5218597,44.8980593 31.7099595,44.7099595 C31.8980593,44.5218597 32.0025856,44.2660007 32,44 C32.0032242,43.8687101 31.9758057,43.7384754 31.91992,43.61963 C31.8692385,43.4985956 31.798243,43.3871139 31.71,43.29 L31.71,43.29 Z" id="Shape"></path>
            <path d="M30.7998,47.02 C30.7372515,47.0307196 30.676675,47.0508016 30.62011,47.07957 C30.5561485,47.10153 30.4953949,47.1319068 30.43945,47.1699 C30.387177,47.2067769 30.3372629,47.2468886 30.29,47.29 C30.1070782,47.481512 30.0034639,47.7351884 30,48 C30.0016647,48.0669551 30.0081918,48.1337008 30.01953,48.19971 C30.030825,48.2623998 30.051224,48.3231016 30.08008,48.37989 C30.1016646,48.4437681 30.1318918,48.5043909 30.16992,48.56007 C30.20992,48.60987 30.25,48.65968 30.29004,48.70997 C30.3372913,48.7529334 30.3871928,48.7928886 30.43945,48.8296 C30.4953949,48.8675932 30.5561485,48.89797 30.62011,48.91993 C30.6767463,48.9486321 30.7372879,48.9688676 30.7998,48.97999 C30.8659625,48.991486 30.932871,48.9981735 31,49 C31.2646822,48.9959011 31.5181359,48.8923778 31.71,48.71 C31.75,48.65971 31.79008,48.6099 31.83012,48.5601 C31.8677689,48.504199 31.89797,48.4436287 31.91996,48.37992 C31.9489487,48.3232742 31.9690409,48.262502 31.97953,48.19974 C31.9916592,48.133811 31.9985043,48.0670187 32,48 C31.9960852,47.7352802 31.8925356,47.481762 31.71,47.29 C31.4679554,47.0583785 31.1289944,46.9578298 30.7998,47.02 Z" id="Shape"></path>
        </g>
    </g>
</svg>