<?xml version="1.0" encoding="UTF-8"?>
<svg width="56px" height="60px" viewBox="0 0 56 60" version="1.1" xmlns="http://www.w3.org/2000/svg" xmlns:xlink="http://www.w3.org/1999/xlink">
    <!-- Generator: Sketch 47.1 (45422) - http://www.bohemiancoding.com/sketch -->
    <title>Education - Outline - 015 - Award</title>
    <desc>Created with Sketch.</desc>
    <defs></defs>
    <g id="Page-1" stroke="none" stroke-width="1" fill="none" fill-rule="evenodd">
        <g id="Education---Outline---015---Award" transform="translate(0.000000, -1.000000)" fill-rule="nonzero" fill="#000000">
            <path d="M27.29,11.71 C27.3398,11.75 27.38961,11.79008 27.4399,11.82963 C27.4955635,11.8675113 27.5559815,11.8978834 27.61959,11.91996 C27.6763965,11.9486673 27.7371004,11.9689019 27.79977,11.98002 C27.8659399,11.9915314 27.9328602,11.9982091 28,12 C28.1306435,11.9983912 28.2597042,11.9711848 28.37988,11.91992 C28.6310423,11.8288893 28.8288493,11.6310823 28.91988,11.37992 C28.9711636,11.2597345 28.9983838,11.1306596 29,11 C28.998201,10.9328697 28.9915167,10.8659595 28.98,10.7998 C28.9688819,10.7371304 28.9486473,10.6764265 28.91994,10.61962 C28.8978634,10.5560115 28.8674913,10.4955935 28.82961,10.43993 C28.79,10.38965 28.75,10.33984 28.71,10.29 C28.6159954,10.1974204 28.5035207,10.1257096 28.37992,10.07955 C28.1974169,9.99996052 27.9946665,9.97914796 27.7998,10.02 C27.7370941,10.0307151 27.6763554,10.0507961 27.61962,10.07957 C27.5560115,10.1016466 27.4955935,10.1320187 27.43993,10.1699 C27.38964,10.2099 27.33983,10.24998 27.29003,10.29002 C27.25003,10.33982 27.20995,10.38963 27.16991,10.43992 C27.1320287,10.4955835 27.1016566,10.5560015 27.07958,10.61961 C27.0508019,10.676348 27.0307174,10.7370902 27.02,10.7998 C27.0082425,10.8659263 27.0015564,10.9328546 27,11 C27.0014401,11.1306122 27.0284803,11.2596743 27.07959,11.37988 C27.1280999,11.5022969 27.1995124,11.6143386 27.29,11.71 Z" id="Shape"></path>
            <path d="M28.71,34.29 C28.6159954,34.1974204 28.5035207,34.1257096 28.37992,34.07955 C28.0073902,33.9237435 27.5777443,34.0067028 27.29,34.29 C27.1994078,34.385386 27.1279655,34.4972733 27.07955,34.61959 C26.9734311,34.8618973 26.9734311,35.1375327 27.07955,35.37984 C27.1304087,35.5010632 27.2015801,35.612719 27.29,35.71 C27.3398,35.75 27.38961,35.79008 27.4399,35.82963 C27.4955635,35.8675113 27.5559815,35.8978834 27.61959,35.91996 C27.6763965,35.9486673 27.7371004,35.9689019 27.79977,35.98002 C27.8659399,35.9915314 27.9328602,35.9982091 28,36 C28.1306435,35.9983912 28.2597042,35.9711848 28.37988,35.91992 C28.5033636,35.8737372 28.6158046,35.8022012 28.70996,35.70992 C28.8924126,35.5181332 28.9959622,35.2646787 29,35 C28.998443,34.8691926 28.9712358,34.7399616 28.91992,34.61963 C28.8690551,34.4986916 28.7980784,34.3872395 28.71,34.29 L28.71,34.29 Z" id="Shape"></path>
            <path d="M23.50977,12.6499 C23.6341359,12.6979772 23.7665892,12.7216812 23.89991,12.71972 C24.1628901,12.7222875 24.4155586,12.6175671 24.59962,12.42972 C24.7908134,12.2428543 24.8989982,11.9870641 24.89991,11.71972 C24.8988743,11.4554053 24.790489,11.2028552 24.59962,11.02001 C24.311801,10.7376421 23.8846522,10.6513336 23.50978,10.7998 C23.3879245,10.8481336 23.278587,10.9234172 23.18996,11.02001 C23.0021129,11.2040714 22.8973925,11.4567399 22.89996,11.71972 C22.8972849,11.9857418 23.0018074,12.2416419 23.18996,12.42972 C23.2813473,12.5230738 23.3899504,12.5978439 23.50977,12.6499 Z" id="Shape"></path>
            <path d="M31.71973,35.19971 C31.8431068,35.2522444 31.9757746,35.2794757 32.10987,35.27979 C32.2404287,35.2774239 32.3693461,35.2502477 32.48975,35.19971 C32.6115672,35.1512645 32.7210081,35.0761889 32.81006,34.97998 C32.8608504,34.9368484 32.9046619,34.8861184 32.93994,34.82959 C32.96973,34.77979 33,34.71973 33.02978,34.65967 C33.0524016,34.5980904 33.0690776,34.5344871 33.07958,34.46973 C33.0961061,34.4078461 33.1028543,34.3437588 33.09958,34.27979 C33.1028376,34.2124351 33.0960977,34.1449693 33.07958,34.07959 C33.067741,34.0151231 33.0510946,33.9516325 33.02978,33.88965 C32.99999,33.82959 32.96972,33.77002 32.93994,33.71973 C32.899471,33.6673845 32.8561101,33.6173399 32.81006,33.56983 C32.6252807,33.378701 32.3708252,33.2707756 32.10498,33.2707756 C31.8391348,33.2707756 31.5846793,33.378701 31.3999,33.56983 C31.2080345,33.7542077 31.0995932,34.0088132 31.0995932,34.27491 C31.0995932,34.5410068 31.2080345,34.7956123 31.3999,34.97999 C31.4886848,35.0762868 31.5979925,35.1513801 31.71973,35.19971 Z" id="Shape"></path>
            <path d="M19.35986,14.18994 C19.38965,14.25 19.41992,14.31006 19.4497,14.35986 C19.4849818,14.4162419 19.5287961,14.4668098 19.57958,14.50976 C19.6686111,14.6061096 19.7780478,14.6813462 19.89989,14.72997 C20.0239175,14.7803887 20.1561699,14.8075347 20.29003,14.81005 C20.5542982,14.8087904 20.8067645,14.7004411 20.98974,14.50976 C21.0406529,14.4669405 21.0844859,14.4163509 21.11962,14.35986 C21.1557658,14.3066409 21.1860518,14.2496699 21.20995,14.18994 C21.2357698,14.1286098 21.2558718,14.0650266 21.27,14 C21.2814608,13.9372836 21.2881467,13.873788 21.29,13.81006 C21.2869407,13.4754251 21.1187327,13.1639168 20.8406042,12.9778135 C20.5624758,12.7917103 20.2103569,12.755054 19.89986,12.87988 C19.7820577,12.9355771 19.6739219,13.0097573 19.57955,13.09961 C19.3915932,13.287967 19.2872529,13.54398 19.29,13.81006 C19.2867513,13.8740281 19.2934991,13.9381115 19.31,14 C19.3205832,14.0647461 19.3372778,14.1283437 19.35986,14.18994 Z" id="Shape"></path>
            <path d="M35.32959,33.11963 C35.7047317,33.2658948 36.1307117,33.1800487 36.41992,32.8999 C36.6064277,32.7107327 36.7106581,32.4555479 36.70992,32.1899 C36.7119468,32.0598603 36.6880449,31.93072 36.63961,31.81002 C36.5877279,31.6900682 36.5131114,31.5812965 36.41988,31.48971 C36.3309608,31.3933475 36.2214826,31.3182464 36.09957,31.26998 C35.8526632,31.1698793 35.5764768,31.1698793 35.32957,31.26998 C35.0890171,31.3768995 34.8967389,31.569338 34.79002,31.80998 C34.7384781,31.9300683 34.7112599,32.0591848 34.70994,32.18986 C34.7128777,32.4566887 34.8205478,32.7116779 35.00974,32.89986 C35.1038135,32.9898786 35.2118241,33.064093 35.32959,33.11963 Z" id="Shape"></path>
            <path d="M16.8999,17.71 C16.9938908,17.8024883 17.1063785,17.8740541 17.22998,17.92 C17.3501462,17.9712855 17.4792163,17.9984667 17.60986,18 C17.8758607,18.0025856 18.1317197,17.8980593 18.3198195,17.7099595 C18.5079193,17.5218597 18.6124456,17.2660007 18.60986,17 C18.608061,16.9328697 18.6013767,16.8659595 18.58986,16.7998 C18.5789676,16.7370733 18.5587221,16.6763368 18.5298,16.61962 C18.5079041,16.5560254 18.4776956,16.4956052 18.43996,16.43993 C18.39996,16.38964 18.35988,16.33983 18.31984,16.29003 C18.0297924,16.0112058 17.6030036,15.9287961 17.23,16.07959 C17.1062808,16.1255115 16.9937588,16.1972525 16.89992,16.29004 C16.7133347,16.479156 16.6090906,16.7343743 16.60992,17.00004 C16.608011,17.1300239 16.6317363,17.2591098 16.67974,17.37992 C16.7378633,17.4993958 16.8119252,17.6104348 16.8999,17.71 Z" id="Shape"></path>
            <path d="M37.68994,29.71 C37.8766858,29.8938355 38.1276103,29.997833 38.38965,30 C38.6543698,29.9960852 38.907888,29.8925356 39.09965,29.71 C39.2863503,29.5209598 39.3906146,29.265692 39.38965,29 C39.3916039,28.8698533 39.3678781,28.7405984 39.31983,28.61963 C39.2667501,28.4974693 39.1921629,28.3858341 39.09962,28.29004 C38.7026166,27.9199121 38.0869534,27.9199121 37.68995,28.29004 C37.5911448,28.3806259 37.5156114,28.4936773 37.46974,28.61963 C37.3629702,28.8618006 37.3629702,29.1377094 37.46974,29.37988 C37.5157166,29.5059296 37.5912241,29.6191291 37.68994,29.71 Z" id="Shape"></path>
            <path d="M15.7998,21.83984 C15.9199758,21.8911048 16.0490365,21.9183112 16.17968,21.91992 C16.2468103,21.918121 16.3137205,21.9114367 16.37988,21.89992 L16.56006,21.83986 C16.61963,21.81007 16.67969,21.7798 16.73975,21.75002 C16.7923157,21.7096452 16.8423749,21.666108 16.88965,21.61965 C17.2763866,21.2293346 17.2763866,20.6002954 16.88965,20.20998 C16.7049475,20.0188943 16.4505757,19.9109903 16.184815,19.9109903 C15.9190543,19.9109903 15.6646825,20.0188943 15.47998,20.20998 C15.2881185,20.3942594 15.1796711,20.6487892 15.1796711,20.914815 C15.1796711,21.1808408 15.2881185,21.4353706 15.47998,21.61965 C15.5686091,21.7162355 15.6779464,21.7915122 15.7998,21.83984 Z" id="Shape"></path>
            <path d="M40.73975,24.69971 C40.719975,24.6382502 40.6895671,24.5807378 40.64991,24.52979 C40.6148691,24.4760149 40.5746363,24.4258077 40.52979,24.37989 C40.2443307,24.0931043 39.8143629,24.0062263 39.43995,24.15968 C39.3138519,24.2055428 39.2006393,24.2810716 39.10987,24.37989 C39.0594673,24.4205884 39.0184862,24.4717295 38.98975,24.52979 C38.9500929,24.5807378 38.919685,24.6382502 38.89991,24.69971 C38.8706718,24.7597307 38.8504346,24.823731 38.83985,24.88965 C38.8281487,24.9523316 38.8214608,25.0158459 38.81985,25.07959 C38.821792,25.3448414 38.9256183,25.5991978 39.10985,25.79004 C39.5044309,26.1761043 40.1351891,26.1761043 40.52977,25.79004 C40.7124246,25.5981737 40.8159847,25.3444694 40.81977,25.07959 C40.8181592,25.0158459 40.8114713,24.9523316 40.79977,24.88965 C40.7891981,24.8237331 40.7689743,24.7597329 40.73975,24.69971 Z" id="Shape"></path>
            <path d="M17.17969,25.07959 C17.181599,24.9496061 17.1578737,24.8205202 17.10987,24.69971 C17.0579829,24.5797864 16.9831802,24.4711474 16.88966,24.37989 C16.601841,24.0975221 16.1746922,24.0112136 15.79982,24.15968 C15.5595465,24.2671607 15.3673007,24.4594065 15.25982,24.69968 C15.2085552,24.8198558 15.1813488,24.9489165 15.17974,25.07956 C15.1789688,25.3473681 15.2873974,25.6039193 15.48,25.79 C15.5714074,25.8832204 15.680017,25.9578398 15.79982,26.00973 C16.1091048,26.1372914 16.461711,26.1015658 16.7391244,25.9145608 C17.0165378,25.7275559 17.1819258,25.4141005 17.1797,25.07955 L17.17969,25.07959 Z" id="Shape"></path>
            <path d="M38.81982,20.91992 C38.8217619,21.1820054 38.925793,21.4330111 39.10982,21.61963 C39.2004564,21.7186034 39.3137097,21.7941594 39.4399,21.83984 C39.7475077,21.9664466 40.097945,21.9317192 40.3747212,21.7472017 C40.6514973,21.5626843 40.8183369,21.2525604 40.81978,20.91992 C40.817936,20.6547819 40.7140871,20.400531 40.52978,20.20992 C40.4328556,20.1185575 40.3212775,20.0441191 40.1997,19.98971 C39.9563343,19.889611 39.6832957,19.889611 39.43993,19.98971 C39.3157015,20.0391981 39.2032487,20.11422 39.10985,20.20992 C38.925532,20.4005262 38.821672,20.6547777 38.81982,20.91992 L38.81982,20.91992 Z" id="Shape"></path>
            <path d="M18.31982,29.71 C18.7065401,29.3156867 18.7065401,28.6843933 18.31982,28.29008 C18.0321034,28.0068111 17.6025099,27.9238386 17.23,28.07959 C17.1062808,28.1255115 16.9937588,28.1972525 16.89992,28.29004 C16.8096792,28.3876695 16.7353667,28.4988937 16.67971,28.61963 C16.5866122,28.8644963 16.5866122,29.1350137 16.67971,29.37988 C16.735481,29.5007003 16.8097796,29.612069 16.89992,29.70996 C16.9939108,29.8024483 17.1063985,29.8740141 17.23,29.91996 C17.3501572,29.9712567 17.4792204,29.9984515 17.60986,30 C17.8745472,29.9959831 18.128017,29.8924473 18.31982,29.71 Z" id="Shape"></path>
            <path d="M37.68994,17.71 C37.8766858,17.8938355 38.1276103,17.997833 38.38965,18 C38.6543698,17.9960852 38.907888,17.8925356 39.09965,17.71 C39.2863503,17.5209598 39.3906146,17.265692 39.38965,17 C39.3916039,16.8698533 39.3678781,16.7405984 39.31983,16.61963 C39.2643515,16.498794 39.1900211,16.387543 39.09962,16.29004 C38.8123638,16.0058782 38.3821829,15.9228096 38.00978,16.07959 C37.8904328,16.1281429 37.7817732,16.1996438 37.68996,16.29004 C37.5932387,16.3823948 37.5180532,16.4949254 37.46975,16.61963 C37.3629802,16.8618006 37.3629802,17.1377094 37.46975,17.37988 C37.518153,17.5046822 37.5933118,17.6173641 37.68994,17.71 Z" id="Shape"></path>
            <path d="M20.29,33.18994 C20.3539681,33.1931887 20.4180515,33.1864409 20.47994,33.16994 C20.5446507,33.1589866 20.6082274,33.1421535 20.66988,33.11965 C20.729907,33.0925951 20.7868705,33.0592021 20.8398,33.02004 C20.8978605,32.9913038 20.9490016,32.9503227 20.9897,32.89992 C21.0357687,32.8524271 21.0791304,32.8023815 21.11958,32.75002 C21.1536563,32.6954095 21.1838411,32.638465 21.20991,32.57961 C21.2397,32.50979 21.24991,32.44973 21.26997,32.38967 C21.2814623,32.3236719 21.2881465,32.2569264 21.28997,32.18996 C21.2847685,31.9235113 21.177243,31.66928 20.98968,31.47996 C20.6981848,31.2039091 20.2730396,31.1219884 19.89984,31.26996 C19.7803329,31.3182796 19.6714971,31.389634 19.57953,31.47996 C19.488206,31.5768157 19.4139156,31.6884152 19.3598,31.81004 C19.2142998,32.1850901 19.3000714,32.6105088 19.57953,32.89988 C19.7688727,33.0864191 20.024205,33.1906623 20.29,33.18994 L20.29,33.18994 Z" id="Shape"></path>
            <path d="M35.32959,14.73 C35.7033347,14.8917134 36.138232,14.8038788 36.41992,14.50979 C36.6076878,14.325675 36.7123935,14.0730419 36.70992,13.81008 C36.7106531,13.5443005 36.6064323,13.2889775 36.41992,13.09963 C36.1316798,12.8176462 35.70455,12.7315684 35.32959,12.8799 C35.2119379,12.9356023 35.1039644,13.0097847 35.00977,13.09963 C34.8189768,13.286912 34.7110248,13.542731 34.70997,13.81008 C34.7111426,14.0742675 34.819304,14.3267078 35.00977,14.50979 C35.098621,14.6061248 35.2078955,14.6813651 35.32959,14.73 L35.32959,14.73 Z" id="Shape"></path>
            <path d="M22.96973,34.65967 C23,34.71973 23.02979,34.77979 23.06006,34.82959 C23.0950398,34.8863376 23.1388893,34.9371116 23.18994,34.97998 C23.2787209,35.0762792 23.3880251,35.1513759 23.50976,35.19971 C23.6334314,35.2512942 23.7659081,35.2784863 23.8999,35.27979 C24.1641074,35.2787136 24.4165837,35.1705368 24.59961,34.97999 C24.6506868,34.9370094 24.6946817,34.8862586 24.72998,34.8296 C24.75977,34.7798 24.79004,34.71974 24.81982,34.65968 C24.83982,34.59962 24.85982,34.54005 24.87988,34.46974 C24.8913661,34.4070272 24.8980522,34.3435297 24.89988,34.2798 C24.8972684,34.1459506 24.8701259,34.0137156 24.8198,33.88966 C24.7713438,33.7678699 24.6960779,33.6585582 24.59959,33.56984 C24.3623363,33.337919 24.0261749,33.2375546 23.7006055,33.3014388 C23.375036,33.365323 23.101729,33.5852792 22.96971,33.88966 C22.9225417,34.0142786 22.8988689,34.1465574 22.89989,34.2798 C22.8966157,34.3437688 22.9033639,34.4078561 22.91989,34.46974 C22.930406,34.534495 22.9470954,34.598095 22.96973,34.65967 Z" id="Shape"></path>
            <path d="M31.3999,12.42969 C31.4912876,12.5230556 31.5998944,12.5978361 31.71972,12.6499 C31.843462,12.7012545 31.9758936,12.7284374 32.10986,12.72998 C32.4413073,12.7202713 32.7473337,12.5499973 32.9303235,12.2734718 C33.1133132,11.9969463 33.1504097,11.648709 33.02978,11.33984 C32.9778898,11.220037 32.9032704,11.1114274 32.81005,11.02002 C32.5220131,10.7376853 32.0947542,10.6513934 31.71972,10.79981 C31.4794465,10.9072907 31.2872007,11.0995365 31.17972,11.33981 C31.1284552,11.4599858 31.1012488,11.5890465 31.09964,11.71969 C31.1011826,11.8536564 31.1283655,11.986088 31.17972,12.10983 C31.2282184,12.2316016 31.3034661,12.3409155 31.3999,12.42969 L31.3999,12.42969 Z" id="Shape"></path>
            <path d="M0.55371,55.61768 C0.821328767,55.9590044 1.27863448,56.0886196 1.68555,55.93848 L7.88868,53.65332 L9.01468,60.17041 C9.08423839,60.5729128 9.39160397,60.8926502 9.79105,60.97803 C9.85975425,60.9925505 9.92977813,60.9999131 10,61 C10.3329702,60.999943 10.6441122,60.8343077 10.83008,60.55811 L24.2536,40.59058 L25.76416,43.61133 C26.1844307,44.4611599 27.0501333,44.999277 27.9982039,45.0000023 C28.9462744,45.0007277 29.8127994,44.4639358 30.23437,43.61475 L31.74645,40.59064 L45.16992,60.55811 C45.3559659,60.834221 45.667058,60.9998298 46,61 C46.070241,60.9999321 46.1402844,60.9925591 46.209,60.978 C46.608446,60.8926202 46.9158116,60.5728828 46.98537,60.17038 L48.11137,53.65329 L54.3145,55.93845 C54.7213649,56.0881325 55.1783382,55.9586587 55.4462188,55.6178011 C55.7140994,55.2769435 55.7318907,54.8023158 55.49028,54.44236 L42.49547,35.10736 L44.73347,35.2417 C44.78816,35.24512 44.84236,35.24658 44.89607,35.24658 C45.8147127,35.2454843 46.6584316,34.7396367 47.0922428,33.9298753 C47.5260539,33.1201138 47.4797634,32.1374641 46.97175,31.37207 L44.387,27.45776 C44.39841,27.41601 44.40842,27.37376 44.41947,27.33176 L48.61326,25.23484 C49.4626769,24.8140534 50.0003339,23.9483278 50.0009551,23.0003985 C50.0015764,22.0524692 49.4650546,21.1860396 48.61619,20.76414 L44.41874,18.66545 C44.40774,18.62389 44.3978,18.58189 44.38651,18.54045 L46.96872,14.62889 C47.4945727,13.8400526 47.5277821,12.8213049 47.0544204,11.999895 C46.5810588,11.178485 45.6829664,10.6964274 44.73679,10.75589 L40.06211,11.03629 C40.02897,11.00284 39.9957,10.96976 39.96226,10.93662 L40.24266,6.26615 C40.303816,5.31994459 39.823203,4.42088759 39.0024386,3.94613443 C38.1816742,3.47138127 37.162709,3.5030401 36.373,4.02783 L32.45776,6.613 C32.41656,6.60171 32.37481,6.59194 32.33343,6.581 L30.23583,2.3863 C29.8155593,1.53647013 28.9498567,0.998353005 28.0017861,0.997627669 C27.0537156,0.996902334 26.1871906,1.53369419 25.76562,2.38288 L23.66656,6.58093 C23.62518,6.59186 23.58349,6.60174 23.54229,6.61293 L19.63037,4.02979 C18.8414609,3.50385331 17.8225821,3.47067198 17.001125,3.94416467 C16.179668,4.41765736 15.697691,5.31594078 15.75737,6.26221 L16.03777,10.93659 C16.00432,10.96979 15.97118,11.00281 15.93798,11.03626 L11.26665,10.75586 C10.3207001,10.6953315 9.42216146,11.1760965 8.9476376,11.9966524 C8.47311373,12.8172083 8.50458466,13.8357937 9.02886,14.62549 L11.61352,18.54049 C11.60223,18.58193 11.59228,18.62393 11.58129,18.66549 L7.38672,20.7627 C6.5370364,21.1832682 5.99913349,22.0490697 5.99851214,22.9971412 C5.9978908,23.9452126 6.53465839,24.8117184 7.38379,25.2334 L11.58051,27.33179 C11.59151,27.37372 11.60157,27.41602 11.61298,27.45779 L9.03077,31.36917 C8.52152985,32.1339836 8.47384908,33.1167905 8.90666224,33.9273078 C9.33947539,34.737825 10.1827335,35.2448739 11.10157,35.2471 C11.15528,35.2471 11.20899,35.2451 11.26319,35.24173 L13.50465,35.10727 L0.50977,54.44238 C0.267979457,54.8022179 0.285726041,55.2769006 0.55371,55.61768 Z M13,23 C13,14.7157288 19.7157288,8 28,8 C36.2842712,8 43,14.7157288 43,23 C43,31.2842712 36.2842712,38 28,38 C19.7196124,37.9906315 13.0093685,31.2803876 13,23 Z M38.24658,39.85938 C38.2590955,40.0481566 38.1628201,40.2275323 37.9985808,40.3214402 C37.8343415,40.4153481 37.6309199,40.4073315 37.47458,40.30079 L34.83142,38.5556 C35.9719919,38.0493424 37.0532875,37.4189092 38.05572,36.67572 L38.24658,39.85938 Z M17.94421,36.67566 C18.9466214,37.4188487 20.0278971,38.0492821 21.16845,38.55554 L18.522,40.30273 C18.3648588,40.4080542 18.1614021,40.4145087 17.9979009,40.3193566 C17.8343998,40.2242045 17.7395032,40.0441185 17.75345,39.85546 L17.94421,36.67566 Z M28.44384,42.72366 C28.3603955,42.8934525 28.1873781,43.0007442 27.9981905,43.0000165 C27.8090028,42.9992888 27.6368159,42.8906694 27.55468,42.72024 L26.14117,39.89324 C27.376315,40.0356551 28.623735,40.0356551 29.85888,39.89324 L28.44384,42.72366 Z M47.67577,51.36136 C47.3972034,51.2586936 47.0874185,51.2851295 46.8302755,51.4335115 C46.5731326,51.5818935 46.3952274,51.8368745 46.34472,52.12943 L45.43848,57.373 L34.055,40.43933 L36.36964,41.96777 C37.1585491,42.4937067 38.1774279,42.526888 38.998885,42.0533953 C39.820342,41.5799026 40.302319,40.6816192 40.24264,39.73535 L39.96237,35.06329 C39.98105,35.0448 40.00155,35.02844 40.02011,35.00982 L52.10641,52.99365 L47.67577,51.36136 Z M45.30469,32.47705 C45.4123441,32.6327381 45.4192151,32.8369374 45.32227,32.99951 C45.2278022,33.1646258 45.0465885,33.2604607 44.85694,33.2456 L41.6764,33.0548 C42.419756,32.0520074 43.0502946,30.9703203 43.55659,29.82934 L45.30469,32.47705 Z M47.72461,22.55469 C47.8943494,22.638244 48.0016178,22.8112414 48.0009948,23.0004301 C48.0003717,23.1896188 47.8919661,23.3619058 47.72168,23.44434 L44.89325,24.85859 C45.035726,23.6227446 45.0355817,22.3746124 44.89282,21.1388 L47.72461,22.55469 Z M44.86035,12.752 C45.0493257,12.7389569 45.2291141,12.8351402 45.3231383,12.9995829 C45.4171624,13.1640256 45.4088572,13.3677562 45.30176,13.524 L43.55576,16.16908 C43.0492507,15.0278297 42.4184028,13.945931 41.67466,12.94301 L44.86035,12.752 Z M37.478,5.69482 C37.6351412,5.58949578 37.8385979,5.58304129 38.0020991,5.6781934 C38.1656002,5.77334552 38.2604968,5.95343147 38.24655,6.14209 L38.05563,9.32428 C37.0526277,8.58062414 35.9706669,7.94985764 34.82937,7.44342 L37.478,5.69482 Z M27.55613,3.27392 C27.6395745,3.10412747 27.8125919,2.99683585 28.0017795,2.99756353 C28.1909672,2.9982912 28.3631541,3.1069106 28.44529,3.27734 L29.86011,6.107 C28.6240995,5.96434023 27.3757805,5.96434023 26.13977,6.107 L27.55613,3.27392 Z M17.75342,6.13818 C17.7409045,5.94940341 17.8371799,5.77002766 18.0014192,5.67611979 C18.1656585,5.58221192 18.3690801,5.59022851 18.52542,5.69677 L21.17074,7.44335 C20.0294217,7.94979885 18.9474352,8.58056802 17.9444,9.32422 L17.75342,6.13818 Z M10.6958,13.521 C10.5879574,13.3651464 10.5812733,13.1606121 10.67871,12.99805 C10.7745978,12.8349039 10.9542288,12.7397075 11.14307,12.75196 L14.32538,12.94288 C13.5815739,13.9458831 12.9506628,15.0278645 12.44409,16.1692 L10.6958,13.521 Z M8.27539,23.44288 C8.1054036,23.3595282 7.99790697,23.1864595 7.99853049,22.9971384 C7.999154,22.8078172 8.10778827,22.6354603 8.27832,22.55323 L11.10718,21.1388 C10.9644183,22.3746124 10.964274,23.6227446 11.10675,24.85859 L8.27539,23.44288 Z M11.13965,33.24561 C10.950761,33.2624227 10.7698333,33.1658277 10.67871,32.99952 C10.5810098,32.8357601 10.5884467,32.6299223 10.69771,32.47364 L12.44338,29.82941 C12.9496554,30.9703506 13.5801742,32.0519978 14.32351,33.05475 L11.13965,33.24561 Z M15.9798,35.00983 C15.99835,35.02838 16.01898,35.04483 16.0376,35.0633 L15.75733,39.73145 C15.69405,40.6784564 16.174291,41.5791664 16.995872,42.0543822 C17.817453,42.529598 18.8376651,42.4967744 19.627,41.96973 L21.94512,40.43915 L10.561,57.373 L9.65524,52.12935 C9.60473256,51.8367945 9.42682745,51.5818135 9.16968447,51.4334315 C8.91254149,51.2850495 8.60275656,51.2586136 8.32419,51.36128 L3.89307,52.99365 L15.9798,35.00983 Z" id="Shape"></path>
            <path d="M26,29 L30,29 C30.5522847,29 31,28.5522847 31,28 C31,27.4477153 30.5522847,27 30,27 L29,27 L29,23.00049 C29,22.4482053 28.5522847,22.00049 28,22.00049 C27.4477153,22.00049 27,22.4482053 27,23.00049 L27,27 L26,27 C25.4477153,27 25,27.4477153 25,28 C25,28.5522847 25.4477153,29 26,29 Z" id="Shape"></path>
            <path d="M26.44727,18.89453 L27,18.61816 L27,19 C27,19.5522847 27.4477153,20 28,20 C28.5522847,20 29,19.5522847 29,19 L29,17 C28.9999893,16.6534108 28.8205328,16.3315355 28.5257126,16.1493128 C28.2308924,15.96709 27.8627441,15.9505012 27.55273,16.10547 L25.55273,17.10547 C25.2319585,17.2645828 25.0207239,17.5830419 24.9988914,17.9404416 C24.977059,18.2978414 25.1479602,18.639644 25.4469795,18.8366179 C25.7459988,19.0335918 26.1275068,19.0556795 26.44726,18.89453 L26.44727,18.89453 Z" id="Shape"></path>
        </g>
    </g>
</svg>