<?xml version="1.0" encoding="UTF-8"?>
<svg width="54px" height="58px" viewBox="0 0 54 58" version="1.1" xmlns="http://www.w3.org/2000/svg" xmlns:xlink="http://www.w3.org/1999/xlink">
    <!-- Generator: Sketch 47.1 (45422) - http://www.bohemiancoding.com/sketch -->
    <title>Education - Flat015 - Award</title>
    <desc>Created with Sketch.</desc>
    <defs></defs>
    <g id="Page-1" stroke="none" stroke-width="1" fill="none" fill-rule="evenodd">
        <g id="Education---Flat015---Award" transform="translate(0.000000, -1.000000)" fill-rule="nonzero">
            <g id="Colour">
                <polyline id="Shape" fill="#90BAE1" points="23.39 37.59 23.38 37.61 9 59 7.67 51.3 0.34 54 14.85 32.41"></polyline>
                <polyline id="Shape" fill="#90BAE1" points="30.61 37.59 30.62 37.61 45 59 46.33 51.3 53.66 54 39.15 32.41"></polyline>
                <path d="M31.6507,6.6835 L35.9239,3.8621 C36.3969873,3.5465572 37.0081469,3.52680207 37.5006246,3.81113395 C37.9931023,4.09546582 38.281574,4.63462295 38.24485,5.2021 L37.93805,10.3135 L38.68526,11.06071 L43.79666,10.75391 C44.3641371,10.717186 44.9032942,11.0056577 45.1876261,11.4981354 C45.4719579,11.9906131 45.4522028,12.6017727 45.13666,13.07486 L42.31526,17.34806 L42.58876,18.36876 L47.16876,20.65876 C47.6785707,20.9106947 48.001258,21.4300966 48.001258,21.99876 C48.001258,22.5674234 47.6785707,23.0868253 47.16876,23.33876 L42.58876,25.62876 L42.31526,26.64946 L45.13666,30.92266 C45.4522028,31.3957473 45.4719579,32.0069069 45.1876261,32.4993846 C44.9032942,32.9918623 44.3641371,33.280334 43.79666,33.24361 L38.68526,32.93681 L37.938,33.684 L38.2448,38.7954 C38.281524,39.3628771 37.9930523,39.9020342 37.5005746,40.1863661 C37.0080969,40.4706979 36.3969373,40.4509428 35.92385,40.1354 L31.6507,37.314 L30.63,37.5875 L28.34,42.1675 C28.0880653,42.6773107 27.5686634,42.999998 27,42.999998 C26.4313366,42.999998 25.9119347,42.6773107 25.66,42.1675 L23.37,37.5875 L22.3493,37.314 L18.0761,40.1354 C17.6030127,40.4509428 16.9918531,40.4706979 16.4993754,40.1863661 C16.0068977,39.9020342 15.718426,39.3628771 15.75515,38.7954 L16.06195,33.684 L15.31474,32.93679 L10.20334,33.24359 C9.63586295,33.280314 9.09670582,32.9918423 8.81237395,32.4993646 C8.52804207,32.0068869 8.5477972,31.3957273 8.86334,30.92264 L11.68474,26.64944 L11.41124,25.62874 L6.83124,23.33874 C6.32142928,23.0868053 5.99874196,22.5674034 5.99874196,21.99874 C5.99874196,21.4300766 6.32142928,20.9106747 6.83124,20.65874 L11.41124,18.36874 L11.68474,17.34804 L8.86334,13.07484 C8.5477972,12.6017527 8.52804207,11.9905931 8.81237395,11.4981154 C9.09670582,11.0056377 9.63586295,10.717166 10.20334,10.75389 L15.31474,11.06069 L16.06195,10.31348 L15.75515,5.20208 C15.718426,4.63460295 16.0068977,4.09544582 16.4993754,3.81111395 C16.9918531,3.52678207 17.6030127,3.5465372 18.0761,3.86208 L22.3493,6.68348 L23.37,6.41 L25.66,1.83 C25.9119347,1.32018928 26.4313366,0.997501963 27,0.997501963 C27.5686634,0.997501963 28.0880653,1.32018928 28.34,1.83 L30.63,6.41 L31.6507,6.6835 Z" id="Shape" fill="#285680"></path>
                <circle id="Oval" fill="#4482C3" cx="27" cy="22" r="16"></circle>
                <path d="M27,35 C26.9328697,34.998201 26.8659595,34.9915167 26.7998,34.98 C26.7371304,34.9688819 26.6764265,34.9486473 26.61962,34.91994 C26.5560115,34.8978634 26.4955935,34.8674913 26.43993,34.82961 C26.38964,34.79006 26.33983,34.75002 26.29003,34.70998 C26.2016178,34.6127231 26.1304467,34.5010949 26.07958,34.3799 C25.9734611,34.1375927 25.9734611,33.8619573 26.07958,33.61965 C26.1279797,33.4973144 26.1994121,33.3854064 26.29,33.29 C26.5777293,33.0067365 27.0073324,32.9237794 27.37984,33.07955 C27.5034693,33.1256996 27.6159721,33.1974109 27.71,33.29 C27.7981031,33.3872214 27.8691068,33.4986601 27.92,33.61959 C27.9712934,33.7399396 27.9984735,33.8691845 28,34 C27.9959931,34.264701 27.8924566,34.5181869 27.71,34.71 C27.6158446,34.8022812 27.5034036,34.8738172 27.37992,34.92 C27.2597262,34.9712424 27.1306516,34.9984217 27,35 L27,35 Z" id="Shape" fill="#ECF0F1"></path>
                <path d="M31.10986,34.27979 C30.9757646,34.2794757 30.8430968,34.2522444 30.71972,34.19971 C30.597987,34.1513817 30.4886829,34.0762919 30.3999,33.98 C30.2080345,33.7956223 30.0995932,33.5410168 30.0995932,33.27492 C30.0995932,33.0088232 30.2080345,32.7542177 30.3999,32.56984 C30.584762,32.3788631 30.8391866,32.2710441 31.10498,32.2710441 C31.3707734,32.2710441 31.625198,32.3788631 31.81006,32.56984 C31.8561101,32.6173499 31.899471,32.6673945 31.93994,32.71974 C31.96973,32.77003 32,32.8296 32.02978,32.88966 C32.0510946,32.9516425 32.067741,33.0151331 32.07958,33.0796 C32.0960977,33.1449793 32.1028376,33.2124451 32.09958,33.2798 C32.1028543,33.3437688 32.0961061,33.4078561 32.07958,33.46974 C32.0690776,33.5344971 32.0524016,33.5981004 32.02978,33.65968 C31.99999,33.71974 31.96972,33.7798 31.93994,33.8296 C31.9046619,33.8861284 31.8608504,33.9368584 31.81006,33.97999 C31.7210081,34.0761989 31.6115672,34.1512745 31.48975,34.19972 C31.3693423,34.2502555 31.2404214,34.2774284 31.10986,34.27979 Z" id="Shape" fill="#ECF0F1"></path>
                <path d="M19.29,13.81006 C19.1561546,13.8075462 19.0239163,13.780407 18.8999,13.73 C18.7780578,13.6813762 18.6686211,13.6061396 18.57959,13.50979 C18.5288061,13.4668398 18.4849918,13.4162719 18.44971,13.35989 C18.41992,13.31009 18.38965,13.25003 18.35987,13.18997 C18.337303,13.1283623 18.3206251,13.0647546 18.31006,13 C18.2935591,12.9381115 18.2868113,12.8740281 18.29006,12.81006 C18.2873129,12.54398 18.3916532,12.287967 18.57961,12.09961 C18.6739819,12.0097573 18.7821177,11.9355771 18.89992,11.87988 C19.2104169,11.755054 19.5625358,11.7917103 19.8406642,11.9778135 C20.1187927,12.1639168 20.2870007,12.4754251 20.29006,12.81006 C20.2881869,12.8737896 20.281481,12.9372851 20.27,13 C20.2558686,13.0650269 20.2357632,13.1286101 20.20994,13.18994 C20.1860418,13.2496699 20.1557558,13.3066409 20.11961,13.35986 C20.0844759,13.4163509 20.0406429,13.4669405 19.98973,13.50976 C19.8067514,13.7004497 19.5542767,13.8088032 19.29,13.81006 L19.29,13.81006 Z" id="Shape" fill="#ECF0F1"></path>
                <path d="M34.71,32.18994 C34.5798013,32.1919673 34.4505007,32.1680665 34.32963,32.11963 C34.2118775,32.0641024 34.1038773,31.9899017 34.00981,31.8999 C33.8206178,31.7117179 33.7129477,31.4567287 33.71001,31.1899 C33.7113299,31.0592248 33.7385481,30.9301083 33.79009,30.81002 C33.8968089,30.569378 34.0890871,30.3769395 34.32964,30.27002 C34.5765468,30.1699193 34.8527332,30.1699193 35.09964,30.27002 C35.2215526,30.3182864 35.3310308,30.3933875 35.41995,30.48975 C35.5131814,30.5813365 35.5877979,30.6901082 35.63968,30.81006 C35.6881149,30.93076 35.7120168,31.0599003 35.70999,31.18994 C35.7107281,31.4555879 35.6064977,31.7107727 35.41999,31.89994 C35.2319143,32.0880901 34.9760184,32.1926124 34.71,32.18994 L34.71,32.18994 Z" id="Shape" fill="#ECF0F1"></path>
                <path d="M16.60986,17 C16.479211,16.9984414 16.3501406,16.971233 16.22998,16.91992 C16.1063785,16.8739741 15.9938908,16.8024083 15.8999,16.70992 C15.8119076,16.6103579 15.7378288,16.4993187 15.67969,16.37984 C15.6316881,16.259043 15.6079594,16.1299711 15.60986,16 C15.6090306,15.7343343 15.7132747,15.479116 15.89986,15.29 C15.9936988,15.1972125 16.1062208,15.1254715 16.22994,15.07955 C16.6029456,14.9287587 17.0297346,15.0111724 17.31978,15.29 C17.35978,15.3398 17.39986,15.38961 17.4399,15.4399 C17.4776356,15.4955752 17.5078441,15.5559954 17.52974,15.61959 C17.5586621,15.6763068 17.5789076,15.7370433 17.5898,15.79977 C17.6013167,15.8659295 17.608001,15.9328397 17.6098,15.99997 C17.6123856,16.2659707 17.5078593,16.5218297 17.3197595,16.7099295 C17.1316597,16.8980293 16.8758007,17.0025556 16.6098,16.99997 L16.60986,17 Z" id="Shape" fill="#ECF0F1"></path>
                <path d="M37.38965,29 C37.1276103,28.997833 36.8766858,28.8938355 36.68994,28.71 C36.5912258,28.6191416 36.5157151,28.5059562 36.46973,28.37992 C36.3629602,28.1377494 36.3629602,27.8618406 36.46973,27.61967 C36.5156014,27.4937173 36.5911348,27.3806659 36.68994,27.29008 C37.0869434,26.9199521 37.7026066,26.9199521 38.09961,27.29008 C38.1921529,27.3858741 38.2667401,27.4975093 38.31982,27.61967 C38.3678663,27.7406253 38.3915954,27.8698661 38.38965,28 C38.3906146,28.265692 38.2863503,28.5209598 38.09965,28.71 C37.907888,28.8925356 37.6543698,28.9960852 37.38965,29 Z" id="Shape" fill="#ECF0F1"></path>
                <path d="M15.17969,20.91992 C15.0490465,20.9183112 14.9199858,20.8911048 14.79981,20.83984 C14.6779545,20.7915064 14.568617,20.7162228 14.47999,20.61963 C14.2881285,20.4353506 14.1796811,20.1808208 14.1796811,19.914795 C14.1796811,19.6487692 14.2881285,19.3942394 14.47999,19.20996 C14.6646925,19.0188743 14.9190643,18.9109703 15.184825,18.9109703 C15.4505857,18.9109703 15.7049575,19.0188743 15.88966,19.20996 C16.2763966,19.6002754 16.2763966,20.2293146 15.88966,20.61963 C15.8423849,20.666088 15.7923257,20.7096252 15.73976,20.75 C15.6797,20.77979 15.61964,20.81006 15.56007,20.83984 L15.37989,20.8999 C15.313731,20.9114234 15.2468208,20.9181144 15.17969,20.91992 L15.17969,20.91992 Z" id="Shape" fill="#ECF0F1"></path>
                <path d="M38.81982,25.07959 C38.554226,25.0805001 38.299031,24.9764273 38.10982,24.79004 C37.9255883,24.5991978 37.821762,24.3448414 37.81982,24.07959 C37.8214308,24.0158459 37.8281187,23.9523316 37.83982,23.88965 C37.8504046,23.823731 37.8706418,23.7597307 37.89988,23.69971 C37.919655,23.6382502 37.9500629,23.5807378 37.98972,23.52979 C38.0184562,23.4717295 38.0594373,23.4205884 38.10984,23.37989 C38.2006093,23.2810716 38.3138219,23.2055428 38.43992,23.15968 C38.8143329,23.0062263 39.2443007,23.0931043 39.52976,23.37989 C39.5746063,23.4258077 39.6148391,23.4760149 39.64988,23.52979 C39.6895371,23.5807378 39.719945,23.6382502 39.73972,23.69971 C39.7689582,23.7597307 39.7891954,23.823731 39.79978,23.88965 C39.8114813,23.9523316 39.8181692,24.0158459 39.81978,24.07959 C39.8159947,24.3444694 39.7124346,24.5981737 39.52978,24.79004 C39.3405789,24.9764175 39.0854002,25.0804895 38.81982,25.07959 L38.81982,25.07959 Z" id="Shape" fill="#ECF0F1"></path>
                <path d="M15.17969,25.07959 C15.0496861,25.0817393 14.9205534,25.0580054 14.79981,25.00977 C14.6800073,24.9578668 14.5714009,24.8832337 14.48,24.79 C14.2873839,24.6039219 14.1789439,24.347366 14.17971,24.07955 C14.1813188,23.9489065 14.2085252,23.8198458 14.25979,23.69967 C14.3672707,23.4593965 14.5595165,23.2671507 14.79979,23.15967 C15.1746622,23.0112036 15.601811,23.0975121 15.88963,23.37988 C15.9831502,23.4711374 16.0579529,23.5797764 16.10984,23.6997 C16.1578437,23.8205102 16.181569,23.9495961 16.17966,24.07958 C16.1841917,24.3460855 16.0793939,24.6028222 15.88966,24.79003 C15.7015451,24.978057 15.4456474,25.0824244 15.17969,25.07959 Z" id="Shape" fill="#ECF0F1"></path>
                <path d="M38.81982,20.91992 C38.6891765,20.9183112 38.5601158,20.8911048 38.43994,20.83984 C38.3137497,20.7941594 38.2004964,20.7186034 38.10986,20.61963 C37.925833,20.4330111 37.8218019,20.1820054 37.81986,19.91992 C37.821704,19.6547819 37.9255529,19.400531 38.10986,19.20992 C38.2032587,19.11422 38.3157115,19.0391981 38.43994,18.98971 C38.6833057,18.889611 38.9563443,18.889611 39.19971,18.98971 C39.3212875,19.0441191 39.4328656,19.1185575 39.52979,19.20992 C39.7140971,19.400531 39.817946,19.6547819 39.81979,19.91992 C39.8112931,20.4686467 39.3685167,20.9114231 38.81979,20.91992 L38.81982,20.91992 Z" id="Shape" fill="#ECF0F1"></path>
                <path d="M16.60986,29 C16.479211,28.9984414 16.3501406,28.971233 16.22998,28.91992 C16.1063785,28.8739741 15.9938908,28.8024083 15.8999,28.70992 C15.8097596,28.612029 15.735461,28.5006603 15.67969,28.37984 C15.5865922,28.1349737 15.5865922,27.8644563 15.67969,27.61959 C15.7353467,27.4988537 15.8096592,27.3876295 15.8999,27.29 C15.9937388,27.1972125 16.1062608,27.1254715 16.22998,27.07955 C16.6024876,26.9237794 17.0320907,27.0067365 17.31982,27.29 C17.6082799,27.5760905 17.6949819,28.0082668 17.539191,28.3834815 C17.3834,28.7586962 17.0160851,29.0023626 16.60982,29 L16.60986,29 Z" id="Shape" fill="#ECF0F1"></path>
                <path d="M37.38965,17 C37.1276103,16.997833 36.8766858,16.8938355 36.68994,16.71 C36.5933094,16.6173776 36.518144,16.5047097 36.46973,16.37992 C36.3629602,16.1377494 36.3629602,15.8618406 36.46973,15.61967 C36.5180332,15.4949654 36.5932187,15.3824348 36.68994,15.29008 C36.7817532,15.1996838 36.8904128,15.1281829 37.00976,15.07963 C37.3821629,14.9228496 37.8123438,15.0059182 38.0996,15.29008 C38.1900011,15.387583 38.2643315,15.498834 38.31981,15.61967 C38.3678598,15.7406246 38.3915923,15.8698654 38.38965,16 C38.3906146,16.265692 38.2863503,16.5209598 38.09965,16.71 C37.907888,16.8925356 37.6543698,16.9960852 37.38965,17 Z" id="Shape" fill="#ECF0F1"></path>
                <path d="M19.29,32.18994 C19.0242205,32.1906731 18.7688975,32.0864523 18.57955,31.89994 C18.3000914,31.6105688 18.2143198,31.1851501 18.35982,30.8101 C18.4139356,30.6884752 18.488226,30.5768757 18.57955,30.48002 C18.6715171,30.389694 18.7803529,30.3183396 18.89986,30.27002 C19.2730596,30.1220484 19.6982048,30.2039691 19.9897,30.48002 C20.177263,30.66934 20.2847885,30.9235713 20.28999,31.19002 C20.2881665,31.2569864 20.2814823,31.3237319 20.26999,31.38973 C20.24999,31.44979 20.23972,31.50985 20.20993,31.57967 C20.1838611,31.638525 20.1536763,31.6954695 20.1196,31.75008 C20.0791504,31.8024415 20.0357887,31.8524871 19.98972,31.89998 C19.9490216,31.9503827 19.8978805,31.9913638 19.83982,32.0201 C19.7868905,32.0592621 19.729927,32.0926551 19.6699,32.11971 C19.6082474,32.1422135 19.5446707,32.1590466 19.47996,32.17 C19.4180619,32.1864828 19.3539716,32.1932103 19.29,32.18994 Z" id="Shape" fill="#ECF0F1"></path>
                <path d="M34.71,13.81006 C34.5791926,13.808503 34.4499616,13.7812958 34.32963,13.72998 C34.2079355,13.6813451 34.098661,13.6061048 34.00981,13.50977 C33.819344,13.3266878 33.7111826,13.0742475 33.71001,12.81006 C33.7110648,12.542711 33.8190168,12.286892 34.00981,12.09961 C34.1040044,12.0097647 34.2119779,11.9355823 34.32963,11.87988 C34.70459,11.7315484 35.1317198,11.8176262 35.41996,12.09961 C35.6064723,12.2889575 35.7106931,12.5442805 35.70996,12.81006 C35.7124335,13.0730219 35.6077278,13.325655 35.41996,13.50977 C35.2329747,13.7007638 34.9772842,13.8089126 34.71,13.81006 L34.71,13.81006 Z" id="Shape" fill="#ECF0F1"></path>
                <path d="M22.8999,34.27979 C22.7659081,34.2784863 22.6334314,34.2512942 22.50976,34.19971 C22.3880251,34.1513759 22.2787209,34.0762792 22.18994,33.97998 C22.1388893,33.9371116 22.0950398,33.8863376 22.06006,33.82959 C22.02979,33.77979 22,33.71973 21.96973,33.65967 C21.9471084,33.5980904 21.9304324,33.5344871 21.91993,33.46973 C21.9034039,33.4078461 21.8966557,33.3437588 21.89993,33.27979 C21.8989089,33.1465474 21.9225817,33.0142686 21.96975,32.88965 C22.0974246,32.5810344 22.3711723,32.3568677 22.698905,32.292559 C23.0266377,32.2282503 23.3647982,32.3323465 23.59963,32.56983 C23.6961179,32.6585482 23.7713838,32.7678599 23.81984,32.88965 C23.8701659,33.0137056 23.8973084,33.1459406 23.89992,33.27979 C23.8980922,33.3435197 23.8914061,33.4070172 23.87992,33.46973 C23.85992,33.54004 23.83992,33.59961 23.81986,33.65967 C23.79007,33.71973 23.7598,33.77979 23.73002,33.82959 C23.6947217,33.8862486 23.6507268,33.9369994 23.59965,33.97998 C23.4166157,34.1705405 23.1641228,34.2787218 22.8999,34.27979 L22.8999,34.27979 Z" id="Shape" fill="#ECF0F1"></path>
                <path d="M29,28 L25,28 C24.4477153,28 24,27.5522847 24,27 C24,26.4477153 24.4477153,26 25,26 L26,26 L26,22.00049 C26,21.4482053 26.4477153,21.00049 27,21.00049 C27.5522847,21.00049 28,21.4482053 28,22.00049 L28,26 L29,26 C29.5522847,26 30,26.4477153 30,27 C30,27.5522847 29.5522847,28 29,28 Z" id="Shape" fill="#ECF0F1"></path>
                <path d="M27,19 C26.4477153,19 26,18.5522847 26,18 L26,17.61816 L25.44727,17.89453 C25.1275168,18.0556795 24.7460088,18.0335918 24.4469895,17.8366179 C24.1479702,17.639644 23.977069,17.2978414 23.9989014,16.9404416 C24.0207339,16.5830419 24.2319685,16.2645828 24.55274,16.10547 L26.55274,15.10547 C26.8627533,14.9505059 27.230898,14.9670973 27.5257152,15.1493194 C27.8205324,15.3315415 27.9999876,15.6534137 28,16 L28,18 C28,18.5522847 27.5522847,19 27,19 Z" id="Shape" fill="#ECF0F1"></path>
            </g>
            <g id="Outline" transform="translate(21.000000, 9.000000)" fill="#ECF0F1">
                <path d="M6,2 C5.93286971,1.99820101 5.86595949,1.99151667 5.7998,1.98 C5.73713042,1.96888189 5.67642653,1.94864726 5.61962,1.91994 C5.55601148,1.89786337 5.49559352,1.86749132 5.43993,1.82961 C5.38964,1.79006 5.33983,1.75002 5.29003,1.70998 C5.19953237,1.61433385 5.12810638,1.50230587 5.07958,1.3799 C5.02847117,1.25968735 5.00143428,1.13061828 5,1 C5.00155636,0.932854581 5.0082425,0.865926324 5.02,0.7998 C5.03071521,0.73709416 5.05079627,0.676355442 5.07957,0.61962 C5.10164663,0.556011476 5.13201868,0.495593519 5.1699,0.43993 C5.2099,0.38964 5.24998,0.33983 5.29002,0.29003 C5.33982,0.25003 5.38963,0.20995 5.43992,0.16991 C5.49558352,0.132028679 5.55600148,0.101656627 5.61961,0.07958 C5.67634795,0.050801718 5.73709015,0.0307172494 5.7998,0.02 C5.99465583,-0.0208372296 6.19739095,-1.78060569e-05 6.37988,0.07957 C6.50349323,0.125718679 6.61598188,0.197422871 6.71,0.29 C6.75,0.3398 6.79008,0.38961 6.82963,0.4399 C6.86751132,0.495563519 6.89788337,0.555981476 6.91996,0.61959 C6.9486631,0.676407029 6.96889105,0.737121182 6.98,0.7998 C6.99151667,0.865959492 6.99820101,0.932869711 7,1 C6.99839119,1.13064347 6.97118475,1.25970417 6.91992,1.37988 C6.82888932,1.63104228 6.63108228,1.82884932 6.37992,1.91988 C6.25973454,1.9711636 6.13065964,1.99838375 6,2 L6,2 Z" id="Shape"></path>
                <path d="M1.8999,2.71973 C1.7665792,2.72169121 1.63412586,2.69798717 1.50976,2.64991 C1.38993438,2.59784614 1.28132756,2.52306562 1.18994,2.4297 C1.00178744,2.24162187 0.897264887,1.98572182 0.89994,1.7197 C0.897372523,1.45671987 1.00209286,1.20405137 1.18994,1.01999 C1.27856703,0.923397228 1.38790446,0.848113643 1.50976,0.79978 C1.88463216,0.651313648 2.31178098,0.737622135 2.5996,1.01999 C2.79046902,1.20283522 2.89885428,1.45538525 2.89989,1.7197 C2.89897822,1.98704414 2.79079341,2.24283427 2.5996,2.4297 C2.41554609,2.61755565 2.16288108,2.72228687 1.8999,2.71973 L1.8999,2.71973 Z" id="Shape"></path>
                <path d="M10.10986,2.73 C9.97589362,2.72845738 9.84346201,2.70127451 9.71972,2.64992 C9.59989438,2.59785614 9.49128756,2.52307562 9.3999,2.42971 C9.30346017,2.3409501 9.22820234,2.23165007 9.17969,2.10989 C9.12833549,1.98614799 9.10115262,1.85371638 9.09961,1.71975 C9.10121881,1.58910653 9.12842525,1.46004583 9.17969,1.33987 C9.28717069,1.09959648 9.47941648,0.907350691 9.71969,0.79987 C10.0947242,0.651453385 10.5219831,0.737745314 10.81002,1.02008 C10.9032404,1.11148743 10.9778598,1.220097 11.02975,1.3399 C11.1538401,1.64872136 11.1182705,1.99880058 10.9346023,2.27635235 C10.7509342,2.55390413 10.4426161,2.72349376 10.10986,2.73 Z" id="Shape"></path>
            </g>
        </g>
    </g>
</svg>